<?xml version="1.0" standalone="no"?>
<!DOCTYPE svg PUBLIC "-//W3C//DTD SVG 1.1//EN" "http://www.w3.org/Graphics/SVG/1.1/DTD/svg11.dtd" >
<svg xmlns="http://www.w3.org/2000/svg" xmlns:xlink="http://www.w3.org/1999/xlink" version="1.1">
<metadata>
Created by FontForge 20170731 at Mon Nov  8 08:21:04 2021
 By Aleksey,,,
Copyright (c) 2021 Kil Hyung-jin
</metadata>
<defs>
<font id="Pretendard-ExtraLight" horiz-adv-x="1770" >
  <font-face 
    font-family="Pretendard ExtraLight"
    font-weight="200"
    font-stretch="normal"
    units-per-em="2048"
    panose-1="2 0 3 3 0 0 0 2 0 4"
    ascent="1638"
    descent="-410"
    x-height="1086"
    cap-height="1448"
    bbox="-1455 -636 5124 2136"
    underline-thickness="86"
    underline-position="-419"
    unicode-range="U+0020-F0000"
  />
<missing-glyph horiz-adv-x="1934" 
d="M1782 1769h-1629v132h1629v-132zM1782 1325h-1629v131h1629v-131zM1782 881h-1629v132h1629v-132zM1782 436h-1629v131h1629v-131zM1782 -8h-1629v131h1629v-131zM1782 -453h-1629v132h1629v-132z" />
    <glyph glyph-name=".notdef" horiz-adv-x="1934" 
d="M1782 1769h-1629v132h1629v-132zM1782 1325h-1629v131h1629v-131zM1782 881h-1629v132h1629v-132zM1782 436h-1629v131h1629v-131zM1782 -8h-1629v131h1629v-131zM1782 -453h-1629v132h1629v-132z" />
    <glyph glyph-name=".null" horiz-adv-x="0" 
 />
    <glyph glyph-name="nonmarkingreturn" horiz-adv-x="682" 
 />
    <glyph glyph-name="space" unicode=" " horiz-adv-x="475" 
 />
    <glyph glyph-name="exclam" unicode="!" horiz-adv-x="497" 
d="M193 1448h111l-6 -1027h-99zM249 -10q-35 0 -60.5 25t-24.5 60q-1 35 24.5 60t60.5 25t60 -25t25 -60t-25 -60t-60 -25z" />
    <glyph glyph-name="quotedbl" unicode="&#x22;" horiz-adv-x="695" 
d="M144 1448h95v-474h-95v474zM455 1448h95v-474h-95v474z" />
    <glyph glyph-name="numbersign" unicode="#" horiz-adv-x="1221" 
d="M1201 1020l-16 -89h-242l-68 -414h242l-15 -89h-241l-70 -428h-89l70 428h-421l-70 -428h-89l70 428h-241l14 89h242l68 414h-241l15 89h241l70 428h89l-70 -428h420l70 428h89l-70 -428h243zM366 517h420l68 414h-420z" />
    <glyph glyph-name="dollar" unicode="$" horiz-adv-x="1204" 
d="M1088 380q0 -168 -121 -280t-326 -123v-158h-77v158q-197 10 -317 112.5t-131 266.5h106q10 -124 103 -199t239 -83v625l-59 17q-353 107 -353 366q0 158 116 264.5t296 120.5v162h77v-160q184 -8 302 -115t126 -269h-102q-11 124 -99 202.5t-227 86.5v-595l63 -18
q84 -25 148.5 -55.5t120.5 -75.5t85.5 -108t29.5 -142zM548 807l16 -5v571q-138 -12 -223.5 -91.5t-85.5 -195.5q0 -194 293 -279zM641 676v-602q155 11 250.5 94t95.5 212q0 107 -77 173t-235 113z" />
    <glyph glyph-name="percent" unicode="%" horiz-adv-x="1536" 
d="M143 1123v59q0 124 71.5 205.5t185.5 81.5q116 0 186.5 -81t70.5 -206v-59q0 -126 -71 -207t-186 -81t-186 81t-71 207zM318 0h-102l995 1448h101zM232 1182v-59q0 -92 45.5 -150t122.5 -58t122.5 58t45.5 150v59q0 91 -45.5 149t-122.5 58q-76 0 -122 -58t-46 -149z
M879 267v58q0 125 71 206.5t187 81.5q115 0 186 -81t71 -207v-58q0 -125 -71.5 -206.5t-185.5 -81.5q-116 0 -187 81.5t-71 206.5zM969 325v-58q0 -91 45.5 -149.5t122.5 -58.5q76 0 121.5 58.5t45.5 149.5v58q0 92 -45 150t-122 58t-122.5 -58t-45.5 -150z" />
    <glyph glyph-name="ampersand" unicode="&#x26;" horiz-adv-x="1173" 
d="M977 224l181 -224h-121l-119 147q0 -2 -6 -7q-70 -76 -173.5 -118t-210.5 -42q-189 0 -310 112t-121 280q0 75 31.5 139.5t88 121t152.5 126.5l34 25q-57 70 -83.5 104t-58.5 84t-44 91.5t-12 86.5q0 134 94 225t234 91q139 0 226.5 -86t87.5 -213q0 -92 -48 -167.5
t-152 -155.5l-105 -78l374 -465q70 119 85 273l97 -3q-11 -196 -121 -347zM306 1148q0 -33 10 -64.5t40.5 -77t49.5 -70.5t75 -94l100 75q88 65 127 121.5t39 128.5q0 86 -60.5 147t-151.5 61q-94 0 -161.5 -69t-67.5 -158zM526 71q199 3 331 151l-392 486l-63 -47
q-203 -154 -203 -289q0 -125 93 -212.5t234 -88.5z" />
    <glyph glyph-name="quotesingle" unicode="'" horiz-adv-x="384" 
d="M144 1448h95v-474h-95v474z" />
    <glyph glyph-name="parenleft" unicode="(" horiz-adv-x="632" 
d="M204 610q0 485 236 905h93q-105 -186 -165.5 -427t-60.5 -478t60.5 -478t165.5 -427h-93q-236 423 -236 905z" />
    <glyph glyph-name="parenright" unicode=")" horiz-adv-x="632" 
d="M429 610q0 -485 -236 -905h-94q105 187 166 427.5t61 477.5t-61 478t-166 427h94q236 -423 236 -905z" />
    <glyph glyph-name="asterisk" unicode="*" horiz-adv-x="956" 
d="M521 634h-85l5 342l-295 -176l-43 75l301 166l-301 166l43 75l295 -176l-5 342h85l-5 -342l294 176l43 -75l-301 -166l301 -166l-43 -75l-294 176z" />
    <glyph glyph-name="plus" unicode="+" horiz-adv-x="1248" 
d="M673 615h387v-97h-387v-388h-97v388h-387v97h387v386h97v-386z" />
    <glyph glyph-name="comma" unicode="," horiz-adv-x="493" 
d="M197 110h110l-137 -493h-86z" />
    <glyph glyph-name="hyphen" unicode="-" horiz-adv-x="854" 
d="M136 668h582v-95h-582v95z" />
    <glyph glyph-name="period" unicode="." horiz-adv-x="485" 
d="M243 -10q-35 0 -60.5 25t-24.5 60q-1 35 24.5 60t60.5 25t59.5 -25t24.5 -60t-24.5 -60t-59.5 -25z" />
    <glyph glyph-name="slash" unicode="/" horiz-adv-x="635" 
d="M504 1516h95l-467 -1734h-95z" />
    <glyph glyph-name="zero" unicode="0" horiz-adv-x="1169" 
d="M585 -20q-222 0 -346.5 197t-124.5 547q0 349 125 546.5t346 197.5t346 -197.5t125 -546.5q0 -350 -124.5 -547t-346.5 -197zM585 76q174 0 271.5 171t97.5 477t-98 478t-271 172t-271 -172t-98 -478t97.5 -477t271.5 -171z" />
    <glyph glyph-name="one" unicode="1" horiz-adv-x="828" 
d="M446 1448h114v-1448h-105v1339h-8l-335 -218v109z" />
    <glyph glyph-name="two" unicode="2" horiz-adv-x="1209" 
d="M1068 0h-918l-1 78l485 537q158 176 215.5 271t58.5 196q-1 128 -92 210t-228 82q-142 0 -231 -87.5t-89 -220.5h-100q-1 173 119 287.5t304 114.5q179 0 297 -110t119 -276q-1 -120 -66.5 -232t-248.5 -312l-392 -435v-8h768v-95z" />
    <glyph glyph-name="three" unicode="3" horiz-adv-x="1229" 
d="M620 -20q-201 0 -333.5 107.5t-136.5 275.5h105q3 -126 107 -206.5t257 -80.5q161 0 264 88t104 220q-1 140 -111 226.5t-291 86.5h-65v95h65q155 0 254.5 81t100.5 213q-1 127 -89.5 207.5t-230.5 80.5q-141 0 -236.5 -80t-97.5 -208h-102q3 168 127.5 275t310.5 107
t302.5 -108.5t116.5 -269.5q0 -125 -71 -214.5t-193 -123.5v-7q145 -30 229 -127t84 -235q0 -172 -133.5 -287.5t-336.5 -115.5z" />
    <glyph glyph-name="four" unicode="4" horiz-adv-x="1214" 
d="M907 415h194v-95h-194v-320h-100v320h-693v85l670 1043h123v-1033zM796 1296l-560 -873v-8h571v881h-11z" />
    <glyph glyph-name="five" unicode="5" horiz-adv-x="1170" 
d="M572 -20q-185 0 -306.5 108t-124.5 275h102q3 -126 95 -207t234 -81q162 0 266.5 108t103.5 270q-1 167 -109 272.5t-268 106.5q-200 2 -290 -135l-109 -1l98 752h721v-95h-634l-69 -533h10q46 52 123.5 80.5t163.5 28.5q96 0 181.5 -35t148 -96.5t99 -150.5t36.5 -192
q-1 -206 -134 -340.5t-338 -134.5z" />
    <glyph glyph-name="six" unicode="6" horiz-adv-x="1198" 
d="M610 -20q-78 0 -148 23.5t-132 76t-106.5 130t-70.5 193.5t-26 259q0 171 29.5 314t88.5 254.5t157 174.5t227 63q176 0 289.5 -105t132.5 -277h-103q-18 129 -101.5 208t-217.5 79q-195 0 -299 -177.5t-104 -507.5h13q48 101 152 162.5t229 61.5q187 0 319 -133
t132 -331q0 -95 -33.5 -180.5t-92.5 -149.5t-146.5 -101t-188.5 -37zM610 75q153 0 256 109t104 264q-1 155 -105 262.5t-258 107.5q-105 0 -192 -53t-132 -141.5t-33 -188.5q22 -163 120 -261.5t240 -98.5z" />
    <glyph glyph-name="seven" unicode="7" horiz-adv-x="1096" 
d="M302 0h-111l687 1345v8h-790v95h902v-99z" />
    <glyph glyph-name="eight" unicode="8" horiz-adv-x="1217" 
d="M608 -20q-138 0 -250.5 52t-176 143.5t-63.5 202.5q-1 134 87 239.5t221 131.5v6q-114 33 -185 126.5t-70 211.5q-1 159 125 267t312 108q184 0 310.5 -107.5t127.5 -267.5q-1 -118 -72 -211.5t-184 -126.5v-6q132 -25 220 -131t89 -240q-1 -170 -141.5 -284t-349.5 -114
zM608 792q141 0 238 85.5t97 210.5q0 123 -96 205t-239 82q-144 0 -240 -81.5t-95 -205.5q-1 -125 96 -210.5t239 -85.5zM608 75q168 0 277 88.5t109 220.5q0 134 -111 226.5t-275 92.5t-275 -92.5t-110 -226.5q-1 -132 108 -220.5t277 -88.5z" />
    <glyph glyph-name="nine" unicode="9" horiz-adv-x="1198" 
d="M588 1468q99 0 183.5 -38.5t153 -116.5t107.5 -212.5t39 -311.5q0 -171 -29.5 -314.5t-88.5 -256t-157 -175.5t-227 -63q-176 0 -290.5 106.5t-132.5 279.5h104q18 -130 101.5 -210t217.5 -80q195 0 299 178t104 509h-12q-48 -101 -152.5 -162.5t-228.5 -61.5
q-188 0 -320 133t-132 331q0 127 56.5 232.5t163 169t241.5 63.5zM588 1373q-153 0 -256.5 -108t-102.5 -262q-1 -156 104 -263t260 -107q104 0 190.5 53t131 142t32.5 188q-21 162 -119 259.5t-240 97.5z" />
    <glyph glyph-name="colon" unicode=":" horiz-adv-x="485" 
d="M243 821q-35 0 -60.5 25t-24.5 60q-1 35 24.5 60t60.5 25t60 -25t25 -60t-25 -60t-60 -25zM243 54q-35 0 -60.5 25t-24.5 60q-1 35 24 59.5t61 24.5q35 0 59.5 -24.5t24.5 -59.5t-24.5 -60t-59.5 -25z" />
    <glyph glyph-name="semicolon" unicode=";" horiz-adv-x="485" 
d="M243 867q-35 0 -60.5 25t-24.5 60q-1 35 24.5 60t60.5 25t59.5 -25t24.5 -60t-24.5 -60t-59.5 -25zM197 110h110l-137 -493h-86z" />
    <glyph glyph-name="less" unicode="&#x3c;" horiz-adv-x="1248" 
d="M1043 1090v-111l-710 -410v-7l710 -409v-111l-837 485v78z" />
    <glyph glyph-name="equal" unicode="=" horiz-adv-x="1248" 
d="M1006 718h-762v94h762v-94zM1006 320h-762v94h762v-94z" />
    <glyph glyph-name="greater" unicode="&#x3e;" horiz-adv-x="1248" 
d="M206 979v111l837 -485v-78l-837 -485v111l711 409v7z" />
    <glyph glyph-name="question" unicode="?" horiz-adv-x="940" 
d="M477 421h-102v59q0 94 23.5 159.5t65 110t117.5 94.5q89 60 129.5 121t40.5 140q0 119 -81.5 195.5t-203.5 76.5t-205.5 -79.5t-87.5 -211.5h-105q3 169 116 275.5t282 106.5t278.5 -103.5t109.5 -262.5q0 -101 -49 -177t-156 -149q-99 -66 -135 -128.5t-37 -167.5v-59z
M429 -10q-35 0 -60.5 25t-24.5 60q-1 35 24.5 60t60.5 25t59.5 -25t24.5 -60t-24.5 -60t-59.5 -25z" />
    <glyph glyph-name="at" unicode="@" horiz-adv-x="1810" 
d="M905 1431q174 0 322 -56.5t251 -156t161 -239t58 -301.5q0 -227 -93 -361.5t-243 -134.5q-96 0 -161 56t-72 144h-6q-27 -80 -95 -136t-166 -56q-145 0 -236.5 116t-91.5 306q0 188 92 304t237 116q97 0 164 -53t91 -131h6v170h92l1 -579q1 -83 40.5 -128t108.5 -45
q110 0 176.5 112.5t67.5 298.5q0 147 -51.5 271t-143.5 211t-223 136t-286 49q-154 0 -286 -55.5t-223 -153t-142.5 -232.5t-51.5 -291q0 -333 188.5 -534t510.5 -200q174 1 315 35v-85q-151 -36 -315 -36q-236 0 -414.5 101t-275.5 287t-97 432q0 177 58.5 329t162.5 259.5
t251.5 169t318.5 61.5zM875 279q114 0 181.5 93t68.5 240q-1 146 -69 238.5t-181 92.5q-113 1 -180.5 -91t-67.5 -240t67 -241t181 -92z" />
    <glyph glyph-name="A" unicode="A" horiz-adv-x="1243" 
d="M1204 0h-110l-161 453h-623l-161 -453h-109l522 1448h118zM617 1315l-273 -767h555l-273 767h-9z" />
    <glyph glyph-name="B" unicode="B" horiz-adv-x="1247" 
d="M697 0h-512v1448h477q197 0 305 -102t108 -272q0 -130 -62 -214.5t-166 -111.5v-9q116 -9 200 -108.5t84 -253.5q0 -171 -111.5 -274t-322.5 -103zM289 1353v-571h397q132 0 210 82.5t78 208.5q0 129 -82 204.5t-231 75.5h-372zM289 689v-594h407q160 0 247 77.5
t87 205.5q0 134 -92.5 222.5t-238.5 88.5h-410z" />
    <glyph glyph-name="C" unicode="C" horiz-adv-x="1405" 
d="M1298 994h-106q-29 155 -155 265t-306 110q-106 0 -199 -43t-163.5 -122.5t-111.5 -203.5t-41 -276q0 -153 41 -277t111.5 -203.5t163.5 -122t199 -42.5q180 0 305.5 109t155.5 265h106q-16 -93 -62 -177t-116.5 -150.5t-171.5 -106t-217 -39.5q-274 0 -445.5 204.5
t-171.5 539.5t171.5 539.5t445.5 204.5q116 0 217 -39t171.5 -105.5t116.5 -151t62 -178.5z" />
    <glyph glyph-name="D" unicode="D" horiz-adv-x="1388" 
d="M623 1448q307 0 480 -191t172 -529q-1 -345 -179 -536.5t-501 -191.5h-410v1448h438zM289 95h301q283 0 433.5 166.5t149.5 466.5q-1 295 -144.5 460t-410.5 165h-329v-1258z" />
    <glyph glyph-name="E" unicode="E" horiz-adv-x="1137" 
d="M1018 0h-833v1448h818v-95h-714v-581h670v-95h-670v-582h729v-95z" />
    <glyph glyph-name="F" unicode="F" horiz-adv-x="1128" 
d="M289 0h-104v1448h818v-95h-714v-581h647v-95h-647v-677z" />
    <glyph glyph-name="G" unicode="G" horiz-adv-x="1436" 
d="M762 592v95h549v-94q0 -281 -160 -447t-414 -166q-282 0 -452.5 203.5t-170.5 540.5q0 336 170 540t444 204q118 0 220 -40t173 -107t117.5 -150.5t62.5 -174.5h-107q-18 74 -56.5 139.5t-96 118.5t-139 84t-174.5 31q-227 0 -369.5 -175t-142.5 -470t143.5 -470
t377.5 -175q209 0 339.5 138t132.5 375h-447z" />
    <glyph glyph-name="H" unicode="H" horiz-adv-x="1432" 
d="M289 0h-104v1448h104v-676h854v676h104v-1448h-104v677h-854v-677z" />
    <glyph glyph-name="I" unicode="I" horiz-adv-x="473" 
d="M185 1448h104v-1448h-104v1448z" />
    <glyph glyph-name="J" unicode="J" horiz-adv-x="1018" 
d="M729 397v1051h105v-1051q-1 -207 -105 -312t-274 -105q-164 0 -271.5 90t-106.5 233h103q-1 -99 78 -163t197 -64q124 0 198.5 78.5t75.5 242.5z" />
    <glyph glyph-name="K" unicode="K" horiz-adv-x="1222" 
d="M289 0h-104v1448h104v-821h11l743 821h138l-624 -680l619 -768h-129l-557 694l-201 -224v-470z" />
    <glyph glyph-name="L" unicode="L" horiz-adv-x="1081" 
d="M990 0h-805v1448h104v-1353h701v-95z" />
    <glyph glyph-name="M" unicode="M" horiz-adv-x="1705" 
d="M185 0v1448h116l546 -1298h11l546 1298h117v-1448h-100v1214h-9l-512 -1214h-95l-512 1214h-9v-1214h-99z" />
    <glyph glyph-name="N" unicode="N" horiz-adv-x="1482" 
d="M1196 1448h102v-1448h-100l-900 1260h-9v-1260h-104v1448h101l901 -1261h9v1261z" />
    <glyph glyph-name="O" unicode="O" horiz-adv-x="1462" 
d="M1349 724q0 -335 -172 -539.5t-446 -204.5t-445.5 205t-171.5 539q0 335 171.5 539.5t445.5 204.5t446 -204.5t172 -539.5zM1247 724q-1 294 -144.5 469.5t-371.5 175.5t-371.5 -175t-143.5 -470q0 -294 143 -469.5t372 -175.5q228 0 372.5 175.5t143.5 469.5z" />
    <glyph glyph-name="P" unicode="P" horiz-adv-x="1195" 
d="M185 1448h454q209 0 329 -123t120 -317q0 -193 -120 -316t-328 -123h-351v-569h-104v1448zM289 665h347q164 0 256.5 95t92.5 248q0 154 -93 249.5t-257 95.5h-346v-688z" />
    <glyph glyph-name="Q" unicode="Q" horiz-adv-x="1462" 
d="M1349 724q0 -197 -62.5 -353.5t-176.5 -254.5l190 -252h-118l-148 198q-136 -82 -303 -82q-274 0 -445.5 205t-171.5 539q0 335 171.5 539.5t445.5 204.5t446 -204.5t172 -539.5zM216 724q0 -294 143 -469.5t372 -175.5q133 0 242 63l-236 311h117l195 -256
q94 84 146.5 219t51.5 308q-1 294 -144.5 469.5t-371.5 175.5t-371.5 -175t-143.5 -470z" />
    <glyph glyph-name="R" unicode="R" horiz-adv-x="1208" 
d="M813 623l338 -623h-120l-325 602q-42 -4 -66 -4h-351v-598h-104v1448h454q210 0 329.5 -117.5t119.5 -309.5q0 -147 -71.5 -251.5t-203.5 -146.5zM289 694h347q165 0 257 88t92 239q0 152 -92 242t-258 90h-346v-659z" />
    <glyph glyph-name="S" unicode="S" horiz-adv-x="1204" 
d="M1069 1085h-102q-11 131 -108.5 210.5t-248.5 79.5q-156 0 -255.5 -81.5t-99.5 -207.5q0 -194 293 -279l156 -46q84 -25 148.5 -55.5t120.5 -75.5t85.5 -108t29.5 -142q0 -177 -133 -290.5t-355 -113.5q-212 0 -342 104.5t-142 275.5h106q10 -131 114 -207t264 -76
q171 0 279 85t108 222q0 107 -77 173t-235 113l-170 50q-353 107 -353 366q0 169 131 278.5t329 109.5q196 0 322.5 -108t134.5 -277z" />
    <glyph glyph-name="T" unicode="T" horiz-adv-x="1209" 
d="M553 1353h-462v95h1028v-95h-462v-1353h-104v1353z" />
    <glyph glyph-name="U" unicode="U" horiz-adv-x="1448" 
d="M1159 496v952h105v-958q0 -223 -151.5 -368.5t-388.5 -145.5q-236 0 -388 145.5t-151 368.5v958h104v-952q0 -183 121.5 -302t313.5 -119t313.5 119t121.5 302z" />
    <glyph glyph-name="V" unicode="V" horiz-adv-x="1243" 
d="M40 1448h110l466 -1314h11l467 1314h110l-524 -1448h-118z" />
    <glyph glyph-name="W" unicode="W" horiz-adv-x="1793" 
d="M547 0h-116l-398 1448h107l345 -1287h9l341 1287h123l342 -1287h8l345 1287h108l-398 -1448h-116l-346 1276h-8z" />
    <glyph glyph-name="X" unicode="X" horiz-adv-x="1178" 
d="M42 1448h126l417 -645h8l418 645h125l-473 -724l473 -724h-125l-418 640h-8l-418 -640h-125l478 724z" />
    <glyph glyph-name="Y" unicode="Y" horiz-adv-x="1229" 
d="M563 646l-522 802h122l447 -693h10l447 693h122l-522 -802v-646h-104v646z" />
    <glyph glyph-name="Z" unicode="Z" horiz-adv-x="1185" 
d="M1071 0h-951v82l820 1271h-820v95h944v-82l-819 -1271h826v-95z" />
    <glyph glyph-name="bracketleft" unicode="[" horiz-adv-x="632" 
d="M549 -295h-326v1810h326v-87h-229v-1635h229v-88z" />
    <glyph glyph-name="backslash" unicode="\" horiz-adv-x="635" 
d="M598 -218h-95l-467 1734h96z" />
    <glyph glyph-name="bracketright" unicode="]" horiz-adv-x="632" 
d="M83 1515h325v-1810h-325v88h228v1635h-228v87z" />
    <glyph glyph-name="asciicircum" unicode="^" horiz-adv-x="818" 
d="M752 792h-104l-235 504h-7l-235 -504h-103l289 611h104z" />
    <glyph glyph-name="underscore" unicode="_" horiz-adv-x="833" 
d="M-24 0h880v-95h-880v95z" />
    <glyph glyph-name="grave" unicode="`" horiz-adv-x="951" 
d="M623 1240h-90l-215 315h119z" />
    <glyph glyph-name="a" unicode="a" horiz-adv-x="1060" 
d="M524 1102q57 0 110.5 -12t102.5 -39t85.5 -66.5t58 -99.5t21.5 -133v-752h-101v189h-7q-44 -93 -133.5 -153t-212.5 -60q-149 0 -248.5 87t-99.5 238q0 143 100.5 224.5t292.5 96.5q42 3 165 11.5t143 10.5v116q0 116 -75 183.5t-206 67.5q-112 0 -189 -48.5t-98 -132.5
h-104q18 123 127.5 197.5t267.5 74.5zM460 69q150 0 245.5 103.5t95.5 260.5v124l-290 -22q-310 -22 -310 -239q0 -104 72.5 -165.5t186.5 -61.5z" />
    <glyph glyph-name="b" unicode="b" horiz-adv-x="1173" 
d="M283 0h-98v1448h101v-593h8q41 108 127 177.5t218 69.5q196 0 317 -156.5t121 -405.5q0 -250 -121 -406.5t-317 -156.5q-131 0 -217 70t-128 179h-11v-226zM284 542q0 -208 93 -340t252 -132q161 0 253.5 133t92.5 339q0 205 -92.5 336t-253.5 131q-160 0 -252.5 -130
t-92.5 -337z" />
    <glyph glyph-name="c" unicode="c" horiz-adv-x="1067" 
d="M569 -23q-210 0 -341 159t-131 403t132 403.5t339 159.5q158 0 271 -93.5t135 -244.5h-101q-21 107 -104 176.5t-200 69.5q-162 0 -267 -131.5t-105 -336.5q0 -206 103.5 -339t268.5 -133q117 0 201 67.5t105 180.5h102q-23 -151 -135 -246t-273 -95z" />
    <glyph glyph-name="d" unicode="d" horiz-adv-x="1173" 
d="M534 -23q-196 0 -316.5 156.5t-120.5 406.5q0 249 121 405.5t317 156.5q132 0 218 -70t126 -177h9v593h101v-1448h-99v226h-11q-43 -108 -128.5 -178.5t-216.5 -70.5zM545 70q159 0 252 132t93 340q0 207 -93 337t-252 130q-108 0 -187.5 -62t-119.5 -166.5t-40 -238.5
q0 -206 93 -339t254 -133z" />
    <glyph glyph-name="e" unicode="e" horiz-adv-x="1115" 
d="M1020 575v-57h-823q3 -199 107.5 -324t279.5 -125q114 0 190 51t111 117h109q-37 -108 -146.5 -184t-263.5 -76q-220 0 -353.5 157t-133.5 404q0 245 131.5 404.5t335.5 159.5q92 0 174 -36t145 -101.5t100 -166.5t37 -223zM198 607h719q0 170 -100.5 286.5t-251.5 116.5
q-150 0 -253.5 -116t-113.5 -287z" />
    <glyph glyph-name="f" unicode="f" horiz-adv-x="647" 
d="M516 1420q-175 0 -175 -186v-148h237v-88h-237l-1 -998h-100v998h-161v88h161v165q0 123 68.5 193.5t190.5 70.5q55 0 98 -10v-92q-39 7 -81 7z" />
    <glyph glyph-name="g" unicode="g" horiz-adv-x="1147" 
d="M555 -430q-169 0 -283.5 70t-137.5 201h106q21 -88 106 -134t209 -46q160 0 247 79.5t87 238.5v261h-10q-38 -103 -126.5 -168t-218.5 -65q-195 0 -316 147.5t-121 392.5q0 247 120.5 401t317.5 154q132 0 217.5 -69.5t127.5 -177.5h10v231h99v-1111q0 -199 -117 -302
t-317 -103zM545 100q160 0 252.5 119t92.5 326q0 205 -92.5 334.5t-252.5 129.5q-161 0 -254 -130.5t-93 -333.5q0 -201 92.5 -323t254.5 -122z" />
    <glyph glyph-name="h" unicode="h" horiz-adv-x="1114" 
d="M257 696v-696h-101v1448h101v-534h9q39 87 122 136.5t200 49.5q168 0 269.5 -103.5t101.5 -283.5v-713h-100v707q0 137 -80.5 219t-212.5 82q-136 0 -222.5 -86t-86.5 -226z" />
    <glyph glyph-name="i" unicode="i" horiz-adv-x="417" 
d="M210 1276q-32 0 -55 22t-23 53t23 53.5t55 22.5t55 -22.5t23 -53.5t-23 -53t-55 -22zM260 0h-102v1086h102v-1086z" />
    <glyph glyph-name="j" unicode="j" horiz-adv-x="417" 
d="M209 1276q-32 0 -55.5 22t-23.5 53t23.5 53.5t55.5 22.5t54.5 -22.5t22.5 -53.5t-22.5 -53t-54.5 -22zM158 -123v1209h102v-1209q0 -130 -76 -207t-202 -77h-25v94h23q80 0 129 51t49 139z" />
    <glyph glyph-name="k" unicode="k" horiz-adv-x="982" 
d="M952 0h-129l-437 554l-129 -125v-429h-101v1448h101v-891h11l530 529h130l-467 -466z" />
    <glyph glyph-name="l" unicode="l" horiz-adv-x="411" 
d="M156 1448h101v-1448h-101v1448z" />
    <glyph glyph-name="m" unicode="m" horiz-adv-x="1656" 
d="M257 0h-101v1086h98v-165h9q32 83 108.5 131t182.5 48q113 0 187 -54t108 -152h8q34 96 117 151t202 55q155 0 240 -98t85 -274v-728h-100v728q0 134 -65 207t-185 73q-128 0 -200 -80t-72 -209v-719h-101v735q0 125 -64.5 199t-183.5 74q-122 0 -197.5 -84.5
t-75.5 -216.5v-707z" />
    <glyph glyph-name="n" unicode="n" horiz-adv-x="1109" 
d="M257 696v-696h-101v1086h98v-172h9q39 86 123 136t199 50q167 0 268 -103.5t101 -283.5v-713h-100v707q0 136 -80 218.5t-211 82.5q-135 0 -220.5 -86t-85.5 -226z" />
    <glyph glyph-name="o" unicode="o" horiz-adv-x="1131" 
d="M566 -23q-205 0 -337 158.5t-132 403.5q0 162 59.5 291t167 200.5t242.5 71.5q204 0 336.5 -158.5t132.5 -404.5q0 -245 -132 -403.5t-337 -158.5zM566 69q110 0 195 63.5t129 170t44 236.5t-44.5 237t-129 170.5t-194.5 63.5t-195 -63.5t-129.5 -170.5t-44.5 -237
t44.5 -236.5t129.5 -170t195 -63.5z" />
    <glyph glyph-name="p" unicode="p" horiz-adv-x="1144" 
d="M257 -407h-101v1493h98v-231h12q42 108 126.5 177.5t217.5 69.5q197 0 317.5 -156t120.5 -406q0 -249 -120.5 -406t-316.5 -157q-131 0 -218 70.5t-127 178.5h-9v-633zM255 542q0 -208 93 -340t252 -132q160 0 253.5 133t93.5 339q0 134 -40 238.5t-119.5 166.5
t-187.5 62q-161 0 -253 -129.5t-92 -337.5z" />
    <glyph glyph-name="q" unicode="q" horiz-adv-x="1144" 
d="M989 -407h-101v633h-9q-40 -108 -127 -178.5t-218 -70.5q-196 0 -316.5 157t-120.5 406q0 250 120.5 406t317.5 156q132 0 217 -69.5t127 -177.5h11v231h99v-1493zM545 70q158 0 251.5 132t93.5 340q0 207 -92.5 337t-252.5 130q-108 0 -187.5 -62t-119.5 -166.5
t-40 -238.5q0 -206 93.5 -339t253.5 -133z" />
    <glyph glyph-name="r" unicode="r" horiz-adv-x="652" 
d="M257 0h-101v1086h98v-169h8q35 84 118 134.5t188 50.5q21 0 51 -2v-101q-55 5 -57 5q-133 0 -219 -83t-86 -211v-710z" />
    <glyph glyph-name="s" unicode="s" horiz-adv-x="970" 
d="M860 830h-101q-19 85 -85.5 133t-171.5 49q-116 1 -190 -57.5t-74 -149.5q0 -144 205 -195l167 -41q130 -31 196.5 -103t66.5 -179q0 -138 -106 -224t-284 -86q-164 0 -264 75.5t-121 214.5h106q17 -97 88 -147.5t190 -50.5q131 0 209.5 57.5t78.5 154.5q0 149 -196 198
l-167 40q-132 31 -201 104t-69 178q0 133 101.5 217.5t263.5 83.5q149 -1 243.5 -75t114.5 -197z" />
    <glyph glyph-name="t" unicode="t" horiz-adv-x="668" 
d="M504 80q15 0 78 3v-96q-50 -5 -86 -5q-110 0 -190 71t-80 193v752h-161v88h161v260h101v-260h227v-88h-227v-732q0 -94 50.5 -140t126.5 -46z" />
    <glyph glyph-name="u" unicode="u" horiz-adv-x="1106" 
d="M850 395v691h100v-1086h-100v178h-8q-39 -87 -124.5 -139.5t-199.5 -52.5q-162 0 -262 103.5t-100 283.5v713h101v-707q0 -132 79.5 -214t205.5 -82q128 0 218 85.5t90 226.5z" />
    <glyph glyph-name="v" unicode="v" horiz-adv-x="1033" 
d="M858 1086h109l-394 -1086h-113l-393 1086h109l337 -956h8z" />
    <glyph glyph-name="w" unicode="w" horiz-adv-x="1555" 
d="M503 0h-110l-326 1086h106l273 -938h7l273 938h106l270 -937h8l273 937h106l-326 -1086h-109l-270 926h-11z" />
    <glyph glyph-name="x" unicode="x" horiz-adv-x="993" 
d="M88 1086h116l293 -475l292 475h117l-348 -543l348 -543h-116l-293 466l-293 -466h-116l345 543z" />
    <glyph glyph-name="y" unicode="y" horiz-adv-x="1033" 
d="M216 -407q-29 0 -53 2v92q20 -2 48 -2q32 0 55.5 5.5t52.5 21.5t54.5 53t45.5 94l47 127l-399 1100h109l337 -957h8l337 957h109l-459 -1266q-83 -227 -292 -227z" />
    <glyph glyph-name="z" unicode="z" horiz-adv-x="1003" 
d="M907 0h-787v82l634 902v7h-602v95h731v-85l-627 -898v-8h651v-95z" />
    <glyph glyph-name="braceleft" unicode="{" horiz-adv-x="632" 
d="M391 1178v-330q0 -97 -32.5 -153t-112.5 -80v-10q80 -24 112.5 -80t32.5 -152v-331q0 -131 49 -190t164 -59v-88q-163 0 -235.5 81t-72.5 256v306q0 120 -45 165.5t-165 46.5v101q120 1 165 47t45 165v306q0 175 72.5 256t235.5 80v-87q-115 0 -164 -58.5t-49 -191.5z
" />
    <glyph glyph-name="bar" unicode="|" horiz-adv-x="553" 
d="M232 1652h90v-1856h-90v1856z" />
    <glyph glyph-name="braceright" unicode="}" horiz-adv-x="632" 
d="M335 1179v-306q0 -119 45.5 -165t165.5 -47v-102q-121 -1 -166 -46.5t-45 -164.5v-306q0 -175 -72 -256t-235 -81v88q115 0 163.5 58.5t48.5 190.5v331q0 97 32.5 152.5t112.5 79.5v10q-80 24 -112.5 80t-32.5 152v331q0 132 -48.5 191t-163.5 59v87q163 1 235 -80
t72 -256z" />
    <glyph glyph-name="asciitilde" unicode="~" horiz-adv-x="1248" 
d="M251 452l-94 3q6 121 81 187.5t185 65.5q67 0 120.5 -25.5t121.5 -78.5q54 -41 87.5 -58t76.5 -18q68 0 114.5 44t54.5 118l94 -7q-11 -119 -85 -184t-177 -65q-62 1 -113.5 25.5t-114.5 76.5q-38 29 -60 42.5t-53 25t-63 11.5q-74 1 -122.5 -42.5t-52.5 -120.5z" />
    <glyph glyph-name="uni00A0" unicode="&#xa0;" horiz-adv-x="475" 
 />
    <glyph glyph-name="exclamdown" unicode="&#xa1;" horiz-adv-x="497" 
d="M249 1090q35 0 60 -24.5t25 -59.5t-25 -60t-60 -25t-60.5 25t-24.5 60q-1 35 24 59.5t61 24.5zM298 660l6 -1028h-111l6 1028h99z" />
    <glyph glyph-name="cent" unicode="&#xa2;" horiz-adv-x="1067" 
d="M875 503h102q-21 -143 -123.5 -236.5t-253.5 -103.5v-163h-76v164q-192 18 -309.5 173.5t-117.5 385.5q0 231 118.5 387.5t308.5 173.5v164h76v-163q147 -10 249.5 -102t124.5 -234h-101q-19 99 -93 166.5t-180 77.5v-937q105 9 180.5 75.5t94.5 171.5zM197 726
q0 -191 90 -320.5t237 -148.5v935q-145 -19 -236 -147.5t-91 -318.5z" />
    <glyph glyph-name="sterling" unicode="&#xa3;" horiz-adv-x="1218" 
d="M1065 1080l-100 25q20 112 -61.5 190.5t-205.5 77.5q-133 0 -219.5 -89.5t-83.5 -241.5l11 -359h353v-97h-350l8 -253q5 -166 -66 -238h694v-95h-918v95h66q45 0 74.5 37.5t40 89t8.5 111.5l-7 253h-185v97h182l-10 359q-6 194 109 309.5t289 116.5q117 0 211 -54.5
t137.5 -144.5t22.5 -189z" />
    <glyph glyph-name="currency" unicode="&#xa4;" horiz-adv-x="1354" 
d="M1245 591q0 -218 -123 -383l141 -144l-68 -70l-137 141q-76 -74 -175.5 -114.5t-209.5 -40.5q-223 0 -382 154l-136 -140l-67 70l140 143q-123 166 -123 384q0 224 128 390l-145 148l67 70l143 -147q158 147 375 147q221 0 379 -147l143 147l68 -70l-146 -149
q128 -166 128 -389zM673 74q199 0 336.5 150t138.5 367q0 143 -63 262t-172 186.5t-240 67.5q-130 0 -239 -68t-172 -186.5t-63 -261.5q0 -142 63 -261t172 -187.5t239 -68.5z" />
    <glyph glyph-name="yen" unicode="&#xa5;" horiz-adv-x="1024" 
d="M892 1448h116l-402 -768h288v-82h-329v-137h329v-82h-329v-379h-105v379h-329v82h329v137h-329v82h288l-402 768h116l374 -737h11z" />
    <glyph glyph-name="brokenbar" unicode="&#xa6;" horiz-adv-x="553" 
d="M232 1652h90v-750h-90v750zM232 -204v753h90v-753h-90z" />
    <glyph glyph-name="section" unicode="&#xa7;" horiz-adv-x="1036" 
d="M850 1135h-98q-4 105 -65 172.5t-169 67.5q-105 0 -168.5 -61.5t-63.5 -148.5q0 -41 15 -76t46 -64t58 -48.5t72 -45.5l187 -110q39 -23 54 -32.5t51.5 -33.5t54 -40t44 -44t39 -53t22 -58t9.5 -69q0 -88 -66.5 -155.5t-160.5 -78.5v-2q84 -60 118 -118t34 -131
q0 -141 -99.5 -220.5t-250.5 -79.5q-158 0 -261.5 93t-107.5 246h99q4 -113 78 -180t192 -67q108 0 180 55.5t72 152.5q0 71 -45 120t-155 114l-188 109q-143 83 -211 156t-68 177q1 91 63.5 160.5t160.5 76.5v5q-133 104 -133 241q0 129 93 216t236 87q147 0 237 -92.5
t95 -240.5zM843 490q0 40 -18 76t-56.5 69t-69 53.5t-82.5 51.5l-203 119q-93 17 -156.5 -35t-63.5 -139q0 -74 54 -129.5t176 -126.5l187 -107q83 -17 157 31.5t75 136.5z" />
    <glyph glyph-name="dieresis" unicode="&#xa8;" horiz-adv-x="1216" 
d="M442 1276q-30 0 -52.5 22.5t-22.5 52.5q0 31 22.5 53.5t52.5 22.5q32 0 54 -22t22 -54q0 -30 -22 -52.5t-54 -22.5zM774 1276q-30 0 -53 22.5t-23 52.5q0 31 23 53.5t53 22.5q31 0 53 -22t22 -54q0 -30 -22 -52.5t-53 -22.5z" />
    <glyph glyph-name="copyright" unicode="&#xa9;" horiz-adv-x="1782" 
d="M891 -23q-202 0 -374 100t-272.5 272.5t-100.5 374.5q0 152 60 290t160 238.5t238 159.5t289 59q152 0 290.5 -59t238.5 -159.5t159 -238.5t59 -290t-58.5 -290t-158.5 -238.5t-239 -159.5t-291 -59zM891 76q132 0 252.5 51.5t207.5 138t138 206.5t51 252t-51.5 252.5
t-138.5 207t-207 138t-252 51.5q-175 0 -324 -87t-236.5 -236.5t-87.5 -325.5q0 -131 51 -251t138 -207t207 -138.5t252 -51.5zM486 724q0 174 123 297t297 123q134 0 236 -78t134 -200h-105q-26 81 -98.5 130.5t-166.5 49.5q-134 0 -228 -94t-94 -228t94 -228t228 -94
q93 0 162.5 49.5t97.5 131.5h104q-32 -123 -131 -200.5t-233 -77.5q-174 0 -297 122.5t-123 296.5z" />
    <glyph glyph-name="ordfeminine" unicode="&#xaa;" horiz-adv-x="699" 
d="M345 1458q113 0 187.5 -60t74.5 -169v-505h-89v126h-4q-30 -63 -90.5 -101.5t-140.5 -38.5q-99 0 -164 56.5t-65 157.5q0 191 273 209q123 9 189 12v87q0 70 -46 111.5t-124 41.5q-68 0 -118.5 -31t-66.5 -82l-90 1q19 87 95 136t179 49zM301 780q93 0 154 65.5t61 165.5
v68q-58 -2 -173 -12q-202 -16 -202 -144q0 -63 46.5 -103t113.5 -40z" />
    <glyph glyph-name="guillemotleft" unicode="&#xab;" horiz-adv-x="1023" 
d="M417 1024h96l-282 -434l282 -434h-96l-286 424v20zM781 1024h96l-282 -434l282 -434h-96l-286 424v20z" />
    <glyph glyph-name="logicalnot" unicode="&#xac;" horiz-adv-x="992" 
d="M98 685v99h799v-419h-111v320h-688z" />
    <glyph glyph-name="uni00AD" unicode="&#xad;" horiz-adv-x="854" 
d="M136 668h582v-95h-582v95z" />
    <glyph glyph-name="registered" unicode="&#xae;" horiz-adv-x="1296" 
d="M648 1468q115 0 220 -45t180.5 -120.5t120.5 -180.5t45 -220q0 -154 -75.5 -284t-206 -205.5t-284.5 -75.5t-284.5 75.5t-206 205.5t-75.5 284q0 115 45 220t120.5 180.5t180.5 120.5t220 45zM648 421q131 0 241.5 64.5t175 175t64.5 241.5t-64.5 241.5t-175 175
t-241.5 64.5t-241.5 -64.5t-175 -175t-64.5 -241.5t64.5 -241.5t175 -175t241.5 -64.5zM866 1009q0 -52 -25.5 -91.5t-67.5 -58.5l114 -211h-85l-102 194h-2h-162v-194h-76v522h241q69 0 117 -44t48 -117zM683 1107h-147v-203h146q46 0 74.5 28t28.5 77q0 48 -28 73t-74 25z
" />
    <glyph glyph-name="macron" unicode="&#xaf;" horiz-adv-x="680" 
d="M68 1394h544v-88h-544v88z" />
    <glyph glyph-name="degree" unicode="&#xb0;" horiz-adv-x="867" 
d="M433 848q-127 0 -217.5 90t-90.5 218t90.5 218.5t217.5 90.5q128 0 218 -90.5t90 -218.5t-90 -218t-218 -90zM433 936q91 0 155.5 64t64.5 156t-64.5 156t-155.5 64t-155.5 -64.5t-64.5 -155.5t64.5 -155.5t155.5 -64.5z" />
    <glyph glyph-name="plusminus" unicode="&#xb1;" horiz-adv-x="1248" 
d="M673 1087v-330h383v-95h-383v-330h-97v330h-382v95h382v330h97zM1056 106h-862v96h862v-96z" />
    <glyph glyph-name="two.sups" unicode="&#xb2;" horiz-adv-x="789" 
d="M707 724h-616v68l320 312q95 93 131 146.5t36 112.5q0 72 -55.5 118.5t-139.5 46.5q-87 0 -141.5 -49.5t-54.5 -124.5h-91q0 109 81.5 179.5t207.5 70.5q124 0 204 -68.5t80 -171.5q0 -77 -45 -145t-164 -183l-234 -228v-5h481v-79z" />
    <glyph glyph-name="three.sups" unicode="&#xb3;" horiz-adv-x="796" 
d="M400 713q-135 0 -225 67.5t-91 172.5h94q1 -70 64.5 -115t157.5 -45q97 0 159.5 48.5t62.5 121.5q0 76 -68 123.5t-179 47.5h-45v74h45q95 0 156.5 43.5t61.5 117.5q0 69 -54 114t-139 45q-86 0 -145 -45.5t-61 -117.5h-88q1 105 85 172t209 67t205 -65.5t80 -165.5
q0 -75 -49 -127t-128 -69v-6q97 -17 152.5 -75t55.5 -138q0 -105 -89 -175t-227 -70z" />
    <glyph glyph-name="acute" unicode="&#xb4;" horiz-adv-x="951" 
d="M508 1240h-91l186 315h119z" />
    <glyph glyph-name="uni00B5" unicode="&#xb5;" horiz-adv-x="1137" 
d="M253 -415h-101v1501h101v-691q0 -138 88 -225t228 -87t228.5 87.5t88.5 224.5v691h101v-1086h-101v168h-7q-40 -85 -123 -133t-187 -48q-103 0 -186 48t-123 133h-7v-583z" />
    <glyph glyph-name="paragraph" unicode="&#xb6;" horiz-adv-x="1104" 
d="M920 1448v-1448h-103v1354h-153v-817h-82q-225 0 -351.5 126.5t-126.5 329.5q0 201 126.5 328t351.5 127h338z" />
    <glyph glyph-name="periodcentered" unicode="&#xb7;" horiz-adv-x="485" 
d="M243 549q-35 0 -60.5 25t-24.5 60q-1 35 24 59.5t61 24.5q35 0 59.5 -24.5t24.5 -59.5t-24.5 -60t-59.5 -25z" />
    <glyph glyph-name="cedilla" unicode="&#xb8;" horiz-adv-x="423" 
d="M149 -110l23 116h86l-10 -57q67 -10 106.5 -52t40.5 -113q-1 -83 -62 -128.5t-177 -47.5l-3 74q150 3 150 99q0 55 -37 81t-117 28z" />
    <glyph glyph-name="one.sups" unicode="&#xb9;" horiz-adv-x="539" 
d="M375 724h-91v774h-8l-211 -141v96l210 140h100v-869z" />
    <glyph glyph-name="ordmasculine" unicode="&#xba;" horiz-adv-x="744" 
d="M373 710q-140 0 -230.5 105t-90.5 268t90.5 269t230.5 106t229.5 -106t89.5 -269t-89.5 -268t-229.5 -105zM373 785q101 0 164 85.5t63 212.5q0 128 -63.5 214t-163.5 86q-101 0 -165 -86t-64 -214t64 -213t165 -85z" />
    <glyph glyph-name="guillemotright" unicode="&#xbb;" horiz-adv-x="1032" 
d="M523 580l-285 -424h-97l281 434l-281 434h97l285 -424v-20zM513 1024h97l285 -424v-20l-285 -424h-97l281 434z" />
    <glyph glyph-name="onequarter" unicode="&#xbc;" horiz-adv-x="1609" 
d="M248 679v675h-8l-198 -131v96l196 129h99v-769h-89zM224 0l994 1448h101l-994 -1448h-101zM1446 234h109v-76h-109v-158h-86v158h-407v72l385 539h108v-535zM1356 658l-304 -421v-3h309v424h-5z" />
    <glyph glyph-name="onehalf" unicode="&#xbd;" horiz-adv-x="1730" 
d="M337 679h-89v675h-8l-198 -131v96l196 129h99v-769zM325 0h-101l994 1448h101zM1660 0h-560v66l289 274q86 82 118 128t32 94q0 63 -49.5 103.5t-124.5 40.5q-77 0 -126 -42t-49 -107h-88q0 98 74.5 161t189.5 63q114 0 186.5 -62t72.5 -155q0 -68 -41 -129t-149 -161
l-204 -193v-5h429v-76z" />
    <glyph glyph-name="threequarters" unicode="&#xbe;" horiz-adv-x="1796" 
d="M648 888q0 -95 -81 -157.5t-207 -62.5q-123 0 -205 61.5t-82 155.5h92q0 -61 56 -100.5t139 -39.5q86 0 141.5 42.5t55.5 104.5q0 65 -61 105.5t-157 40.5h-42v69h42q84 0 139 39t55 101q0 59 -48.5 98.5t-124.5 39.5q-77 0 -128 -39.5t-51 -100.5h-89q1 93 77.5 154
t190.5 61t188 -59.5t74 -148.5q0 -65 -44 -111t-119 -62v-4q89 -16 139 -65.5t50 -121.5zM412 0l994 1448h100l-994 -1448h-100zM1633 234h109v-76h-109v-158h-86v158h-407v72l384 539h109v-535zM1542 658l-303 -421v-3h309v424h-6z" />
    <glyph glyph-name="questiondown" unicode="&#xbf;" horiz-adv-x="940" 
d="M512 1100q35 0 60.5 -25t24.5 -60q1 -35 -24.5 -60t-60.5 -25t-60 25t-25 60t25 60t60 25zM465 669h101v-59q0 -94 -23 -159.5t-64.5 -110t-117.5 -94.5q-89 -60 -130 -121.5t-41 -140.5q0 -119 81.5 -194.5t203.5 -75.5t205.5 79t87.5 211h105q-3 -169 -116 -275.5
t-282 -106.5t-278 103t-109 262q0 101 48.5 177.5t155.5 149.5q98 67 135 129t38 167v59z" />
    <glyph glyph-name="Agrave" unicode="&#xc0;" horiz-adv-x="1243" 
d="M483 1917l186 -315h-91l-214 315h119zM1204 0h-110l-161 453h-623l-161 -453h-109l522 1448h118zM617 1315l-273 -767h555l-273 767h-9z" />
    <glyph glyph-name="Aacute" unicode="&#xc1;" horiz-adv-x="1243" 
d="M761 1917h119l-215 -315h-90zM1204 0h-110l-161 453h-623l-161 -453h-109l522 1448h118zM617 1315l-273 -767h555l-273 767h-9z" />
    <glyph glyph-name="Acircumflex" unicode="&#xc2;" horiz-adv-x="1243" 
d="M805 1569l-183 208l-184 -208h-101v8l247 278h74l249 -278v-8h-102zM1204 0h-110l-161 453h-623l-161 -453h-109l522 1448h118zM617 1315l-273 -767h555l-273 767h-9z" />
    <glyph glyph-name="Atilde" unicode="&#xc3;" horiz-adv-x="1243" 
d="M490 1738q-48 0 -81.5 -31t-37.5 -78l-85 6q6 84 63 138t138 54q41 0 78.5 -16.5t62 -35.5t59 -35.5t68.5 -16.5q45 0 80.5 31t41.5 78l81 -12q-8 -83 -65 -134.5t-134 -51.5q-34 0 -64 10.5t-52 26l-44 31t-49.5 26t-59.5 10.5zM1204 0h-110l-161 453h-623l-161 -453
h-109l522 1448h118zM617 1315l-273 -767h555l-273 767h-9z" />
    <glyph glyph-name="Adieresis" unicode="&#xc4;" horiz-adv-x="1243" 
d="M455 1639q-30 0 -52.5 22.5t-22.5 52.5q0 31 22.5 53.5t52.5 22.5q32 0 54 -22t22 -54q0 -30 -22 -52.5t-54 -22.5zM787 1639q-30 0 -53 22.5t-23 52.5q0 31 23 53.5t53 22.5q31 0 53.5 -22t22.5 -54q0 -30 -22.5 -52.5t-53.5 -22.5zM1204 0h-110l-161 453h-623
l-161 -453h-109l522 1448h118zM617 1315l-273 -767h555l-273 767h-9z" />
    <glyph glyph-name="Aring" unicode="&#xc5;" horiz-adv-x="1243" 
d="M622 1531q-75 0 -128 53t-53 128t53 127.5t128 52.5t128 -52.5t53 -127.5t-53 -128t-128 -53zM622 1822q-46 0 -78 -32t-32 -78q0 -47 32 -79t78 -32t77.5 32t31.5 79q0 46 -31.5 78t-77.5 32zM1204 0h-110l-161 453h-623l-161 -453h-109l522 1448h118zM617 1315
l-273 -767h555l-273 767h-9z" />
    <glyph glyph-name="AE" unicode="&#xc6;" horiz-adv-x="1899" 
d="M1051 677v-582h730v-95h-835v453h-568l-224 -453h-114l720 1448h1004v-95h-713v-581h670v-95h-670zM821 1352l-397 -804h522v804h-125z" />
    <glyph glyph-name="Ccedilla" unicode="&#xc7;" horiz-adv-x="1405" 
d="M731 79q180 0 305.5 109t155.5 265h106q-16 -89 -59 -170t-108.5 -146.5t-159.5 -107t-202 -48.5l-7 -37q67 -10 106.5 -52t40.5 -113q-1 -83 -62 -128.5t-177 -47.5l-2 75q150 3 150 99q0 55 -37.5 80.5t-117.5 27.5l19 97q-255 19 -411.5 220.5t-156.5 521.5
q0 335 171.5 539.5t445.5 204.5q116 0 217 -39t171.5 -105.5t116.5 -151t62 -178.5h-106q-29 155 -155 265t-306 110q-106 0 -199 -43t-163.5 -122.5t-111.5 -203.5t-41 -276q0 -153 41 -277t111.5 -203.5t163.5 -122t199 -42.5z" />
    <glyph glyph-name="Egrave" unicode="&#xc8;" horiz-adv-x="1137" 
d="M643 1602h-91l-214 315h119zM1018 0h-833v1448h818v-95h-714v-581h670v-95h-670v-582h729v-95z" />
    <glyph glyph-name="Eacute" unicode="&#xc9;" horiz-adv-x="1137" 
d="M639 1602h-90l186 315h119zM1018 0h-833v1448h818v-95h-714v-581h670v-95h-670v-582h729v-95z" />
    <glyph glyph-name="Ecircumflex" unicode="&#xca;" horiz-adv-x="1137" 
d="M880 1569h-101l-184 208l-183 -208h-102v8l248 278h74l248 -278v-8zM1018 0h-833v1448h818v-95h-714v-581h670v-95h-670v-582h729v-95z" />
    <glyph glyph-name="Edieresis" unicode="&#xcb;" horiz-adv-x="1137" 
d="M429 1639q-30 0 -52.5 22.5t-22.5 52.5q0 31 22.5 53.5t52.5 22.5q32 0 54 -22t22 -54q0 -30 -22 -52.5t-54 -22.5zM761 1639q-30 0 -53 22.5t-23 52.5q0 31 23 53.5t53 22.5q31 0 53.5 -22t22.5 -54q0 -30 -22.5 -52.5t-53.5 -22.5zM1018 0h-833v1448h818v-95h-714v-581
h670v-95h-670v-582h729v-95z" />
    <glyph glyph-name="Igrave" unicode="&#xcc;" horiz-adv-x="473" 
d="M284 1602h-90l-215 315h119zM185 1448h104v-1448h-104v1448z" />
    <glyph glyph-name="Iacute" unicode="&#xcd;" horiz-adv-x="473" 
d="M281 1602h-91l186 315h119zM185 1448h104v-1448h-104v1448z" />
    <glyph glyph-name="Icircumflex" unicode="&#xce;" horiz-adv-x="473" 
d="M522 1569h-101l-184 208l-184 -208h-101v8l247 278h75l248 -278v-8zM185 1448h104v-1448h-104v1448z" />
    <glyph glyph-name="Idieresis" unicode="&#xcf;" horiz-adv-x="473" 
d="M71 1639q-30 0 -52.5 22.5t-22.5 52.5q0 31 22.5 53.5t52.5 22.5q32 0 54 -22t22 -54q0 -30 -22 -52.5t-54 -22.5zM403 1639q-30 0 -53 22.5t-23 52.5q0 31 23 53.5t53 22.5q31 0 53.5 -22t22.5 -54q0 -30 -22.5 -52.5t-53.5 -22.5zM185 1448h104v-1448h-104v1448z" />
    <glyph glyph-name="Eth" unicode="&#xd0;" horiz-adv-x="1388" 
d="M623 1448q307 0 480 -191t172 -529q-1 -345 -179 -536.5t-501 -191.5h-410v699h-236v83h236v666h438zM289 95h301q283 0 433.5 166.5t149.5 466.5q-1 295 -144.5 460t-410.5 165h-329v-571h236v-83h-236v-604z" />
    <glyph glyph-name="Ntilde" unicode="&#xd1;" horiz-adv-x="1482" 
d="M489 1612l-83 5q6 85 62 139t137 54q41 0 79 -16.5t62.5 -36t59 -36t68.5 -16.5q46 0 81 31.5t41 78.5l82 -12q-9 -84 -65.5 -135.5t-134.5 -51.5q-41 0 -78 16.5t-59.5 36t-57.5 36t-73 16.5q-48 0 -82 -31t-39 -78zM1196 1448h102v-1448h-100l-900 1260h-9v-1260h-104
v1448h101l901 -1261h9v1261z" />
    <glyph glyph-name="Ograve" unicode="&#xd2;" horiz-adv-x="1462" 
d="M779 1602h-91l-214 315h119zM1349 724q0 -335 -172 -539.5t-446 -204.5t-445.5 205t-171.5 539q0 335 171.5 539.5t445.5 204.5t446 -204.5t172 -539.5zM1247 724q-1 294 -144.5 469.5t-371.5 175.5t-371.5 -175t-143.5 -470q0 -294 143 -469.5t372 -175.5
q228 0 372.5 175.5t143.5 469.5z" />
    <glyph glyph-name="Oacute" unicode="&#xd3;" horiz-adv-x="1462" 
d="M775 1602h-90l186 315h118zM1349 724q0 -335 -172 -539.5t-446 -204.5t-445.5 205t-171.5 539q0 335 171.5 539.5t445.5 204.5t446 -204.5t172 -539.5zM1247 724q-1 294 -144.5 469.5t-371.5 175.5t-371.5 -175t-143.5 -470q0 -294 143 -469.5t372 -175.5
q228 0 372.5 175.5t143.5 469.5z" />
    <glyph glyph-name="Ocircumflex" unicode="&#xd4;" horiz-adv-x="1462" 
d="M1016 1569h-101l-184 208l-184 -208h-101v8l248 278h74l248 -278v-8zM1349 724q0 -335 -172 -539.5t-446 -204.5t-445.5 205t-171.5 539q0 335 171.5 539.5t445.5 204.5t446 -204.5t172 -539.5zM1247 724q-1 294 -144.5 469.5t-371.5 175.5t-371.5 -175t-143.5 -470
q0 -294 143 -469.5t372 -175.5q228 0 372.5 175.5t143.5 469.5z" />
    <glyph glyph-name="Otilde" unicode="&#xd5;" horiz-adv-x="1462" 
d="M481 1629l-84 6q6 84 62.5 138t137.5 54q41 0 79 -16.5t62.5 -35.5t59 -35.5t68.5 -16.5q45 0 80 31t41 78l82 -12q-8 -83 -65.5 -134.5t-134.5 -51.5q-34 0 -64 10.5t-52 26l-44 31t-49.5 26t-59.5 10.5q-48 0 -81.5 -31t-37.5 -78zM1349 724q0 -335 -172 -539.5
t-446 -204.5t-445.5 205t-171.5 539q0 335 171.5 539.5t445.5 204.5t446 -204.5t172 -539.5zM1247 724q-1 294 -144.5 469.5t-371.5 175.5t-371.5 -175t-143.5 -470q0 -294 143 -469.5t372 -175.5q228 0 372.5 175.5t143.5 469.5z" />
    <glyph glyph-name="Odieresis" unicode="&#xd6;" horiz-adv-x="1462" 
d="M566 1639q-30 0 -52.5 22.5t-22.5 52.5q0 31 22.5 53.5t52.5 22.5q32 0 53.5 -22t21.5 -54q0 -31 -21.5 -53t-53.5 -22zM897 1639q-30 0 -52.5 22.5t-22.5 52.5q0 31 22.5 53.5t52.5 22.5q31 0 53.5 -22t22.5 -54q0 -30 -22.5 -52.5t-53.5 -22.5zM1349 724
q0 -335 -172 -539.5t-446 -204.5t-445.5 205t-171.5 539q0 335 171.5 539.5t445.5 204.5t446 -204.5t172 -539.5zM1247 724q-1 294 -144.5 469.5t-371.5 175.5t-371.5 -175t-143.5 -470q0 -294 143 -469.5t372 -175.5q228 0 372.5 175.5t143.5 469.5z" />
    <glyph glyph-name="multiply" unicode="&#xd7;" horiz-adv-x="1248" 
d="M626 500l-366 -366l-67 67l366 365l-366 366l67 67l366 -366l365 366l68 -67l-367 -366l367 -365l-68 -67z" />
    <glyph glyph-name="Oslash" unicode="&#xd8;" horiz-adv-x="1462" 
d="M1259 1445l-104 -157q93 -99 143.5 -243t50.5 -321q0 -335 -172 -539.5t-446 -204.5q-210 0 -363 124l-99 -149l-68 46l106 160q-93 100 -143 243.5t-50 319.5q0 335 171.5 539.5t445.5 204.5q207 0 362 -122l98 146zM216 724q0 -298 149 -476l672 1013
q-130 108 -306 108q-228 0 -371.5 -175t-143.5 -470zM731 79q228 0 372.5 175.5t143.5 469.5q-1 300 -150 477l-673 -1013q129 -109 307 -109z" />
    <glyph glyph-name="Ugrave" unicode="&#xd9;" horiz-adv-x="1448" 
d="M772 1602h-91l-214 315h119zM1159 496v952h105v-958q0 -223 -151.5 -368.5t-388.5 -145.5q-236 0 -388 145.5t-151 368.5v958h104v-952q0 -183 121.5 -302t313.5 -119t313.5 119t121.5 302z" />
    <glyph glyph-name="Uacute" unicode="&#xda;" horiz-adv-x="1448" 
d="M768 1602h-91l186 315h119zM1159 496v952h105v-958q0 -223 -151.5 -368.5t-388.5 -145.5q-236 0 -388 145.5t-151 368.5v958h104v-952q0 -183 121.5 -302t313.5 -119t313.5 119t121.5 302z" />
    <glyph glyph-name="Ucircumflex" unicode="&#xdb;" horiz-adv-x="1448" 
d="M1009 1569h-101l-184 208l-184 -208h-101v8l248 278h74l248 -278v-8zM1159 496v952h105v-958q0 -223 -151.5 -368.5t-388.5 -145.5q-236 0 -388 145.5t-151 368.5v958h104v-952q0 -183 121.5 -302t313.5 -119t313.5 119t121.5 302z" />
    <glyph glyph-name="Udieresis" unicode="&#xdc;" horiz-adv-x="1448" 
d="M559 1639q-30 0 -52.5 22.5t-22.5 52.5q0 31 22.5 53.5t52.5 22.5q32 0 53.5 -22t21.5 -54q0 -31 -21.5 -53t-53.5 -22zM890 1639q-30 0 -52.5 22.5t-22.5 52.5q0 31 22.5 53.5t52.5 22.5q32 0 54 -22t22 -54q0 -30 -22.5 -52.5t-53.5 -22.5zM1159 496v952h105v-958
q0 -223 -151.5 -368.5t-388.5 -145.5q-236 0 -388 145.5t-151 368.5v958h104v-952q0 -183 121.5 -302t313.5 -119t313.5 119t121.5 302z" />
    <glyph glyph-name="Yacute" unicode="&#xdd;" horiz-adv-x="1229" 
d="M658 1602h-90l186 315h119zM563 646l-522 802h122l447 -693h10l447 693h122l-522 -802v-646h-104v646z" />
    <glyph glyph-name="Thorn" unicode="&#xde;" horiz-adv-x="1174" 
d="M272 1122h316q208 0 328 -108.5t120 -284.5q0 -178 -119 -285.5t-329 -107.5h-316v-336h-104v1448h104v-326zM272 431h316q166 0 256 77t91 218q-1 142 -92 222t-255 80h-316v-597z" />
    <glyph glyph-name="germandbls" unicode="&#xdf;" horiz-adv-x="1138" 
d="M286 0h-101v1084q0 175 105.5 279.5t279.5 104.5q168 0 273.5 -98.5t104.5 -261.5q-1 -127 -68 -218.5t-185 -129.5v-10q155 -27 241.5 -121t86.5 -241q0 -173 -116 -280.5t-306 -107.5h-125v95h131q142 0 229 80t87 208q0 141 -101.5 226t-273.5 85h-66v96h51
q140 0 227 88t87 220q0 123 -75 199t-200 76q-130 1 -208 -80t-78 -217v-1076z" />
    <glyph glyph-name="agrave" unicode="&#xe0;" horiz-adv-x="1060" 
d="M399 1555l186 -315h-91l-214 315h119zM524 1102q57 0 110.5 -12t102.5 -39t85.5 -66.5t58 -99.5t21.5 -133v-752h-101v189h-7q-44 -93 -133.5 -153t-212.5 -60q-149 0 -248.5 87t-99.5 238q0 143 100.5 224.5t292.5 96.5q42 3 165 11.5t143 10.5v116q0 116 -75 183.5
t-206 67.5q-112 0 -189 -48.5t-98 -132.5h-104q18 123 127.5 197.5t267.5 74.5zM460 69q150 0 245.5 103.5t95.5 260.5v124l-290 -22q-310 -22 -310 -239q0 -104 72.5 -165.5t186.5 -61.5z" />
    <glyph glyph-name="aacute" unicode="&#xe1;" horiz-adv-x="1060" 
d="M677 1555h119l-215 -315h-90zM524 1102q57 0 110.5 -12t102.5 -39t85.5 -66.5t58 -99.5t21.5 -133v-752h-101v189h-7q-44 -93 -133.5 -153t-212.5 -60q-149 0 -248.5 87t-99.5 238q0 143 100.5 224.5t292.5 96.5q42 3 165 11.5t143 10.5v116q0 116 -75 183.5t-206 67.5
q-112 0 -189 -48.5t-98 -132.5h-104q18 123 127.5 197.5t267.5 74.5zM460 69q150 0 245.5 103.5t95.5 260.5v124l-290 -22q-310 -22 -310 -239q0 -104 72.5 -165.5t186.5 -61.5z" />
    <glyph glyph-name="acircumflex" unicode="&#xe2;" horiz-adv-x="1060" 
d="M721 1206l-184 209l-183 -209h-102v9l248 278h74l248 -278v-9h-101zM524 1102q57 0 110.5 -12t102.5 -39t85.5 -66.5t58 -99.5t21.5 -133v-752h-101v189h-7q-44 -93 -133.5 -153t-212.5 -60q-149 0 -248.5 87t-99.5 238q0 143 100.5 224.5t292.5 96.5q42 3 165 11.5
t143 10.5v116q0 116 -75 183.5t-206 67.5q-112 0 -189 -48.5t-98 -132.5h-104q18 123 127.5 197.5t267.5 74.5zM460 69q150 0 245.5 103.5t95.5 260.5v124l-290 -22q-310 -22 -310 -239q0 -104 72.5 -165.5t186.5 -61.5z" />
    <glyph glyph-name="atilde" unicode="&#xe3;" horiz-adv-x="1060" 
d="M405 1359q-48 0 -81.5 -31t-38.5 -78l-83 5q6 85 62 139t137 54q41 0 79 -16.5t62.5 -36t59 -36t68.5 -16.5q45 0 80 31t41 79l82 -12q-9 -84 -65.5 -135.5t-134.5 -51.5q-41 0 -78 16.5t-59.5 36t-57.5 36t-73 16.5zM524 1102q57 0 110.5 -12t102.5 -39t85.5 -66.5
t58 -99.5t21.5 -133v-752h-101v189h-7q-44 -93 -133.5 -153t-212.5 -60q-149 0 -248.5 87t-99.5 238q0 143 100.5 224.5t292.5 96.5q42 3 165 11.5t143 10.5v116q0 116 -75 183.5t-206 67.5q-112 0 -189 -48.5t-98 -132.5h-104q18 123 127.5 197.5t267.5 74.5zM460 69
q150 0 245.5 103.5t95.5 260.5v124l-290 -22q-310 -22 -310 -239q0 -104 72.5 -165.5t186.5 -61.5z" />
    <glyph glyph-name="adieresis" unicode="&#xe4;" horiz-adv-x="1060" 
d="M372 1276q-30 0 -52.5 22.5t-22.5 52.5q0 31 22.5 53.5t52.5 22.5q32 0 54 -22t22 -54q0 -30 -22 -52.5t-54 -22.5zM704 1276q-30 0 -53 22.5t-23 52.5q0 31 23 53.5t53 22.5q31 0 53 -22t22 -54q0 -30 -22 -52.5t-53 -22.5zM524 1102q57 0 110.5 -12t102.5 -39
t85.5 -66.5t58 -99.5t21.5 -133v-752h-101v189h-7q-44 -93 -133.5 -153t-212.5 -60q-149 0 -248.5 87t-99.5 238q0 143 100.5 224.5t292.5 96.5q42 3 165 11.5t143 10.5v116q0 116 -75 183.5t-206 67.5q-112 0 -189 -48.5t-98 -132.5h-104q18 123 127.5 197.5t267.5 74.5z
M460 69q150 0 245.5 103.5t95.5 260.5v124l-290 -22q-310 -22 -310 -239q0 -104 72.5 -165.5t186.5 -61.5z" />
    <glyph glyph-name="aring" unicode="&#xe5;" horiz-adv-x="1060" 
d="M537 1216q-85 0 -144 56.5t-59 139.5t59 140.5t144 57.5t144 -57.5t59 -140.5t-59 -139.5t-144 -56.5zM537 1537q-52 0 -87.5 -37t-35.5 -88q0 -50 35.5 -87t87.5 -37t88 37t36 87q0 51 -36 88t-88 37zM524 1102q57 0 110.5 -12t102.5 -39t85.5 -66.5t58 -99.5t21.5 -133
v-752h-101v189h-7q-44 -93 -133.5 -153t-212.5 -60q-149 0 -248.5 87t-99.5 238q0 143 100.5 224.5t292.5 96.5q42 3 165 11.5t143 10.5v116q0 116 -75 183.5t-206 67.5q-112 0 -189 -48.5t-98 -132.5h-104q18 123 127.5 197.5t267.5 74.5zM460 69q150 0 245.5 103.5
t95.5 260.5v124l-290 -22q-310 -22 -310 -239q0 -104 72.5 -165.5t186.5 -61.5z" />
    <glyph glyph-name="ae" unicode="&#xe6;" horiz-adv-x="1811" 
d="M1714 575v-57h-821q3 -199 107.5 -324t279.5 -125q117 0 195 54t113 130l94 -34q-42 -100 -146.5 -171t-254.5 -71q-152 0 -264.5 77t-163.5 208h-4q-43 -136 -154 -211t-247 -75q-149 0 -248.5 87t-99.5 238q0 139 96.5 203.5t296.5 80.5q42 3 165 11.5t143 10.5v153
q0 116 -75 183.5t-206 67.5q-112 0 -189 -48.5t-98 -132.5h-104q18 123 127.5 197.5t267.5 74.5q128 0 226 -60t131 -176q59 111 157 173.5t221 62.5q91 0 173 -36t145 -101.5t100 -166.5t37 -223zM894 607h719q0 170 -101.5 286.5t-252.5 116.5q-150 0 -252.5 -116
t-112.5 -287zM460 69q150 0 245.5 103.5t95.5 260.5v86q-241 -18 -290 -22q-169 -12 -239.5 -57.5t-70.5 -142.5q0 -105 72.5 -166.5t186.5 -61.5z" />
    <glyph glyph-name="ccedilla" unicode="&#xe7;" horiz-adv-x="1067" 
d="M875 318h102q-21 -145 -125 -238.5t-255 -101.5l-6 -29q68 -10 107.5 -52t40.5 -113q-1 -83 -62 -128.5t-177 -47.5l-3 74q150 3 150 99q0 55 -37.5 81t-117.5 28l19 91q-187 23 -300.5 177.5t-113.5 380.5q0 244 132 403.5t339 159.5q158 0 271 -93.5t135 -244.5h-101
q-21 107 -104 176.5t-200 69.5q-162 0 -267 -131.5t-105 -336.5q0 -206 103.5 -339t268.5 -133q117 0 201 67.5t105 180.5z" />
    <glyph glyph-name="egrave" unicode="&#xe8;" horiz-adv-x="1115" 
d="M421 1555l186 -315h-91l-214 315h119zM1020 575v-57h-823q3 -199 107.5 -324t279.5 -125q114 0 190 51t111 117h109q-37 -108 -146.5 -184t-263.5 -76q-220 0 -353.5 157t-133.5 404q0 245 131.5 404.5t335.5 159.5q92 0 174 -36t145 -101.5t100 -166.5t37 -223zM198 607
h719q0 170 -100.5 286.5t-251.5 116.5q-150 0 -253.5 -116t-113.5 -287z" />
    <glyph glyph-name="eacute" unicode="&#xe9;" horiz-adv-x="1115" 
d="M698 1555h119l-214 -315h-91zM1020 575v-57h-823q3 -199 107.5 -324t279.5 -125q114 0 190 51t111 117h109q-37 -108 -146.5 -184t-263.5 -76q-220 0 -353.5 157t-133.5 404q0 245 131.5 404.5t335.5 159.5q92 0 174 -36t145 -101.5t100 -166.5t37 -223zM198 607h719
q0 170 -100.5 286.5t-251.5 116.5q-150 0 -253.5 -116t-113.5 -287z" />
    <glyph glyph-name="ecircumflex" unicode="&#xea;" horiz-adv-x="1115" 
d="M743 1206l-184 209l-183 -209h-102v9l248 278h74l248 -278v-9h-101zM1020 575v-57h-823q3 -199 107.5 -324t279.5 -125q114 0 190 51t111 117h109q-37 -108 -146.5 -184t-263.5 -76q-220 0 -353.5 157t-133.5 404q0 245 131.5 404.5t335.5 159.5q92 0 174 -36t145 -101.5
t100 -166.5t37 -223zM198 607h719q0 170 -100.5 286.5t-251.5 116.5q-150 0 -253.5 -116t-113.5 -287z" />
    <glyph glyph-name="edieresis" unicode="&#xeb;" horiz-adv-x="1115" 
d="M393 1276q-30 0 -52.5 22.5t-22.5 52.5q0 31 22.5 53.5t52.5 22.5q32 0 54 -22t22 -54q0 -30 -22 -52.5t-54 -22.5zM725 1276q-30 0 -53 22.5t-23 52.5q0 31 23 53.5t53 22.5q31 0 53.5 -22.5t22.5 -53.5q0 -30 -22.5 -52.5t-53.5 -22.5zM1020 575v-57h-823
q3 -199 107.5 -324t279.5 -125q114 0 190 51t111 117h109q-37 -108 -146.5 -184t-263.5 -76q-220 0 -353.5 157t-133.5 404q0 245 131.5 404.5t335.5 159.5q92 0 174 -36t145 -101.5t100 -166.5t37 -223zM198 607h719q0 170 -100.5 286.5t-251.5 116.5q-150 0 -253.5 -116
t-113.5 -287z" />
    <glyph glyph-name="igrave" unicode="&#xec;" horiz-adv-x="417" 
d="M257 1240h-90l-214 315h118zM260 0h-102v1086h102v-1086z" />
    <glyph glyph-name="iacute" unicode="&#xed;" horiz-adv-x="417" 
d="M253 1240h-90l186 315h118zM260 0h-102v1086h102v-1086z" />
    <glyph glyph-name="icircumflex" unicode="&#xee;" horiz-adv-x="417" 
d="M495 1206h-101l-184 209l-184 -209h-101v9l248 278h74l248 -278v-9zM260 0h-102v1086h102v-1086z" />
    <glyph glyph-name="idieresis" unicode="&#xef;" horiz-adv-x="417" 
d="M44 1276q-30 0 -52.5 22.5t-22.5 52.5q0 31 22.5 53.5t52.5 22.5q32 0 54 -22t22 -54q0 -30 -22 -52.5t-54 -22.5zM376 1276q-30 0 -53 22.5t-23 52.5q0 31 23 53.5t53 22.5q31 0 53 -22t22 -54q0 -30 -22 -52.5t-53 -22.5zM260 0h-102v1086h102v-1086z" />
    <glyph glyph-name="eth" unicode="&#xf0;" horiz-adv-x="1132" 
d="M1035 533q1 -254 -130.5 -405t-338.5 -151q-204 0 -336.5 149.5t-132.5 375.5q0 224 130 374t320 150q117 0 205.5 -56.5t144.5 -154.5h11q-84 255 -282 446l-265 -124l-27 71l231 108q-102 83 -217 144l40 79q143 -76 262 -183l252 117l27 -71l-220 -102
q152 -156 238.5 -353t87.5 -414zM566 69q108 0 193.5 57t132 155t46.5 217q0 180 -103.5 310.5t-268.5 130.5q-108 0 -193 -59t-130.5 -158t-45.5 -219q0 -183 102 -308.5t267 -125.5z" />
    <glyph glyph-name="ntilde" unicode="&#xf1;" horiz-adv-x="1109" 
d="M304 1250l-83 5q6 85 62 139t137 54q41 0 79 -16.5t62.5 -36t59 -36t68.5 -16.5q45 0 80 31t41 79l82 -12q-9 -84 -65.5 -135.5t-134.5 -51.5q-41 0 -78 16.5t-59.5 36t-57.5 36t-73 16.5q-48 0 -81.5 -31t-38.5 -78zM257 696v-696h-101v1086h98v-172h9q39 86 123 136
t199 50q167 0 268 -103.5t101 -283.5v-713h-100v707q0 136 -80 218.5t-211 82.5q-135 0 -220.5 -86t-85.5 -226z" />
    <glyph glyph-name="ograve" unicode="&#xf2;" horiz-adv-x="1131" 
d="M614 1240h-91l-214 315h119zM566 -23q-205 0 -337 158.5t-132 403.5q0 162 59.5 291t167 200.5t242.5 71.5q204 0 336.5 -158.5t132.5 -404.5q0 -245 -132 -403.5t-337 -158.5zM566 69q110 0 195 63.5t129 170t44 236.5t-44.5 237t-129 170.5t-194.5 63.5t-195 -63.5
t-129.5 -170.5t-44.5 -237t44.5 -236.5t129.5 -170t195 -63.5z" />
    <glyph glyph-name="oacute" unicode="&#xf3;" horiz-adv-x="1131" 
d="M610 1240h-91l186 315h119zM566 -23q-205 0 -337 158.5t-132 403.5q0 162 59.5 291t167 200.5t242.5 71.5q204 0 336.5 -158.5t132.5 -404.5q0 -245 -132 -403.5t-337 -158.5zM566 69q110 0 195 63.5t129 170t44 236.5t-44.5 237t-129 170.5t-194.5 63.5t-195 -63.5
t-129.5 -170.5t-44.5 -237t44.5 -236.5t129.5 -170t195 -63.5z" />
    <glyph glyph-name="ocircumflex" unicode="&#xf4;" horiz-adv-x="1131" 
d="M851 1206h-101l-184 209l-183 -209h-102v9l248 278h74l248 -278v-9zM566 -23q-205 0 -337 158.5t-132 403.5q0 162 59.5 291t167 200.5t242.5 71.5q204 0 336.5 -158.5t132.5 -404.5q0 -245 -132 -403.5t-337 -158.5zM566 69q110 0 195 63.5t129 170t44 236.5t-44.5 237
t-129 170.5t-194.5 63.5t-195 -63.5t-129.5 -170.5t-44.5 -237t44.5 -236.5t129.5 -170t195 -63.5z" />
    <glyph glyph-name="otilde" unicode="&#xf5;" horiz-adv-x="1131" 
d="M314 1250l-83 5q6 85 62 139t137 54q41 0 79 -16.5t62.5 -36t59 -36t68.5 -16.5q45 0 80 31t41 79l82 -12q-9 -84 -65.5 -135.5t-134.5 -51.5q-41 0 -78 16.5t-59.5 36t-57.5 36t-73 16.5q-48 0 -81.5 -31t-38.5 -78zM566 -23q-205 0 -337 158.5t-132 403.5
q0 162 59.5 291t167 200.5t242.5 71.5q204 0 336.5 -158.5t132.5 -404.5q0 -245 -132 -403.5t-337 -158.5zM566 69q110 0 195 63.5t129 170t44 236.5t-44.5 237t-129 170.5t-194.5 63.5t-195 -63.5t-129.5 -170.5t-44.5 -237t44.5 -236.5t129.5 -170t195 -63.5z" />
    <glyph glyph-name="odieresis" unicode="&#xf6;" horiz-adv-x="1131" 
d="M400 1276q-30 0 -52.5 22.5t-22.5 52.5q0 31 22.5 53.5t52.5 22.5q32 0 54 -22t22 -54q0 -30 -22 -52.5t-54 -22.5zM732 1276q-30 0 -53 22.5t-23 52.5q0 31 23 53.5t53 22.5q32 0 54 -22.5t22 -53.5q0 -30 -22.5 -52.5t-53.5 -22.5zM566 -23q-205 0 -337 158.5
t-132 403.5q0 162 59.5 291t167 200.5t242.5 71.5q204 0 336.5 -158.5t132.5 -404.5q0 -245 -132 -403.5t-337 -158.5zM566 69q110 0 195 63.5t129 170t44 236.5t-44.5 237t-129 170.5t-194.5 63.5t-195 -63.5t-129.5 -170.5t-44.5 -237t44.5 -236.5t129.5 -170t195 -63.5z
" />
    <glyph glyph-name="divide" unicode="&#xf7;" horiz-adv-x="1248" 
d="M625 824q-35 0 -60 25t-25 60q0 34 25 58.5t60 24.5t59.5 -24.5t24.5 -58.5q0 -35 -24.5 -60t-59.5 -25zM195 615h859v-97h-859v97zM625 139q-35 0 -60 25.5t-25 60.5q0 34 25 58.5t60 24.5q34 0 59 -24.5t25 -58.5q0 -35 -25 -60.5t-59 -25.5z" />
    <glyph glyph-name="oslash" unicode="&#xf8;" horiz-adv-x="1131" 
d="M977 1078l-82 -123q140 -159 140 -414q0 -246 -132 -404t-337 -158q-152 0 -268 91l-75 -112l-70 46l83 124q-139 158 -139 413q0 246 132 404.5t337 158.5q151 0 267 -91l75 111zM197 541q0 -196 96 -328l486 720q-92 78 -213 78q-110 0 -195 -63.5t-129.5 -170
t-44.5 -236.5zM566 71q110 0 195 63t129 169.5t44 237.5q0 196 -97 329l-485 -720q92 -79 214 -79z" />
    <glyph glyph-name="ugrave" unicode="&#xf9;" horiz-adv-x="1106" 
d="M601 1240h-90l-215 315h119zM850 395v691h100v-1086h-100v178h-8q-39 -87 -124.5 -139.5t-199.5 -52.5q-162 0 -262 103.5t-100 283.5v713h101v-707q0 -132 79.5 -214t205.5 -82q128 0 218 85.5t90 226.5z" />
    <glyph glyph-name="uacute" unicode="&#xfa;" horiz-adv-x="1106" 
d="M598 1240h-91l186 315h119zM850 395v691h100v-1086h-100v178h-8q-39 -87 -124.5 -139.5t-199.5 -52.5q-162 0 -262 103.5t-100 283.5v713h101v-707q0 -132 79.5 -214t205.5 -82q128 0 218 85.5t90 226.5z" />
    <glyph glyph-name="ucircumflex" unicode="&#xfb;" horiz-adv-x="1106" 
d="M839 1206h-101l-184 209l-184 -209h-101v9l247 278h74l249 -278v-9zM850 395v691h100v-1086h-100v178h-8q-39 -87 -124.5 -139.5t-199.5 -52.5q-162 0 -262 103.5t-100 283.5v713h101v-707q0 -132 79.5 -214t205.5 -82q128 0 218 85.5t90 226.5z" />
    <glyph glyph-name="udieresis" unicode="&#xfc;" horiz-adv-x="1106" 
d="M388 1276q-30 0 -52.5 22.5t-22.5 52.5q0 31 22.5 53.5t52.5 22.5q32 0 54 -22t22 -54q0 -30 -22 -52.5t-54 -22.5zM720 1276q-30 0 -53 22.5t-23 52.5q0 31 23 53.5t53 22.5q32 0 54 -22.5t22 -53.5q0 -30 -22.5 -52.5t-53.5 -22.5zM850 395v691h100v-1086h-100v178h-8
q-39 -87 -124.5 -139.5t-199.5 -52.5q-162 0 -262 103.5t-100 283.5v713h101v-707q0 -132 79.5 -214t205.5 -82q128 0 218 85.5t90 226.5z" />
    <glyph glyph-name="yacute" unicode="&#xfd;" horiz-adv-x="1033" 
d="M561 1240h-91l186 315h119zM216 -407q-29 0 -53 2v92q20 -2 48 -2q32 0 55.5 5.5t52.5 21.5t54.5 53t45.5 94l47 127l-399 1100h109l337 -957h8l337 957h109l-459 -1266q-83 -227 -292 -227z" />
    <glyph glyph-name="thorn" unicode="&#xfe;" horiz-adv-x="1138" 
d="M606 1102q197 0 317.5 -156t120.5 -406t-120.5 -406.5t-316.5 -156.5q-131 0 -218 70.5t-127 178.5h-9v-633h-101v1855h101v-593h9q43 108 127.5 177.5t216.5 69.5zM596 70q160 0 254 133t93 339q1 204 -92 335.5t-255 131.5q-160 0 -252.5 -129.5t-92.5 -337.5t93 -340
t252 -132z" />
    <glyph glyph-name="ydieresis" unicode="&#xff;" horiz-adv-x="1033" 
d="M351 1276q-30 0 -52 22.5t-22 52.5q0 31 22 53.5t52 22.5q32 0 54 -22t22 -54q0 -30 -22 -52.5t-54 -22.5zM683 1276q-30 0 -53 22.5t-23 52.5q0 31 23 53.5t53 22.5q31 0 53.5 -22.5t22.5 -53.5q0 -30 -22.5 -52.5t-53.5 -22.5zM216 -407q-29 0 -53 2v92q20 -2 48 -2
q32 0 55.5 5.5t52.5 21.5t54.5 53t45.5 94l47 127l-399 1100h109l337 -957h8l337 957h109l-459 -1266q-83 -227 -292 -227z" />
    <glyph glyph-name="Amacron" unicode="&#x100;" horiz-adv-x="1243" 
d="M349 1756h545v-88h-545v88zM1204 0h-110l-161 453h-623l-161 -453h-109l522 1448h118zM617 1315l-273 -767h555l-273 767h-9z" />
    <glyph glyph-name="amacron" unicode="&#x101;" horiz-adv-x="1060" 
d="M266 1394h544v-88h-544v88zM524 1102q57 0 110.5 -12t102.5 -39t85.5 -66.5t58 -99.5t21.5 -133v-752h-101v189h-7q-44 -93 -133.5 -153t-212.5 -60q-149 0 -248.5 87t-99.5 238q0 143 100.5 224.5t292.5 96.5q42 3 165 11.5t143 10.5v116q0 116 -75 183.5t-206 67.5
q-112 0 -189 -48.5t-98 -132.5h-104q18 123 127.5 197.5t267.5 74.5zM460 69q150 0 245.5 103.5t95.5 260.5v124l-290 -22q-310 -22 -310 -239q0 -104 72.5 -165.5t186.5 -61.5z" />
    <glyph glyph-name="Abreve" unicode="&#x102;" horiz-adv-x="1243" 
d="M622 1606q-100 0 -159 55.5t-59 148.5h95q0 -58 30.5 -91.5t92.5 -33.5t93 33.5t31 91.5h95q0 -93 -59 -148.5t-160 -55.5zM1204 0h-110l-161 453h-623l-161 -453h-109l522 1448h118zM617 1315l-273 -767h555l-273 767h-9z" />
    <glyph glyph-name="abreve" unicode="&#x103;" horiz-adv-x="1060" 
d="M537 1244q-100 0 -158.5 55.5t-58.5 148.5h94q0 -58 30.5 -91.5t92.5 -33.5t93.5 33.5t31.5 91.5h95q0 -93 -59.5 -148.5t-160.5 -55.5zM524 1102q57 0 110.5 -12t102.5 -39t85.5 -66.5t58 -99.5t21.5 -133v-752h-101v189h-7q-44 -93 -133.5 -153t-212.5 -60
q-149 0 -248.5 87t-99.5 238q0 143 100.5 224.5t292.5 96.5q42 3 165 11.5t143 10.5v116q0 116 -75 183.5t-206 67.5q-112 0 -189 -48.5t-98 -132.5h-104q18 123 127.5 197.5t267.5 74.5zM460 69q150 0 245.5 103.5t95.5 260.5v124l-290 -22q-310 -22 -310 -239
q0 -104 72.5 -165.5t186.5 -61.5z" />
    <glyph glyph-name="Aogonek" unicode="&#x104;" horiz-adv-x="1243" 
d="M1245 -308l21 -75q-65 -44 -139 -44q-82 0 -132 46t-51 129q0 135 159 252h-9l-161 453h-623l-161 -453h-109l522 1448h118l524 -1448q-78 -69 -118.5 -125.5t-40.5 -116.5q0 -97 101 -97q51 0 99 31zM617 1315l-273 -767h555l-273 767h-9z" />
    <glyph glyph-name="aogonek" unicode="&#x105;" horiz-adv-x="1060" 
d="M944 -308l21 -75q-65 -44 -140 -44q-82 0 -131.5 45.5t-50.5 129.5q0 135 159 252h-1v189h-7q-44 -93 -133.5 -153t-212.5 -60q-149 0 -248.5 87t-99.5 238q0 143 100.5 224.5t292.5 96.5q42 3 165 11.5t143 10.5v116q0 116 -75 183.5t-206 67.5q-112 0 -189 -48.5
t-98 -132.5h-104q18 123 127.5 197.5t267.5 74.5q57 0 110.5 -12t102.5 -39t85.5 -66.5t58 -99.5t21.5 -133v-752q-78 -68 -118 -125t-40 -117q0 -97 100 -97q52 0 100 31zM460 69q150 0 245.5 103.5t95.5 260.5v124l-290 -22q-310 -22 -310 -239q0 -104 72.5 -165.5
t186.5 -61.5z" />
    <glyph glyph-name="Cacute" unicode="&#x106;" horiz-adv-x="1405" 
d="M775 1602h-90l186 315h118zM1298 994h-106q-29 155 -155 265t-306 110q-106 0 -199 -43t-163.5 -122.5t-111.5 -203.5t-41 -276q0 -153 41 -277t111.5 -203.5t163.5 -122t199 -42.5q180 0 305.5 109t155.5 265h106q-16 -93 -62 -177t-116.5 -150.5t-171.5 -106
t-217 -39.5q-274 0 -445.5 204.5t-171.5 539.5t171.5 539.5t445.5 204.5q116 0 217 -39t171.5 -105.5t116.5 -151t62 -178.5z" />
    <glyph glyph-name="cacute" unicode="&#x107;" horiz-adv-x="1067" 
d="M604 1240h-91l186 315h119zM569 -23q-210 0 -341 159t-131 403t132 403.5t339 159.5q158 0 271 -93.5t135 -244.5h-101q-21 107 -104 176.5t-200 69.5q-162 0 -267 -131.5t-105 -336.5q0 -206 103.5 -339t268.5 -133q117 0 201 67.5t105 180.5h102q-23 -151 -135 -246
t-273 -95z" />
    <glyph glyph-name="Ccircumflex" unicode="&#x108;" horiz-adv-x="1405" 
d="M1016 1569h-101l-184 208l-184 -208h-101v8l248 278h74l248 -278v-8zM1298 994h-106q-29 155 -155 265t-306 110q-106 0 -199 -43t-163.5 -122.5t-111.5 -203.5t-41 -276q0 -153 41 -277t111.5 -203.5t163.5 -122t199 -42.5q180 0 305.5 109t155.5 265h106
q-16 -93 -62 -177t-116.5 -150.5t-171.5 -106t-217 -39.5q-274 0 -445.5 204.5t-171.5 539.5t171.5 539.5t445.5 204.5q116 0 217 -39t171.5 -105.5t116.5 -151t62 -178.5z" />
    <glyph glyph-name="ccircumflex" unicode="&#x109;" horiz-adv-x="1067" 
d="M846 1206h-101l-184 209l-184 -209h-101v9l247 278h75l248 -278v-9zM569 -23q-210 0 -341 159t-131 403t132 403.5t339 159.5q158 0 271 -93.5t135 -244.5h-101q-21 107 -104 176.5t-200 69.5q-162 0 -267 -131.5t-105 -336.5q0 -206 103.5 -339t268.5 -133
q117 0 201 67.5t105 180.5h102q-23 -151 -135 -246t-273 -95z" />
    <glyph glyph-name="Cdotaccent" unicode="&#x10a;" horiz-adv-x="1405" 
d="M731 1639q-32 0 -55 22t-23 53t23 53t55 22t55 -22t23 -53t-23 -53t-55 -22zM1298 994h-106q-29 155 -155 265t-306 110q-106 0 -199 -43t-163.5 -122.5t-111.5 -203.5t-41 -276q0 -153 41 -277t111.5 -203.5t163.5 -122t199 -42.5q180 0 305.5 109t155.5 265h106
q-16 -93 -62 -177t-116.5 -150.5t-171.5 -106t-217 -39.5q-274 0 -445.5 204.5t-171.5 539.5t171.5 539.5t445.5 204.5q116 0 217 -39t171.5 -105.5t116.5 -151t62 -178.5z" />
    <glyph glyph-name="cdotaccent" unicode="&#x10b;" horiz-adv-x="1067" 
d="M561 1276q-32 0 -55.5 22t-23.5 53t23.5 53.5t55.5 22.5t55 -22.5t23 -53.5t-23 -53t-55 -22zM569 -23q-210 0 -341 159t-131 403t132 403.5t339 159.5q158 0 271 -93.5t135 -244.5h-101q-21 107 -104 176.5t-200 69.5q-162 0 -267 -131.5t-105 -336.5q0 -206 103.5 -339
t268.5 -133q117 0 201 67.5t105 180.5h102q-23 -151 -135 -246t-273 -95z" />
    <glyph glyph-name="Ccaron" unicode="&#x10c;" horiz-adv-x="1405" 
d="M446 1875h101l184 -207l184 207h101v-7l-248 -278h-74l-248 278v7zM1298 994h-106q-29 155 -155 265t-306 110q-106 0 -199 -43t-163.5 -122.5t-111.5 -203.5t-41 -276q0 -153 41 -277t111.5 -203.5t163.5 -122t199 -42.5q180 0 305.5 109t155.5 265h106
q-16 -93 -62 -177t-116.5 -150.5t-171.5 -106t-217 -39.5q-274 0 -445.5 204.5t-171.5 539.5t171.5 539.5t445.5 204.5q116 0 217 -39t171.5 -105.5t116.5 -151t62 -178.5z" />
    <glyph glyph-name="ccaron" unicode="&#x10d;" horiz-adv-x="1067" 
d="M276 1513h101l184 -208l184 208h101v-7l-248 -278h-75l-247 278v7zM569 -23q-210 0 -341 159t-131 403t132 403.5t339 159.5q158 0 271 -93.5t135 -244.5h-101q-21 107 -104 176.5t-200 69.5q-162 0 -267 -131.5t-105 -336.5q0 -206 103.5 -339t268.5 -133
q117 0 201 67.5t105 180.5h102q-23 -151 -135 -246t-273 -95z" />
    <glyph glyph-name="Dcaron" unicode="&#x10e;" horiz-adv-x="1388" 
d="M874 1868l-248 -278h-74l-248 278v7h101l184 -207l184 207h101v-7zM623 1448q307 0 480 -191t172 -529q-1 -345 -179 -536.5t-501 -191.5h-410v1448h438zM289 95h301q283 0 433.5 166.5t149.5 466.5q-1 295 -144.5 460t-410.5 165h-329v-1258z" />
    <glyph glyph-name="dcaron" unicode="&#x10f;" horiz-adv-x="1181" 
d="M1196 1150h-75v366h103zM534 -23q-196 0 -316.5 156.5t-120.5 406.5q0 249 121 405.5t317 156.5q132 0 218 -70t126 -177h9v593h101v-1448h-99v226h-11q-43 -108 -128.5 -178.5t-216.5 -70.5zM545 70q159 0 252 132t93 340q0 207 -93 337t-252 130q-108 0 -187.5 -62
t-119.5 -166.5t-40 -238.5q0 -206 93 -339t254 -133z" />
    <glyph glyph-name="Dcroat" unicode="&#x110;" horiz-adv-x="1388" 
d="M623 1448q307 0 480 -191t172 -529q-1 -345 -179 -536.5t-501 -191.5h-410v699h-236v83h236v666h438zM289 95h301q283 0 433.5 166.5t149.5 466.5q-1 295 -144.5 460t-410.5 165h-329v-571h236v-83h-236v-604z" />
    <glyph glyph-name="dcroat" unicode="&#x111;" horiz-adv-x="1173" 
d="M989 1286h174v-82h-174v-1204h-99v226h-11q-43 -108 -128.5 -178.5t-216.5 -70.5q-196 0 -316.5 156.5t-120.5 406.5q0 249 121 405.5t317 156.5q132 0 218 -70t126 -177h9v349h-301v82h301v162h101v-162zM545 70q159 0 252 132t93 340q0 207 -93 337t-252 130
q-108 0 -187.5 -62t-119.5 -166.5t-40 -238.5q0 -206 93 -339t254 -133z" />
    <glyph glyph-name="Emacron" unicode="&#x112;" horiz-adv-x="1137" 
d="M323 1756h545v-88h-545v88zM1018 0h-833v1448h818v-95h-714v-581h670v-95h-670v-582h729v-95z" />
    <glyph glyph-name="emacron" unicode="&#x113;" horiz-adv-x="1115" 
d="M287 1394h545v-88h-545v88zM1020 575v-57h-823q3 -199 107.5 -324t279.5 -125q114 0 190 51t111 117h109q-37 -108 -146.5 -184t-263.5 -76q-220 0 -353.5 157t-133.5 404q0 245 131.5 404.5t335.5 159.5q92 0 174 -36t145 -101.5t100 -166.5t37 -223zM198 607h719
q0 170 -100.5 286.5t-251.5 116.5q-150 0 -253.5 -116t-113.5 -287z" />
    <glyph glyph-name="Ebreve" unicode="&#x114;" horiz-adv-x="1137" 
d="M720 1810h95q0 -93 -59.5 -148.5t-160.5 -55.5q-100 0 -158.5 55.5t-58.5 148.5h94q0 -58 30.5 -91.5t92.5 -33.5t93.5 33.5t31.5 91.5zM1018 0h-833v1448h818v-95h-714v-581h670v-95h-670v-582h729v-95z" />
    <glyph glyph-name="ebreve" unicode="&#x115;" horiz-adv-x="1115" 
d="M559 1244q-100 0 -159 55.5t-59 148.5h95q0 -58 30.5 -91.5t92.5 -33.5t93 33.5t31 91.5h95q0 -93 -59 -148.5t-160 -55.5zM1020 575v-57h-823q3 -199 107.5 -324t279.5 -125q114 0 190 51t111 117h109q-37 -108 -146.5 -184t-263.5 -76q-220 0 -353.5 157t-133.5 404
q0 245 131.5 404.5t335.5 159.5q92 0 174 -36t145 -101.5t100 -166.5t37 -223zM198 607h719q0 170 -100.5 286.5t-251.5 116.5q-150 0 -253.5 -116t-113.5 -287z" />
    <glyph glyph-name="Edotaccent" unicode="&#x116;" horiz-adv-x="1137" 
d="M595 1639q-32 0 -55 22t-23 53t23 53t55 22t55 -22t23 -53t-23 -53t-55 -22zM1018 0h-833v1448h818v-95h-714v-581h670v-95h-670v-582h729v-95z" />
    <glyph glyph-name="edotaccent" unicode="&#x117;" horiz-adv-x="1115" 
d="M559 1276q-32 0 -55.5 22t-23.5 53t23.5 53.5t55.5 22.5t54.5 -22.5t22.5 -53.5t-22.5 -53t-54.5 -22zM1020 575v-57h-823q3 -199 107.5 -324t279.5 -125q114 0 190 51t111 117h109q-37 -108 -146.5 -184t-263.5 -76q-220 0 -353.5 157t-133.5 404q0 245 131.5 404.5
t335.5 159.5q92 0 174 -36t145 -101.5t100 -166.5t37 -223zM198 607h719q0 170 -100.5 286.5t-251.5 116.5q-150 0 -253.5 -116t-113.5 -287z" />
    <glyph glyph-name="Eogonek" unicode="&#x118;" horiz-adv-x="1137" 
d="M1060 -308l21 -75q-65 -44 -140 -44q-82 0 -131.5 45.5t-50.5 129.5q0 135 159 252h-733v1448h818v-95h-714v-581h670v-95h-670v-582h729v-95q-78 -68 -118 -125t-40 -117q0 -97 100 -97q52 0 100 31z" />
    <glyph glyph-name="eogonek" unicode="&#x119;" horiz-adv-x="1115" 
d="M1020 575v-57h-823q3 -199 107.5 -324t279.5 -125q114 0 190 51t111 117h109q-34 -98 -129 -171t-229 -86q-67 -62 -101 -114t-34 -107q0 -97 101 -97q52 0 100 31l20 -75q-65 -44 -139 -44q-82 0 -132 45.5t-51 128.5q0 124 133 231q-199 19 -317.5 173t-118.5 386
q0 245 131.5 404.5t335.5 159.5q92 0 174 -36t145 -101.5t100 -166.5t37 -223zM198 607h719q0 170 -100.5 286.5t-251.5 116.5q-150 0 -253.5 -116t-113.5 -287z" />
    <glyph glyph-name="Ecaron" unicode="&#x11a;" horiz-adv-x="1137" 
d="M310 1875h102l183 -207l184 207h101v-7l-248 -278h-74l-248 278v7zM1018 0h-833v1448h818v-95h-714v-581h670v-95h-670v-582h729v-95z" />
    <glyph glyph-name="ecaron" unicode="&#x11b;" horiz-adv-x="1115" 
d="M844 1506l-248 -278h-74l-248 278v7h102l183 -208l184 208h101v-7zM1020 575v-57h-823q3 -199 107.5 -324t279.5 -125q114 0 190 51t111 117h109q-37 -108 -146.5 -184t-263.5 -76q-220 0 -353.5 157t-133.5 404q0 245 131.5 404.5t335.5 159.5q92 0 174 -36t145 -101.5
t100 -166.5t37 -223zM198 607h719q0 170 -100.5 286.5t-251.5 116.5q-150 0 -253.5 -116t-113.5 -287z" />
    <glyph glyph-name="Gcircumflex" unicode="&#x11c;" horiz-adv-x="1436" 
d="M908 1569l-184 208l-184 -208h-101v8l248 278h74l248 -278v-8h-101zM762 592v95h549v-94q0 -281 -160 -447t-414 -166q-282 0 -452.5 203.5t-170.5 540.5q0 336 170 540t444 204q118 0 220 -40t173 -107t117.5 -150.5t62.5 -174.5h-107q-18 74 -56.5 139.5t-96 118.5
t-139 84t-174.5 31q-227 0 -369.5 -175t-142.5 -470t143.5 -470t377.5 -175q209 0 339.5 138t132.5 375h-447z" />
    <glyph glyph-name="gcircumflex" unicode="&#x11d;" horiz-adv-x="1147" 
d="M859 1206h-102l-183 209l-184 -209h-101v9l247 278h74l249 -278v-9zM555 -430q-169 0 -283.5 70t-137.5 201h106q21 -88 106 -134t209 -46q160 0 247 79.5t87 238.5v261h-10q-38 -103 -126.5 -168t-218.5 -65q-195 0 -316 147.5t-121 392.5q0 247 120.5 401t317.5 154
q132 0 217.5 -69.5t127.5 -177.5h10v231h99v-1111q0 -199 -117 -302t-317 -103zM545 100q160 0 252.5 119t92.5 326q0 205 -92.5 334.5t-252.5 129.5q-161 0 -254 -130.5t-93 -333.5q0 -201 92.5 -323t254.5 -122z" />
    <glyph glyph-name="Gbreve" unicode="&#x11e;" horiz-adv-x="1436" 
d="M724 1606q-100 0 -159 55.5t-59 148.5h95q0 -58 30.5 -91.5t92.5 -33.5t93.5 33.5t31.5 91.5h94q0 -93 -59 -148.5t-160 -55.5zM762 592v95h549v-94q0 -281 -160 -447t-414 -166q-282 0 -452.5 203.5t-170.5 540.5q0 336 170 540t444 204q118 0 220 -40t173 -107
t117.5 -150.5t62.5 -174.5h-107q-18 74 -56.5 139.5t-96 118.5t-139 84t-174.5 31q-227 0 -369.5 -175t-142.5 -470t143.5 -470t377.5 -175q209 0 339.5 138t132.5 375h-447z" />
    <glyph glyph-name="gbreve" unicode="&#x11f;" horiz-adv-x="1147" 
d="M698 1448h95q0 -93 -59 -148.5t-160 -55.5q-100 0 -159 55.5t-59 148.5h94q0 -58 31 -91.5t93 -33.5t93 33.5t31 91.5zM555 -430q-169 0 -283.5 70t-137.5 201h106q21 -88 106 -134t209 -46q160 0 247 79.5t87 238.5v261h-10q-38 -103 -126.5 -168t-218.5 -65
q-195 0 -316 147.5t-121 392.5q0 247 120.5 401t317.5 154q132 0 217.5 -69.5t127.5 -177.5h10v231h99v-1111q0 -199 -117 -302t-317 -103zM545 100q160 0 252.5 119t92.5 326q0 205 -92.5 334.5t-252.5 129.5q-161 0 -254 -130.5t-93 -333.5q0 -201 92.5 -323t254.5 -122z
" />
    <glyph glyph-name="Gdotaccent" unicode="&#x120;" horiz-adv-x="1436" 
d="M724 1639q-32 0 -55 22t-23 53t23 53t55 22t55 -22t23 -53t-23 -53t-55 -22zM762 592v95h549v-94q0 -281 -160 -447t-414 -166q-282 0 -452.5 203.5t-170.5 540.5q0 336 170 540t444 204q118 0 220 -40t173 -107t117.5 -150.5t62.5 -174.5h-107q-18 74 -56.5 139.5
t-96 118.5t-139 84t-174.5 31q-227 0 -369.5 -175t-142.5 -470t143.5 -470t377.5 -175q209 0 339.5 138t132.5 375h-447z" />
    <glyph glyph-name="gdotaccent" unicode="&#x121;" horiz-adv-x="1147" 
d="M574 1276q-32 0 -55.5 22t-23.5 53t23.5 53.5t55.5 22.5t54.5 -22.5t22.5 -53.5t-22.5 -53t-54.5 -22zM555 -430q-169 0 -283.5 70t-137.5 201h106q21 -88 106 -134t209 -46q160 0 247 79.5t87 238.5v261h-10q-38 -103 -126.5 -168t-218.5 -65q-195 0 -316 147.5
t-121 392.5q0 247 120.5 401t317.5 154q132 0 217.5 -69.5t127.5 -177.5h10v231h99v-1111q0 -199 -117 -302t-317 -103zM545 100q160 0 252.5 119t92.5 326q0 205 -92.5 334.5t-252.5 129.5q-161 0 -254 -130.5t-93 -333.5q0 -201 92.5 -323t254.5 -122z" />
    <glyph glyph-name="uni0122" unicode="&#x122;" horiz-adv-x="1436" 
d="M762 592v95h549v-94q0 -281 -160 -447t-414 -166q-282 0 -452.5 203.5t-170.5 540.5q0 336 170 540t444 204q118 0 220 -40t173 -107t117.5 -150.5t62.5 -174.5h-107q-18 74 -56.5 139.5t-96 118.5t-139 84t-174.5 31q-227 0 -369.5 -175t-142.5 -470t143.5 -470
t377.5 -175q209 0 339.5 138t132.5 375h-447zM661 -481h-80l89 366h104z" />
    <glyph glyph-name="uni0123" unicode="&#x123;" horiz-adv-x="1147" 
d="M625 1226h-112v75q0 174 138 310l60 -54q-49 -68 -67.5 -125.5t-18.5 -137.5v-68zM555 -430q-169 0 -283.5 70t-137.5 201h106q21 -88 106 -134t209 -46q160 0 247 79.5t87 238.5v261h-10q-38 -103 -126.5 -168t-218.5 -65q-195 0 -316 147.5t-121 392.5q0 247 120.5 401
t317.5 154q132 0 217.5 -69.5t127.5 -177.5h10v231h99v-1111q0 -199 -117 -302t-317 -103zM545 100q160 0 252.5 119t92.5 326q0 205 -92.5 334.5t-252.5 129.5q-161 0 -254 -130.5t-93 -333.5q0 -201 92.5 -323t254.5 -122z" />
    <glyph glyph-name="Hcircumflex" unicode="&#x124;" horiz-adv-x="1432" 
d="M1003 1570h-101l-184 209l-183 -209h-101v8l247 278h74l248 -278v-8zM289 0h-104v1448h104v-676h854v676h104v-1448h-104v677h-854v-677z" />
    <glyph glyph-name="hcircumflex" unicode="&#x125;" horiz-adv-x="1114" 
d="M491 1569h-101l-184 208l-183 -208h-101v8l247 278h74l248 -278v-8zM257 696v-696h-101v1448h101v-534h9q39 87 122 136.5t200 49.5q168 0 269.5 -103.5t101.5 -283.5v-713h-100v707q0 137 -80.5 219t-212.5 82q-136 0 -222.5 -86t-86.5 -226z" />
    <glyph glyph-name="Hbar" unicode="&#x126;" horiz-adv-x="1473" 
d="M1271 1091h112v-90h-112v-1001h-105v677h-854v-677h-104v1001h-117v90h117v357h104v-357h854v357h105v-357zM312 772h854v229h-854v-229z" />
    <glyph glyph-name="hbar" unicode="&#x127;" horiz-adv-x="1114" 
d="M588 1100q168 0 269.5 -103.5t101.5 -283.5v-713h-100v707q0 137 -80.5 219t-212.5 82q-136 0 -222.5 -86t-86.5 -226v-696h-101v1237h-237v83h237v128h101v-128h237v-83h-237v-323h9q39 87 122 136.5t200 49.5z" />
    <glyph glyph-name="Itilde" unicode="&#x128;" horiz-adv-x="739" 
d="M118 1612l-83 5q6 85 62 139t137 54q41 0 79 -16.5t62.5 -36t59 -36t68.5 -16.5q45 0 80 31.5t41 78.5l82 -12q-9 -84 -65.5 -135.5t-134.5 -51.5q-41 0 -78 16.5t-59.5 36t-57.5 36t-73 16.5q-48 0 -82 -31t-38 -78zM318 1448h104v-1448h-104v1448z" />
    <glyph glyph-name="itilde" unicode="&#x129;" horiz-adv-x="452" 
d="M-24 1250l-83 5q6 85 62 139t137 54q41 0 79 -16.5t62.5 -36t59 -36t68.5 -16.5q45 0 80 31t41 79l82 -12q-9 -84 -65.5 -135.5t-134.5 -51.5q-41 0 -78 16.5t-59.5 36t-57.5 36t-73 16.5q-48 0 -82 -31t-38 -78zM278 0h-100v1086h100v-1086z" />
    <glyph glyph-name="Imacron" unicode="&#x12a;" horiz-adv-x="473" 
d="M-35 1756h544v-88h-544v88zM185 1448h104v-1448h-104v1448z" />
    <glyph glyph-name="imacron" unicode="&#x12b;" horiz-adv-x="417" 
d="M-62 1394h544v-88h-544v88zM260 0h-102v1086h102v-1086z" />
    <glyph glyph-name="Ibreve" unicode="&#x12c;" horiz-adv-x="473" 
d="M361 1810h95q0 -93 -59 -148.5t-160 -55.5q-100 0 -159 55.5t-59 148.5h95q0 -58 30.5 -91.5t92.5 -33.5t93 33.5t31 91.5zM185 1448h104v-1448h-104v1448z" />
    <glyph glyph-name="ibreve" unicode="&#x12d;" horiz-adv-x="417" 
d="M334 1448h95q0 -93 -59 -148.5t-160 -55.5q-100 0 -159 55.5t-59 148.5h95q0 -58 30.5 -91.5t92.5 -33.5t93 33.5t31 91.5zM260 0h-102v1086h102v-1086z" />
    <glyph glyph-name="Iogonek" unicode="&#x12e;" horiz-adv-x="473" 
d="M330 -308l21 -75q-65 -44 -140 -44q-82 0 -131.5 45.5t-50.5 129.5q0 135 159 252h-3v1448h104v-1448q-78 -69 -118.5 -125.5t-40.5 -116.5q0 -97 101 -97q51 0 99 31z" />
    <glyph glyph-name="iogonek" unicode="&#x12f;" horiz-adv-x="386" 
d="M195 1276q-32 0 -55 22t-23 53t23 53.5t55 22.5t55 -22.5t23 -53.5t-23 -53t-55 -22zM308 -308l21 -75q-65 -44 -140 -44q-81 0 -131.5 46t-50.5 129q0 135 159 252h-1v1086h102v-1086q-79 -68 -119.5 -125t-40.5 -117q0 -97 101 -97q52 0 100 31z" />
    <glyph glyph-name="Idotaccent" unicode="&#x130;" horiz-adv-x="473" 
d="M237 1639q-32 0 -55.5 22t-23.5 53t23.5 53t55.5 22t55 -22t23 -53t-23 -53t-55 -22zM185 1448h104v-1448h-104v1448z" />
    <glyph glyph-name="dotlessi" unicode="&#x131;" horiz-adv-x="417" 
d="M260 0h-102v1086h102v-1086z" />
    <glyph glyph-name="IJ" unicode="&#x132;" horiz-adv-x="1491" 
d="M185 1448h104v-1448h-104v1448zM1202 397v1051h105v-1051q-1 -207 -105 -312t-274 -105q-164 0 -271.5 90t-106.5 233h103q-1 -99 78 -163t197 -64q124 0 198.5 78.5t75.5 242.5z" />
    <glyph glyph-name="ij" unicode="&#x133;" horiz-adv-x="835" 
d="M210 1276q-32 0 -55 22t-23 53t23 53.5t55 22.5t55 -22.5t23 -53.5t-23 -53t-55 -22zM627 1276q-32 0 -55.5 22t-23.5 53t23.5 53.5t55.5 22.5t54.5 -22.5t22.5 -53.5t-22.5 -53t-54.5 -22zM260 0h-102v1086h102v-1086zM576 -123v1209h101v-1209q0 -131 -75.5 -207.5
t-201.5 -76.5h-25v94h23q80 0 129 51t49 139z" />
    <glyph glyph-name="Jcircumflex" unicode="&#x134;" horiz-adv-x="1018" 
d="M1066 1569h-101l-184 208l-183 -208h-102v8l248 278h74l248 -278v-8zM729 397v1051h105v-1051q-1 -207 -105 -312t-274 -105q-164 0 -271.5 90t-106.5 233h103q-1 -99 78 -163t197 -64q124 0 198.5 78.5t75.5 242.5z" />
    <glyph glyph-name="jcircumflex" unicode="&#x135;" horiz-adv-x="417" 
d="M494 1206h-102l-183 209l-184 -209h-101v9l247 278h74l249 -278v-9zM158 -123v1209h102v-1209q0 -130 -76 -207t-202 -77h-25v94h23q80 0 129 51t49 139z" />
    <glyph glyph-name="uni0136" unicode="&#x136;" horiz-adv-x="1222" 
d="M289 0h-104v1448h104v-821h11l743 821h138l-624 -680l619 -768h-129l-557 694l-201 -224v-470zM552 -481h-80l88 366h104z" />
    <glyph glyph-name="uni0137" unicode="&#x137;" horiz-adv-x="982" 
d="M928 1086l-467 -466l491 -620h-129l-437 554l-129 -125v-429h-101v1448h101v-891h11l530 529h130zM460 -481h-80l88 366h104z" />
    <glyph glyph-name="kgreenlandic" unicode="&#x138;" horiz-adv-x="1141" 
d="M975 0h-146l-475 498l-83 1v-499h-113v1086h113v-487h105l455 487h141l-507 -548z" />
    <glyph glyph-name="Lacute" unicode="&#x139;" horiz-adv-x="1081" 
d="M280 1602h-90l186 315h118zM990 0h-805v1448h104v-1353h701v-95z" />
    <glyph glyph-name="lacute" unicode="&#x13a;" horiz-adv-x="411" 
d="M249 1602h-91l186 315h119zM156 1448h101v-1448h-101v1448z" />
    <glyph glyph-name="uni013B" unicode="&#x13b;" horiz-adv-x="1081" 
d="M990 0h-805v1448h104v-1353h701v-95zM525 -481h-79l88 366h104z" />
    <glyph glyph-name="uni013C" unicode="&#x13c;" horiz-adv-x="411" 
d="M156 1448h101v-1448h-101v1448zM144 -481h-80l89 366h104z" />
    <glyph glyph-name="Lcaron" unicode="&#x13d;" horiz-adv-x="1077" 
d="M644 1150h-75v366h103zM990 0h-805v1448h104v-1353h701v-95z" />
    <glyph glyph-name="lcaron" unicode="&#x13e;" horiz-adv-x="470" 
d="M466 1150h-74v366h103zM156 1448h101v-1448h-101v1448z" />
    <glyph glyph-name="Ldot" unicode="&#x13f;" horiz-adv-x="1062" 
d="M987 0h-806v1448h104v-1353h702v-95zM642 697q-32 0 -55 22t-23 53t23 53.5t55 22.5t55 -22.5t23 -53.5t-23 -53t-55 -22z" />
    <glyph glyph-name="ldot" unicode="&#x140;" horiz-adv-x="485" 
d="M151 1448h101v-1448h-101v1448zM425 711q-32 0 -55 22t-23 53t23 53.5t55 22.5t55 -22.5t23 -53.5t-23 -53t-55 -22z" />
    <glyph glyph-name="Lslash" unicode="&#x141;" horiz-adv-x="1057" 
d="M255 692v-597h701v-95h-805v656l-152 -52v84l152 52v708h104v-673l273 93v-83z" />
    <glyph glyph-name="lslash" unicode="&#x142;" horiz-adv-x="389" 
d="M245 807l163 68v-82l-163 -69v-724h-101v682l-162 -69v83l162 68v684h101v-641z" />
    <glyph glyph-name="Nacute" unicode="&#x143;" horiz-adv-x="1482" 
d="M786 1602h-91l186 315h119zM1196 1448h102v-1448h-100l-900 1260h-9v-1260h-104v1448h101l901 -1261h9v1261z" />
    <glyph glyph-name="nacute" unicode="&#x144;" horiz-adv-x="1109" 
d="M600 1240h-90l186 315h119zM257 696v-696h-101v1086h98v-172h9q39 86 123 136t199 50q167 0 268 -103.5t101 -283.5v-713h-100v707q0 136 -80 218.5t-211 82.5q-135 0 -220.5 -86t-85.5 -226z" />
    <glyph glyph-name="uni0145" unicode="&#x145;" horiz-adv-x="1482" 
d="M1196 1448h102v-1448h-100l-900 1260h-9v-1260h-104v1448h101l901 -1261h9v1261zM680 -481h-80l89 366h104z" />
    <glyph glyph-name="uni0146" unicode="&#x146;" horiz-adv-x="1109" 
d="M257 696v-696h-101v1086h98v-172h9q39 86 123 136t199 50q167 0 268 -103.5t101 -283.5v-713h-100v707q0 136 -80 218.5t-211 82.5q-135 0 -220.5 -86t-85.5 -226zM493 -481h-80l88 366h104z" />
    <glyph glyph-name="Ncaron" unicode="&#x147;" horiz-adv-x="1482" 
d="M457 1875h101l184 -207l184 207h101v-7l-248 -278h-75l-247 278v7zM1196 1448h102v-1448h-100l-900 1260h-9v-1260h-104v1448h101l901 -1261h9v1261z" />
    <glyph glyph-name="ncaron" unicode="&#x148;" horiz-adv-x="1109" 
d="M272 1513h101l184 -208l183 208h102v-7l-249 -278h-74l-247 278v7zM257 696v-696h-101v1086h98v-172h9q39 86 123 136t199 50q167 0 268 -103.5t101 -283.5v-713h-100v707q0 136 -80 218.5t-211 82.5q-135 0 -220.5 -86t-85.5 -226z" />
    <glyph glyph-name="Eng" unicode="&#x14a;" horiz-adv-x="1482" 
d="M1196 187v1261h102v-1448v-142q0 -125 -64.5 -195t-172.5 -70q-48 0 -73 8v90q21 -6 54 -6q155 0 155 174v141h1l-900 1260h-9v-1260h-104v1448h101l901 -1261h9z" />
    <glyph glyph-name="eng" unicode="&#x14b;" horiz-adv-x="1113" 
d="M585 1100q167 0 268 -103.5t101 -283.5v-713h-1v-144q0 -126 -63 -194.5t-170 -68.5q-57 0 -83 10v87q31 -7 62 -7q154 0 154 173v144h1v707q0 136 -80 218.5t-211 82.5q-135 0 -220.5 -86t-85.5 -226v-696h-101v1086h98v-172h9q39 86 123 136t199 50z" />
    <glyph glyph-name="Omacron" unicode="&#x14c;" horiz-adv-x="1462" 
d="M460 1756h544v-88h-544v88zM1349 724q0 -335 -172 -539.5t-446 -204.5t-445.5 205t-171.5 539q0 335 171.5 539.5t445.5 204.5t446 -204.5t172 -539.5zM1247 724q-1 294 -144.5 469.5t-371.5 175.5t-371.5 -175t-143.5 -470q0 -294 143 -469.5t372 -175.5
q228 0 372.5 175.5t143.5 469.5z" />
    <glyph glyph-name="omacron" unicode="&#x14d;" horiz-adv-x="1131" 
d="M294 1394h545v-88h-545v88zM566 -23q-205 0 -337 158.5t-132 403.5q0 162 59.5 291t167 200.5t242.5 71.5q204 0 336.5 -158.5t132.5 -404.5q0 -245 -132 -403.5t-337 -158.5zM566 69q110 0 195 63.5t129 170t44 236.5t-44.5 237t-129 170.5t-194.5 63.5t-195 -63.5
t-129.5 -170.5t-44.5 -237t44.5 -236.5t129.5 -170t195 -63.5z" />
    <glyph glyph-name="Obreve" unicode="&#x14e;" horiz-adv-x="1462" 
d="M856 1810h94q0 -93 -59 -148.5t-160 -55.5q-100 0 -159 55.5t-59 148.5h95q0 -58 30.5 -91.5t92.5 -33.5t93.5 33.5t31.5 91.5zM1349 724q0 -335 -172 -539.5t-446 -204.5t-445.5 205t-171.5 539q0 335 171.5 539.5t445.5 204.5t446 -204.5t172 -539.5zM1247 724
q-1 294 -144.5 469.5t-371.5 175.5t-371.5 -175t-143.5 -470q0 -294 143 -469.5t372 -175.5q228 0 372.5 175.5t143.5 469.5z" />
    <glyph glyph-name="obreve" unicode="&#x14f;" horiz-adv-x="1131" 
d="M691 1448h95q0 -93 -59.5 -148.5t-160.5 -55.5q-100 0 -158.5 55.5t-58.5 148.5h94q0 -58 30.5 -91.5t92.5 -33.5t93.5 33.5t31.5 91.5zM566 -23q-205 0 -337 158.5t-132 403.5q0 162 59.5 291t167 200.5t242.5 71.5q204 0 336.5 -158.5t132.5 -404.5q0 -245 -132 -403.5
t-337 -158.5zM566 69q110 0 195 63.5t129 170t44 236.5t-44.5 237t-129 170.5t-194.5 63.5t-195 -63.5t-129.5 -170.5t-44.5 -237t44.5 -236.5t129.5 -170t195 -63.5z" />
    <glyph glyph-name="Ohungarumlaut" unicode="&#x150;" horiz-adv-x="1462" 
d="M609 1564h-85l182 303h113zM861 1564h-92l239 303h115zM1349 724q0 -335 -172 -539.5t-446 -204.5t-445.5 205t-171.5 539q0 335 171.5 539.5t445.5 204.5t446 -204.5t172 -539.5zM1247 724q-1 294 -144.5 469.5t-371.5 175.5t-371.5 -175t-143.5 -470q0 -294 143 -469.5
t372 -175.5q228 0 372.5 175.5t143.5 469.5z" />
    <glyph glyph-name="ohungarumlaut" unicode="&#x151;" horiz-adv-x="1131" 
d="M444 1202h-85l182 303h113zM696 1202h-91l239 303h114zM566 -23q-205 0 -337 158.5t-132 403.5q0 162 59.5 291t167 200.5t242.5 71.5q204 0 336.5 -158.5t132.5 -404.5q0 -245 -132 -403.5t-337 -158.5zM566 69q110 0 195 63.5t129 170t44 236.5t-44.5 237t-129 170.5
t-194.5 63.5t-195 -63.5t-129.5 -170.5t-44.5 -237t44.5 -236.5t129.5 -170t195 -63.5z" />
    <glyph glyph-name="OE" unicode="&#x152;" horiz-adv-x="1827" 
d="M978 677v-582h731v-95h-978q-276 0 -446.5 200t-170.5 524q0 325 170.5 524.5t446.5 199.5h962v-95h-715v-581h670v-95h-670zM731 95h144v1258h-144q-230 1 -372.5 -172.5t-142.5 -456.5q0 -281 142 -455t373 -174z" />
    <glyph glyph-name="oe" unicode="&#x153;" horiz-adv-x="1948" 
d="M1857 575v-57h-822q3 -199 107.5 -324t279.5 -125q114 0 190 51t111 117h109q-38 -108 -147.5 -184t-262.5 -76t-267 79t-171 217q-57 -138 -167.5 -217t-252.5 -79q-205 0 -337 158.5t-132 403.5q0 247 132 405t337 158q142 0 253 -80t167 -218q57 138 167 218t251 80
q92 0 174 -36t144.5 -101.5t99.5 -166.5t37 -223zM564 69q110 0 195 63.5t129.5 170t44.5 236.5t-44.5 237t-129.5 170.5t-195 63.5t-194.5 -63.5t-129 -170.5t-44.5 -237t44 -236.5t129 -170t195 -63.5zM1036 607h719q0 170 -101 286.5t-252 116.5q-150 0 -253 -116
t-113 -287z" />
    <glyph glyph-name="Racute" unicode="&#x154;" horiz-adv-x="1208" 
d="M738 1917h118l-214 -315h-90zM813 623l338 -623h-120l-325 602q-42 -4 -66 -4h-351v-598h-104v1448h454q210 0 329.5 -117.5t119.5 -309.5q0 -147 -71.5 -251.5t-203.5 -146.5zM289 694h347q165 0 257 88t92 239q0 152 -92 242t-258 90h-346v-659z" />
    <glyph glyph-name="racute" unicode="&#x155;" horiz-adv-x="652" 
d="M438 1240h-90l186 315h119zM257 0h-101v1086h98v-169h8q35 84 118 134.5t188 50.5q21 0 51 -2v-101q-55 5 -57 5q-133 0 -219 -83t-86 -211v-710z" />
    <glyph glyph-name="uni0156" unicode="&#x156;" horiz-adv-x="1208" 
d="M813 623l338 -623h-120l-325 602q-42 -4 -66 -4h-351v-598h-104v1448h454q210 0 329.5 -117.5t119.5 -309.5q0 -147 -71.5 -251.5t-203.5 -146.5zM289 694h347q165 0 257 88t92 239q0 152 -92 242t-258 90h-346v-659zM559 -481h-80l89 366h104z" />
    <glyph glyph-name="uni0157" unicode="&#x157;" horiz-adv-x="652" 
d="M257 0h-101v1086h98v-169h8q35 84 118 134.5t188 50.5q21 0 51 -2v-101q-55 5 -57 5q-133 0 -219 -83t-86 -211v-710zM144 -481h-80l88 366h104z" />
    <glyph glyph-name="Rcaron" unicode="&#x158;" horiz-adv-x="1208" 
d="M883 1868l-248 -278h-74l-248 278v7h101l184 -207l184 207h101v-7zM813 623l338 -623h-120l-325 602q-42 -4 -66 -4h-351v-598h-104v1448h454q210 0 329.5 -117.5t119.5 -309.5q0 -147 -71.5 -251.5t-203.5 -146.5zM289 694h347q165 0 257 88t92 239q0 152 -92 242
t-258 90h-346v-659z" />
    <glyph glyph-name="rcaron" unicode="&#x159;" horiz-adv-x="652" 
d="M110 1513h101l184 -208l184 208h101v-7l-248 -278h-74l-248 278v7zM257 0h-101v1086h98v-169h8q35 84 118 134.5t188 50.5q21 0 51 -2v-101q-55 5 -57 5q-133 0 -219 -83t-86 -211v-710z" />
    <glyph glyph-name="Sacute" unicode="&#x15a;" horiz-adv-x="1204" 
d="M646 1602h-90l186 315h119zM1069 1085h-102q-11 131 -108.5 210.5t-248.5 79.5q-156 0 -255.5 -81.5t-99.5 -207.5q0 -194 293 -279l156 -46q84 -25 148.5 -55.5t120.5 -75.5t85.5 -108t29.5 -142q0 -177 -133 -290.5t-355 -113.5q-212 0 -342 104.5t-142 275.5h106
q10 -131 114 -207t264 -76q171 0 279 85t108 222q0 107 -77 173t-235 113l-170 50q-353 107 -353 366q0 169 131 278.5t329 109.5q196 0 322.5 -108t134.5 -277z" />
    <glyph glyph-name="sacute" unicode="&#x15b;" horiz-adv-x="970" 
d="M544 1240h-91l186 315h119zM860 830h-101q-19 85 -85.5 133t-171.5 49q-116 1 -190 -57.5t-74 -149.5q0 -144 205 -195l167 -41q130 -31 196.5 -103t66.5 -179q0 -138 -106 -224t-284 -86q-164 0 -264 75.5t-121 214.5h106q17 -97 88 -147.5t190 -50.5q131 0 209.5 57.5
t78.5 154.5q0 149 -196 198l-167 40q-132 31 -201 104t-69 178q0 133 101.5 217.5t263.5 83.5q149 -1 243.5 -75t114.5 -197z" />
    <glyph glyph-name="Scircumflex" unicode="&#x15c;" horiz-adv-x="1204" 
d="M888 1569h-102l-183 208l-184 -208h-101v8l247 278h74l249 -278v-8zM1069 1085h-102q-11 131 -108.5 210.5t-248.5 79.5q-156 0 -255.5 -81.5t-99.5 -207.5q0 -194 293 -279l156 -46q84 -25 148.5 -55.5t120.5 -75.5t85.5 -108t29.5 -142q0 -177 -133 -290.5t-355 -113.5
q-212 0 -342 104.5t-142 275.5h106q10 -131 114 -207t264 -76q171 0 279 85t108 222q0 107 -77 173t-235 113l-170 50q-353 107 -353 366q0 169 131 278.5t329 109.5q196 0 322.5 -108t134.5 -277z" />
    <glyph glyph-name="scircumflex" unicode="&#x15d;" horiz-adv-x="970" 
d="M785 1206h-101l-184 209l-184 -209h-101v9l247 278h75l248 -278v-9zM860 830h-101q-19 85 -85.5 133t-171.5 49q-116 1 -190 -57.5t-74 -149.5q0 -144 205 -195l167 -41q130 -31 196.5 -103t66.5 -179q0 -138 -106 -224t-284 -86q-164 0 -264 75.5t-121 214.5h106
q17 -97 88 -147.5t190 -50.5q131 0 209.5 57.5t78.5 154.5q0 149 -196 198l-167 40q-132 31 -201 104t-69 178q0 133 101.5 217.5t263.5 83.5q149 -1 243.5 -75t114.5 -197z" />
    <glyph glyph-name="Scedilla" unicode="&#x15e;" horiz-adv-x="1204" 
d="M1088 380q0 -168 -122 -280t-327 -123l-5 -28q68 -10 107.5 -52t40.5 -113q-1 -83 -62 -128.5t-177 -47.5l-3 74q150 3 150 99q0 55 -37.5 81t-117.5 28l18 87q-192 12 -309 115t-128 264h106q10 -131 114 -207t264 -76q171 0 279 85t108 222q0 107 -77 173t-235 113
l-170 50q-353 107 -353 366q0 169 131 278.5t329 109.5q196 0 322.5 -108t134.5 -277h-102q-11 131 -108.5 210.5t-248.5 79.5q-156 0 -255.5 -81.5t-99.5 -207.5q0 -194 293 -279l156 -46q84 -25 148.5 -55.5t120.5 -75.5t85.5 -108t29.5 -142z" />
    <glyph glyph-name="scedilla" unicode="&#x15f;" horiz-adv-x="970" 
d="M873 287q0 -128 -92.5 -212t-250.5 -96l-6 -30q68 -10 107.5 -52t40.5 -113q-1 -83 -62 -128.5t-177 -47.5l-3 74q150 3 150 99q0 55 -37.5 81t-117.5 28l18 89q-146 9 -236 83.5t-109 204.5h106q17 -97 88 -147.5t190 -50.5q131 0 209.5 57.5t78.5 154.5q0 149 -196 198
l-167 40q-132 31 -201 104t-69 178q0 133 101.5 217.5t263.5 83.5q149 -1 243.5 -75t114.5 -197h-101q-19 85 -85.5 133t-171.5 49q-116 1 -190 -57.5t-74 -149.5q0 -144 205 -195l167 -41q130 -31 196.5 -103t66.5 -179z" />
    <glyph glyph-name="Scaron" unicode="&#x160;" horiz-adv-x="1204" 
d="M318 1875h101l184 -207l183 207h102v-7l-249 -278h-74l-247 278v7zM1069 1085h-102q-11 131 -108.5 210.5t-248.5 79.5q-156 0 -255.5 -81.5t-99.5 -207.5q0 -194 293 -279l156 -46q84 -25 148.5 -55.5t120.5 -75.5t85.5 -108t29.5 -142q0 -177 -133 -290.5t-355 -113.5
q-212 0 -342 104.5t-142 275.5h106q10 -131 114 -207t264 -76q171 0 279 85t108 222q0 107 -77 173t-235 113l-170 50q-353 107 -353 366q0 169 131 278.5t329 109.5q196 0 322.5 -108t134.5 -277z" />
    <glyph glyph-name="scaron" unicode="&#x161;" horiz-adv-x="970" 
d="M215 1513h101l184 -208l184 208h101v-7l-248 -278h-75l-247 278v7zM860 830h-101q-19 85 -85.5 133t-171.5 49q-116 1 -190 -57.5t-74 -149.5q0 -144 205 -195l167 -41q130 -31 196.5 -103t66.5 -179q0 -138 -106 -224t-284 -86q-164 0 -264 75.5t-121 214.5h106
q17 -97 88 -147.5t190 -50.5q131 0 209.5 57.5t78.5 154.5q0 149 -196 198l-167 40q-132 31 -201 104t-69 178q0 133 101.5 217.5t263.5 83.5q149 -1 243.5 -75t114.5 -197z" />
    <glyph glyph-name="uni0162" unicode="&#x162;" horiz-adv-x="1209" 
d="M657 1353v-1353h-2l-10 -54q67 -10 107 -52.5t41 -113.5q-1 -83 -62 -128t-177 -47l-3 74q150 3 150 99q0 55 -37.5 80.5t-117.5 27.5l23 114h-16v1353h-462v95h1028v-95h-462z" />
    <glyph glyph-name="uni0163" unicode="&#x163;" horiz-adv-x="668" 
d="M483 -18l-6 -33q67 -10 106.5 -52t40.5 -113q-1 -83 -62 -128.5t-177 -47.5l-2 74q150 3 150 99q0 55 -37.5 81t-117.5 28l22 108q-78 27 -126 91t-48 157v752h-161v88h161v260h101v-260h227v-88h-227v-732q0 -94 50.5 -140t126.5 -46q15 0 78 3v-96q-50 -5 -86 -5h-13z
" />
    <glyph glyph-name="Tcaron" unicode="&#x164;" horiz-adv-x="1209" 
d="M320 1875h101l184 -207l184 207h101v-7l-248 -278h-74l-248 278v7zM553 1353h-462v95h1028v-95h-462v-1353h-104v1353z" />
    <glyph glyph-name="tcaron" unicode="&#x165;" horiz-adv-x="669" 
d="M457 1587h102l-28 -366h-74v366zM504 80q15 0 78 3v-96q-50 -5 -86 -5q-110 0 -190 71t-80 193v752h-161v88h161v260h101v-260h227v-88h-227v-732q0 -94 50.5 -140t126.5 -46z" />
    <glyph glyph-name="Tbar" unicode="&#x166;" horiz-adv-x="1209" 
d="M1119 1448v-95h-462v-566h235v-83h-235v-704h-104v704h-236v83h236v566h-462v95h1028z" />
    <glyph glyph-name="tbar" unicode="&#x167;" horiz-adv-x="679" 
d="M515 80q15 0 78 3v-96q-47 -5 -86 -5q-111 0 -190.5 71t-79.5 193v396h-172v82h172v274h-161v88h161v260h101v-260h228v-88h-228v-274h238v-82h-238v-376q0 -94 50.5 -140t126.5 -46z" />
    <glyph glyph-name="Utilde" unicode="&#x168;" horiz-adv-x="1448" 
d="M472 1612l-84 5q6 85 62.5 139t137.5 54q41 0 79 -16.5t62.5 -36t58.5 -36t68 -16.5q46 0 81 31.5t41 78.5l82 -12q-9 -84 -65.5 -135.5t-134.5 -51.5q-41 0 -78 16.5t-59.5 36t-57.5 36t-73 16.5q-48 0 -81.5 -31t-38.5 -78zM1159 496v952h105v-958
q0 -223 -151.5 -368.5t-388.5 -145.5q-236 0 -388 145.5t-151 368.5v958h104v-952q0 -183 121.5 -302t313.5 -119t313.5 119t121.5 302z" />
    <glyph glyph-name="utilde" unicode="&#x169;" horiz-adv-x="1106" 
d="M301 1250l-83 5q6 85 62 139t137 54q41 0 79 -16.5t62.5 -36t59 -36t68.5 -16.5q46 0 81 31.5t41 78.5l82 -12q-9 -84 -65.5 -135.5t-134.5 -51.5q-41 0 -78 16.5t-60 36t-58 36t-73 16.5q-48 0 -81.5 -31t-38.5 -78zM850 395v691h100v-1086h-100v178h-8
q-39 -87 -124.5 -139.5t-199.5 -52.5q-162 0 -262 103.5t-100 283.5v713h101v-707q0 -132 79.5 -214t205.5 -82q128 0 218 85.5t90 226.5z" />
    <glyph glyph-name="Umacron" unicode="&#x16a;" horiz-adv-x="1448" 
d="M453 1756h544v-88h-544v88zM1159 496v952h105v-958q0 -223 -151.5 -368.5t-388.5 -145.5q-236 0 -388 145.5t-151 368.5v958h104v-952q0 -183 121.5 -302t313.5 -119t313.5 119t121.5 302z" />
    <glyph glyph-name="umacron" unicode="&#x16b;" horiz-adv-x="1106" 
d="M281 1394h545v-88h-545v88zM850 395v691h100v-1086h-100v178h-8q-39 -87 -124.5 -139.5t-199.5 -52.5q-162 0 -262 103.5t-100 283.5v713h101v-707q0 -132 79.5 -214t205.5 -82q128 0 218 85.5t90 226.5z" />
    <glyph glyph-name="Ubreve" unicode="&#x16c;" horiz-adv-x="1448" 
d="M849 1810h94q0 -93 -59 -148.5t-160 -55.5q-100 0 -159 55.5t-59 148.5h95q0 -58 30.5 -91.5t92.5 -33.5t93.5 33.5t31.5 91.5zM1159 496v952h105v-958q0 -223 -151.5 -368.5t-388.5 -145.5q-236 0 -388 145.5t-151 368.5v958h104v-952q0 -183 121.5 -302t313.5 -119
t313.5 119t121.5 302z" />
    <glyph glyph-name="ubreve" unicode="&#x16d;" horiz-adv-x="1106" 
d="M678 1448h95q0 -93 -59 -148.5t-160 -55.5q-100 0 -159 55.5t-59 148.5h95q0 -58 30.5 -91.5t92.5 -33.5t93 33.5t31 91.5zM850 395v691h100v-1086h-100v178h-8q-39 -87 -124.5 -139.5t-199.5 -52.5q-162 0 -262 103.5t-100 283.5v713h101v-707q0 -132 79.5 -214
t205.5 -82q128 0 218 85.5t90 226.5z" />
    <glyph glyph-name="Uring" unicode="&#x16e;" horiz-adv-x="1448" 
d="M724 1531q-75 0 -127.5 53t-52.5 128t52.5 127.5t127.5 52.5t128 -52.5t53 -127.5t-53 -128t-128 -53zM724 1601q46 0 78 32t32 79q0 46 -32 78t-78 32t-77.5 -32t-31.5 -78q0 -47 31.5 -79t77.5 -32zM1159 496v952h105v-958q0 -223 -151.5 -368.5t-388.5 -145.5
q-236 0 -388 145.5t-151 368.5v958h104v-952q0 -183 121.5 -302t313.5 -119t313.5 119t121.5 302z" />
    <glyph glyph-name="uring" unicode="&#x16f;" horiz-adv-x="1106" 
d="M554 1216q-85 0 -144 56.5t-59 139.5t59 140.5t144 57.5t143.5 -57.5t58.5 -140.5t-58.5 -139.5t-143.5 -56.5zM554 1288q52 0 87.5 37t35.5 87q0 51 -35.5 88t-87.5 37t-88 -37.5t-36 -87.5t36 -87t88 -37zM850 395v691h100v-1086h-100v178h-8q-39 -87 -124.5 -139.5
t-199.5 -52.5q-162 0 -262 103.5t-100 283.5v713h101v-707q0 -132 79.5 -214t205.5 -82q128 0 218 85.5t90 226.5z" />
    <glyph glyph-name="Uhungarumlaut" unicode="&#x170;" horiz-adv-x="1448" 
d="M602 1564h-85l182 303h113zM854 1564h-92l239 303h115zM1159 496v952h105v-958q0 -223 -151.5 -368.5t-388.5 -145.5q-236 0 -388 145.5t-151 368.5v958h104v-952q0 -183 121.5 -302t313.5 -119t313.5 119t121.5 302z" />
    <glyph glyph-name="uhungarumlaut" unicode="&#x171;" horiz-adv-x="1106" 
d="M431 1202h-84l181 303h113zM683 1202h-91l239 303h115zM850 395v691h100v-1086h-100v178h-8q-39 -87 -124.5 -139.5t-199.5 -52.5q-162 0 -262 103.5t-100 283.5v713h101v-707q0 -132 79.5 -214t205.5 -82q128 0 218 85.5t90 226.5z" />
    <glyph glyph-name="Uogonek" unicode="&#x172;" horiz-adv-x="1448" 
d="M1159 496v952h105v-958q0 -205 -129.5 -347t-338.5 -164q-66 -61 -100.5 -113t-34.5 -106q0 -97 101 -97q51 0 99 31l21 -75q-67 -45 -139 -45q-82 0 -132 46t-51 129q0 124 128 228q-222 12 -363 156t-140 357v958h104v-952q0 -183 121.5 -302t313.5 -119t313.5 119
t121.5 302z" />
    <glyph glyph-name="uogonek" unicode="&#x173;" horiz-adv-x="1106" 
d="M992 -308l21 -75q-65 -44 -140 -44q-82 0 -131.5 45.5t-50.5 129.5q0 135 159 252v178h-8q-39 -87 -124.5 -139.5t-199.5 -52.5q-162 0 -262 103.5t-100 283.5v713h101v-707q0 -132 79.5 -214t205.5 -82q128 0 218 85.5t90 226.5v691h100v-1086q-78 -68 -118 -125
t-40 -117q0 -97 100 -97q52 0 100 31z" />
    <glyph glyph-name="Wcircumflex" unicode="&#x174;" horiz-adv-x="1793" 
d="M1182 1569h-101l-184 208l-183 -208h-102v8l248 278h74l248 -278v-8zM547 0h-116l-398 1448h107l345 -1287h9l341 1287h123l342 -1287h8l345 1287h108l-398 -1448h-116l-346 1276h-8z" />
    <glyph glyph-name="wcircumflex" unicode="&#x175;" horiz-adv-x="1555" 
d="M1063 1206h-101l-184 209l-184 -209h-101v9l247 278h75l248 -278v-9zM503 0h-110l-326 1086h106l273 -938h7l273 938h106l270 -937h8l273 937h106l-326 -1086h-109l-270 926h-11z" />
    <glyph glyph-name="Ycircumflex" unicode="&#x176;" horiz-adv-x="1229" 
d="M900 1569h-101l-184 208l-184 -208h-101v8l248 278h74l248 -278v-8zM563 646l-522 802h122l447 -693h10l447 693h122l-522 -802v-646h-104v646z" />
    <glyph glyph-name="ycircumflex" unicode="&#x177;" horiz-adv-x="1033" 
d="M802 1206h-101l-184 209l-184 -209h-101v9l247 278h75l248 -278v-9zM216 -407q-29 0 -53 2v92q20 -2 48 -2q32 0 55.5 5.5t52.5 21.5t54.5 53t45.5 94l47 127l-399 1100h109l337 -957h8l337 957h109l-459 -1266q-83 -227 -292 -227z" />
    <glyph glyph-name="Ydieresis" unicode="&#x178;" horiz-adv-x="1229" 
d="M449 1639q-30 0 -52.5 22.5t-22.5 52.5q0 31 22.5 53.5t52.5 22.5q32 0 54 -22t22 -54q0 -30 -22 -52.5t-54 -22.5zM781 1639q-30 0 -53 22.5t-23 52.5q0 31 23 53.5t53 22.5q31 0 53 -22t22 -54q0 -30 -22 -52.5t-53 -22.5zM563 646l-522 802h122l447 -693h10l447 693
h122l-522 -802v-646h-104v646z" />
    <glyph glyph-name="Zacute" unicode="&#x179;" horiz-adv-x="1185" 
d="M636 1602h-91l186 315h119zM1071 0h-951v82l820 1271h-820v95h944v-82l-819 -1271h826v-95z" />
    <glyph glyph-name="zacute" unicode="&#x17a;" horiz-adv-x="1003" 
d="M545 1240h-91l186 315h119zM907 0h-787v82l634 902v7h-602v95h731v-85l-627 -898v-8h651v-95z" />
    <glyph glyph-name="Zdotaccent" unicode="&#x17b;" horiz-adv-x="1185" 
d="M592 1639q-32 0 -55.5 22t-23.5 53t23.5 53t55.5 22t55 -22t23 -53t-23 -53t-55 -22zM1071 0h-951v82l820 1271h-820v95h944v-82l-819 -1271h826v-95z" />
    <glyph glyph-name="zdotaccent" unicode="&#x17c;" horiz-adv-x="1003" 
d="M501 1276q-32 0 -55.5 22t-23.5 53t23.5 53.5t55.5 22.5t54.5 -22.5t22.5 -53.5t-22.5 -53t-54.5 -22zM907 0h-787v82l634 902v7h-602v95h731v-85l-627 -898v-8h651v-95z" />
    <glyph glyph-name="Zcaron" unicode="&#x17d;" horiz-adv-x="1185" 
d="M308 1875h101l184 -207l183 207h102v-7l-249 -278h-74l-247 278v7zM1071 0h-951v82l820 1271h-820v95h944v-82l-819 -1271h826v-95z" />
    <glyph glyph-name="zcaron" unicode="&#x17e;" horiz-adv-x="1003" 
d="M216 1513h102l183 -208l184 208h101v-7l-248 -278h-74l-248 278v7zM907 0h-787v82l634 902v7h-602v95h731v-85l-627 -898v-8h651v-95z" />
    <glyph glyph-name="longs" unicode="&#x17f;" horiz-adv-x="440" 
d="M134 1218v-1218h-113v1218q0 138 81 217t210 79q45 0 107 -15l-14 -89q-33 9 -76 9q-88 0 -141.5 -53.5t-53.5 -147.5z" />
    <glyph glyph-name="uni0180" unicode="&#x180;" horiz-adv-x="1173" 
d="M639 1102q196 0 317 -156.5t121 -405.5q0 -250 -121 -406.5t-317 -156.5q-131 0 -217 70t-128 179h-11v-226h-98v1204h-237v82h237v162h101v-162h237v-82h-237v-349h8q41 108 127 177.5t218 69.5zM629 70q161 0 253.5 133t92.5 339q0 205 -92.5 336t-253.5 131
q-160 0 -252.5 -130t-92.5 -337q0 -208 93 -340t252 -132z" />
    <glyph glyph-name="uni0181" unicode="&#x181;" horiz-adv-x="1491" 
d="M1092 748v-9q116 -9 200 -108.5t84 -253.5q0 -171 -112 -274t-323 -103h-512v1353h-98q-79 0 -110 -44.5t-31 -135.5v-39h-99v72q0 111 62 176.5t175 65.5h579q197 0 305 -102t108 -272q0 -130 -62 -214.5t-166 -111.5zM906 1353h-373v-571h398q132 0 209.5 82.5
t77.5 208.5q0 130 -81.5 205t-230.5 75zM533 95h408q159 0 246.5 78t87.5 205q0 134 -92.5 222.5t-238.5 88.5h-411v-594z" />
    <glyph glyph-name="uni0182" unicode="&#x182;" horiz-adv-x="1263" 
d="M728 0h-543v1448h826v-95h-722v-560h439q204 0 321.5 -103.5t117.5 -280.5q0 -188 -116.5 -298.5t-322.5 -110.5zM289 699v-605h439q157 0 246 87.5t90 230.5q0 127 -91 207t-245 80h-439z" />
    <glyph glyph-name="uni0183" unicode="&#x183;" horiz-adv-x="1173" 
d="M639 1102q196 0 317 -156.5t121 -405.5q0 -250 -121 -406.5t-317 -156.5q-131 0 -217 70t-128 179h-11v-226h-98v1448h764v-94h-663v-499h8q41 108 127 177.5t218 69.5zM629 70q161 0 253.5 133t92.5 339q0 205 -92.5 336t-253.5 131q-160 0 -252.5 -130t-92.5 -337
q0 -208 93 -340t252 -132z" />
    <glyph glyph-name="uni0184" unicode="&#x184;" horiz-adv-x="1290" 
d="M436 793h439q205 0 322.5 -103.5t117.5 -280.5q0 -188 -117 -298.5t-323 -110.5h-543v1353h-334v95h438v-655zM436 94h439q157 0 246 87.5t90 230.5q0 127 -91 207t-245 80h-439v-605z" />
    <glyph glyph-name="uni0185" unicode="&#x185;" horiz-adv-x="1118" 
d="M649 1102q196 0 317 -156.5t121 -405.5q0 -250 -120 -406.5t-316 -156.5q-132 0 -217.5 70t-127.5 179h-12v-226h-99v1018h-15l-128 217v44l128 215h43v-46h73v-593h10q40 108 125.5 177.5t217.5 69.5zM639 70q108 0 187.5 62.5t120 168.5t40.5 241q0 134 -40.5 238.5
t-120 166.5t-187.5 62q-160 0 -252 -129.5t-92 -337.5q0 -209 92.5 -340.5t251.5 -131.5z" />
    <glyph glyph-name="uni0186" unicode="&#x186;" horiz-adv-x="1405" 
d="M107 454h107q29 -155 155 -265t306 -110q106 0 199 43t163.5 122.5t111.5 203.5t41 276q0 153 -41 277t-111.5 203.5t-163.5 122t-199 42.5q-180 0 -305.5 -109t-155.5 -265h-107q22 125 93.5 230.5t196 174t278.5 68.5q274 0 445.5 -204.5t171.5 -539.5t-171.5 -539.5
t-445.5 -204.5q-116 0 -217 39t-171.5 105.5t-117 151t-62.5 178.5z" />
    <glyph glyph-name="uni0187" unicode="&#x187;" horiz-adv-x="1424" 
d="M1419 1456q44 0 63 -6v-89q-18 5 -44 5q-70 0 -105 -36.5t-35 -120.5v-215h-106q-29 155 -155 265t-306 110q-106 0 -199 -43t-163.5 -122.5t-111.5 -203.5t-41 -276q0 -153 41 -277t111.5 -203.5t163.5 -122t199 -42.5q180 0 305.5 109t155.5 265h106q-16 -93 -62 -177
t-116.5 -150.5t-171.5 -106t-217 -39.5q-274 0 -445.5 204.5t-171.5 539.5t171.5 539.5t445.5 204.5q151 0 271 -63.5t197 -171.5q6 109 64 166t156 57z" />
    <glyph glyph-name="uni0188" unicode="&#x188;" horiz-adv-x="1142" 
d="M1100 1167q53 0 82 -7v-88q-35 5 -63 5q-74 0 -109.5 -36t-35.5 -121v-156h-101q-21 107 -104 176.5t-200 69.5q-162 0 -267 -131.5t-105 -336.5q0 -206 103.5 -339t268.5 -133q117 0 201 67.5t105 180.5h102q-23 -151 -135 -246t-273 -95q-210 0 -341 159t-131 403
t132 403.5t339 159.5q93 0 173 -34t136 -96q13 96 71 145.5t152 49.5z" />
    <glyph glyph-name="uni0189" unicode="&#x189;" horiz-adv-x="1388" 
d="M623 1448q307 0 480 -191t172 -529q-1 -345 -179 -536.5t-501 -191.5h-410v699h-236v83h236v666h438zM289 95h301q283 0 433.5 166.5t149.5 466.5q-1 295 -144.5 460t-410.5 165h-329v-571h236v-83h-236v-604z" />
    <glyph glyph-name="uni018A" unicode="&#x18a;" horiz-adv-x="1647" 
d="M883 1448q307 0 479.5 -191t171.5 -529q-1 -345 -179 -536.5t-501 -191.5h-411v1353h-112q-79 0 -110 -44.5t-31 -135.5v-39h-99v72q0 111 62 176.5t175 65.5h555zM547 95h302q283 0 433.5 166.5t149.5 466.5q-1 295 -144 460t-410 165h-331v-1258z" />
    <glyph glyph-name="uni018B" unicode="&#x18b;" horiz-adv-x="1173" 
d="M1078 1436v-1436h-542q-206 0 -323.5 110.5t-117.5 298.5q0 177 118 282t323 105h426v541h-709v99h825zM536 97h426v601h-426q-154 0 -239.5 -79t-84.5 -207q0 -144 83.5 -229.5t240.5 -85.5z" />
    <glyph glyph-name="uni018C" unicode="&#x18c;" horiz-adv-x="1173" 
d="M989 1448v-1448h-99v226h-11q-42 -109 -128 -179t-217 -70q-196 0 -316.5 156.5t-120.5 406.5q0 249 121 405.5t317 156.5q132 0 218 -70t126 -177h9v499h-664v94h765zM545 70q159 0 252 132t93 340q0 207 -93 337t-252 130q-108 0 -187.5 -62t-119.5 -166.5t-40 -238.5
q0 -206 93 -339t254 -133z" />
    <glyph glyph-name="uni018D" unicode="&#x18d;" horiz-adv-x="954" 
d="M786 -296v-69h-634v92l479 -1q-111 124 -309 317q-145 137 -216.5 258.5t-71.5 256.5v13q0 243 119.5 387t323.5 144t324.5 -144.5t120.5 -386.5v-14q0 -198 -118 -331.5t-310 -144.5q-31 -1 -84 7q259 -252 376 -384zM810 557v14q0 201 -87.5 318.5t-245.5 117.5
q-156 0 -243.5 -117.5t-87.5 -318.5v-13q0 -202 188 -379q68 -19 132 -19q158 0 251 111.5t93 285.5z" />
    <glyph glyph-name="uni018E" unicode="&#x18e;" horiz-adv-x="1137" 
d="M119 1448h834v-1448h-819v95h715v581h-671v95h671v582h-730v95z" />
    <glyph glyph-name="uni018F" unicode="&#x18f;" horiz-adv-x="1352" 
d="M634 1468q284 0 447 -192t163 -528v-78q0 -204 -70 -360t-201.5 -243t-306.5 -87q-254 0 -405 182.5t-151 497.5v66h1017v22q0 294 -130 457t-369 163q-172 0 -348 -88l-32 90q166 98 386 98zM665 79q208 0 330 148.5t131 404.5h-900v-15q0 -248 119 -393t320 -145z" />
    <glyph glyph-name="uni0190" unicode="&#x190;" horiz-adv-x="1161" 
d="M955 376h116q-13 -183 -149 -289.5t-345 -106.5q-211 0 -345 106.5t-134 289.5q0 140 80.5 235t228.5 134q-135 39 -209 128.5t-74 214.5q0 170 127 275t328 105q200 0 322 -105t134 -280h-115q-12 131 -100.5 209t-240.5 78q-158 0 -249 -78.5t-91 -206.5
q0 -129 97 -211.5t268 -82.5h123v-97h-123q-182 0 -286 -83.5t-104 -227.5q0 -140 99.5 -223t263.5 -83q168 0 267 83t111 216z" />
    <glyph glyph-name="uni0191" unicode="&#x191;" horiz-adv-x="1103" 
d="M978 1448v-95h-714v-581h648v-95h-648v-819q0 -128 -65.5 -196t-189.5 -68q-26 0 -55 7v90q16 -5 52 -5q153 0 153 173v141h1v1448h818z" />
    <glyph glyph-name="florin" unicode="&#x192;" horiz-adv-x="631" 
d="M356 1047h196v-89h-196v-1078q0 -134 -75.5 -210.5t-199.5 -76.5q-54 0 -99 15l14 91q35 -12 84 -12q73 0 122.5 52.5t49.5 140.5v1078h-184v89h184v171q0 136 77.5 215.5t196.5 79.5q71 0 122 -19l-26 -92q-38 12 -76 12q-84 0 -137 -52t-53 -144v-171z" />
    <glyph glyph-name="uni0193" unicode="&#x193;" horiz-adv-x="1432" 
d="M1426 1402q57 0 82 -5v-89q-27 4 -63 4q-74 0 -109.5 -35.5t-35.5 -120.5v-153l1 -7h-107q-18 74 -56.5 139.5t-96 118.5t-139 84t-174.5 31q-227 0 -369.5 -175t-142.5 -470t143.5 -470t377.5 -175q209 0 339.5 138t132.5 375h-447v95h549v-94q0 -281 -160 -447
t-414 -166q-282 0 -452.5 203.5t-170.5 540.5q0 336 170 540t444 204q155 0 277 -66t200 -176q31 176 221 176z" />
    <glyph glyph-name="uni0194" unicode="&#x194;" horiz-adv-x="1091" 
d="M1128 1448l-528 -1270l6 -15q22 -54 54 -129t44 -105t27 -69.5t19.5 -60.5t4.5 -40q0 -86 -56.5 -137.5t-152.5 -51.5t-152.5 51t-56.5 138q0 14 2 28.5t8.5 35.5t13 39t20.5 52t25.5 61.5t33.5 80t40 95.5l14 32l-529 1265h114l467 -1138l469 1138h113zM650 -244
q1 30 -20 88.5t-82 207.5q-90 -217 -101 -260q-5 -21 -5 -36q0 -39 29 -64.5t75 -25.5t74.5 26t29.5 64z" />
    <glyph glyph-name="uni0195" unicode="&#x195;" horiz-adv-x="1815" 
d="M1559 977v109h101v-119q0 -494 -123 -740t-350 -246q-156 0 -242 111.5t-86 336.5v278q0 137 -80.5 219t-212.5 82q-136 0 -222.5 -86t-86.5 -226v-696h-101v1448h101v-534h9q39 87 122.5 136.5t199.5 49.5q168 0 269.5 -103.5t101.5 -283.5v-284q0 -356 233 -356
q177 0 272 222.5t95 681.5z" />
    <glyph glyph-name="Iota" unicode="&#x196;" horiz-adv-x="536" 
d="M156 1448h101v-1164q0 -88 49.5 -138.5t129.5 -50.5h22v-95h-24q-126 0 -202 77t-76 207v1164z" />
    <glyph glyph-name="uni0197" unicode="&#x197;" horiz-adv-x="473" 
d="M289 789h236v-83h-236v-706h-104v706h-236v83h236v659h104v-659z" />
    <glyph glyph-name="uni0198" unicode="&#x198;" horiz-adv-x="1282" 
d="M289 0h-104v1448h104v-820h11l676 745q66 75 156 85t153 -47l-49 -76q-98 68 -191 -36l-488 -531l660 -768h-131l-596 694l-201 -224v-470z" />
    <glyph glyph-name="uni0199" unicode="&#x199;" horiz-adv-x="974" 
d="M914 1086l-456 -466l484 -620h-123l-427 547l-135 -138v-409h-101v1222q0 122 59.5 184t166.5 62q57 0 82 -6v-89q-33 5 -63 5q-74 0 -109 -35.5t-35 -120.5v-666h9l515 530h133z" />
    <glyph glyph-name="uni019A" unicode="&#x19a;" horiz-adv-x="411" 
d="M257 789h237v-83h-237v-706h-101v706h-238v83h238v659h101v-659z" />
    <glyph glyph-name="uni019B" unicode="&#x19b;" horiz-adv-x="1184" 
d="M1051 90l13 -94q-24 -9 -66 -9q-74 0 -118 39t-87 154l-265 705l-316 -885h-122l380 1038l-63 171l-243 -103v100l207 89q-45 78 -129 79q-28 2 -64 -7l-10 90q43 12 97 12q79 -1 129 -31.5t83 -97.5l114 49v-102l-79 -33l385 -1028q30 -81 54 -110.5t60 -29.5q14 0 40 4
z" />
    <glyph glyph-name="uni019C" unicode="&#x19c;" horiz-adv-x="1682" 
d="M1426 331v1117h111v-1448h-104l-4 146q-98 -162 -300 -162q-241 0 -315 213q-42 -100 -125.5 -156.5t-199.5 -56.5q-163 0 -253.5 102.5t-90.5 301.5v1060h112v-1060q0 -152 66 -229.5t181 -77.5q116 0 190 69.5t93 186.5q-1 16 -1 51v1060h111v-1060q0 -152 66 -229.5
t181 -77.5t188.5 68t93.5 182z" />
    <glyph glyph-name="uni019D" unicode="&#x19d;" horiz-adv-x="1461" 
d="M1175 187v1261h102v-1448h-101l-899 1260h-10v-1260v-142q0 -125 -64.5 -194.5t-171.5 -69.5q-52 0 -74 7v90q16 -5 52 -5q153 0 153 173v141h1v1448h101l901 -1261h10z" />
    <glyph glyph-name="uni019E" unicode="&#x19e;" horiz-adv-x="1109" 
d="M257 696v-696h-101v1086h98v-172h9q39 86 123 136t199 50q167 0 268 -103.5t101 -283.5v-1120h-100v1114q0 136 -80 218.5t-211 82.5q-135 0 -220.5 -86t-85.5 -226z" />
    <glyph glyph-name="uni019F" unicode="&#x19f;" horiz-adv-x="1462" 
d="M731 1468q274 0 446 -204.5t172 -539.5t-172 -539.5t-446 -204.5t-445.5 205t-171.5 539q0 335 171.5 539.5t445.5 204.5zM731 1369q-218 0 -360 -161t-155 -436h1029q-13 275 -154.5 436t-359.5 161zM731 79q219 0 361 162t154 436h-1030q13 -274 154.5 -436t360.5 -162
z" />
    <glyph glyph-name="Ohorn" unicode="&#x1a0;" horiz-adv-x="1460" 
d="M1319 1556h98q0 -136 -52 -216.5t-161 -111.5q145 -200 145 -504q0 -335 -172 -539.5t-446 -204.5t-445.5 205t-171.5 539q0 335 171.5 539.5t445.5 204.5q247 0 411 -166q95 19 135.5 79.5t41.5 174.5zM731 79q228 0 372.5 175.5t143.5 469.5t-144.5 469.5t-371.5 175.5
t-371.5 -175t-143.5 -470q0 -294 143 -469.5t372 -175.5z" />
    <glyph glyph-name="ohorn" unicode="&#x1a1;" horiz-adv-x="1114" 
d="M1019 1178h94q0 -244 -168 -293q90 -147 90 -346q0 -245 -132 -403.5t-337 -158.5t-337 158.5t-132 403.5q0 162 59.5 291t167 200.5t242.5 71.5q198 0 328 -148q71 14 98 67.5t27 156.5zM566 69q110 0 195 63.5t129 170t44 236.5t-44.5 237t-129 170.5t-194.5 63.5
t-195 -63.5t-129.5 -170.5t-44.5 -237t44.5 -236.5t129.5 -170t195 -63.5z" />
    <glyph glyph-name="uni01A2" unicode="&#x1a2;" horiz-adv-x="1581" 
d="M1085 1326l208 122h104v-1855h-112v1744l-158 -92v-1066q-62 -93 -176 -146t-251 -53q-169 0 -302.5 84.5t-208.5 239t-75 352.5v120q0 309 164 500.5t430 191.5q111 0 210 -37t167 -105zM1016 209v1031q-48 61 -131 95.5t-179 34.5q-217 0 -347.5 -162.5t-130.5 -431.5
v-120q1 -261 133 -420t346 -159q95 0 179 35.5t130 96.5z" />
    <glyph glyph-name="uni01A3" unicode="&#x1a3;" horiz-adv-x="1094" 
d="M778 985l172 101h103v-1493h-112v1358l-163 -102v-758q-123 -112 -287 -112q-136 0 -239 71.5t-156.5 193t-53.5 272.5v19q0 253 121 410t331 157q162 0 284 -107v-10zM665 124v834q-74 49 -174 49q-161 0 -248.5 -130.5t-87.5 -341.5v-19q0 -200 93 -321t246 -121
q97 0 171 50z" />
    <glyph glyph-name="uni01A4" unicode="&#x1a4;" horiz-adv-x="1395" 
d="M839 1448q209 0 329 -123t120 -317q0 -193 -120.5 -316t-328.5 -123h-350v-569h-104v1353h-54q-79 0 -110 -44.5t-31 -135.5v-39h-99v72q0 111 62 176.5t175 65.5h511zM489 665h347q164 0 256.5 95t92.5 248q0 154 -93 249.5t-257 95.5h-346v-688z" />
    <glyph glyph-name="uni01A5" unicode="&#x1a5;" horiz-adv-x="1151" 
d="M610 1102q197 0 318 -156.5t121 -405.5t-120.5 -406t-316.5 -157q-131 0 -218.5 71t-126.5 178h-10v-633h-101v1493h-4q0 125 56 183.5t168 58.5q50 0 82 -6v-88q-28 4 -63 4q-76 0 -110 -34t-34 -118h4v-231h12q42 108 126.5 177.5t216.5 69.5zM600 70q160 0 254 133
t94 339q0 134 -40.5 238.5t-120 166.5t-187.5 62q-160 0 -252 -129.5t-92 -337.5t92.5 -340t251.5 -132z" />
    <glyph glyph-name="uni01A6" unicode="&#x1a6;" horiz-adv-x="1330" 
d="M702 635l532 -984v-8h-124l-520 972h-386v-615h-117v1547h117v-98h330q209 0 330.5 -112t121.5 -307q0 -143 -76 -247.5t-208 -147.5zM204 712h359q134 0 221 88.5t87 228.5q-1 147 -90 234.5t-247 87.5h-330v-639z" />
    <glyph glyph-name="uni01A7" unicode="&#x1a7;" horiz-adv-x="1204" 
d="M238 1085h-102q8 169 134.5 277t322.5 108q198 0 328.5 -109.5t130.5 -278.5q0 -259 -353 -366l-169 -50q-158 -47 -235 -112.5t-77 -173.5q0 -137 108 -222t279 -85q160 0 263.5 76t113.5 207h106q-12 -171 -141.5 -275.5t-341.5 -104.5q-221 0 -355 114t-134 290
q0 79 29.5 142t85 108t120 75.5t149.5 55.5l156 46q294 86 294 279q0 126 -99.5 207.5t-255.5 81.5q-151 0 -248 -79.5t-109 -210.5z" />
    <glyph glyph-name="uni01A8" unicode="&#x1a8;" horiz-adv-x="970" 
d="M212 830h-101q20 123 114.5 197t243.5 75q162 1 263.5 -83.5t101.5 -217.5q0 -105 -69 -178t-201 -104l-167 -40q-196 -49 -196 -198q0 -97 78.5 -154.5t209.5 -57.5q119 0 190 50.5t88 147.5h106q-21 -139 -121 -214.5t-264 -75.5q-178 0 -284 86t-106 224
q0 107 66.5 179t196.5 103l167 41q205 51 205 195q0 91 -74 149.5t-190 57.5q-105 -1 -171.5 -49t-85.5 -133z" />
    <glyph glyph-name="uni01A9" unicode="&#x1a9;" horiz-adv-x="1170" 
d="M744 687l-506 -588h852v-99h-1006v86l536 611l-536 651v88h965v-99h-815l510 -629v-21z" />
    <glyph glyph-name="uni01AA" unicode="&#x1aa;" horiz-adv-x="932" 
d="M789 -310q34 0 64 8v-93q-33 -12 -86 -12q-217 0 -217 289v1111q-82 -62 -179 -62q-121 0 -206.5 85.5t-84.5 206.5q0 121 85 206t206 85t205.5 -84t86.5 -205v-2v-3v-1338q0 -102 30.5 -147t95.5 -45zM371 1036q79 1 132.5 53.5t52.5 134.5t-54 135t-131 53t-132 -53
t-54 -135q0 -83 54 -136t132 -52z" />
    <glyph glyph-name="uni01AB" unicode="&#x1ab;" horiz-adv-x="688" 
d="M527 81l75 18v-241q0 -125 -63 -194.5t-169 -69.5q-54 0 -83 11v86q28 -7 62 -7q154 0 154 174v124h-7q-110 0 -190 71t-80 193v752h-161v88h161v260h101v-260h227v-88h-227v-732q0 -94 50.5 -140t126.5 -46q15 0 23 1z" />
    <glyph glyph-name="uni01AC" unicode="&#x1ac;" horiz-adv-x="1243" 
d="M1153 1448v-95h-461v-1353h-104v1353h-258q-76 0 -109.5 -43.5t-33.5 -130.5v-38h-96v66q0 113 62.5 177t174.5 64h825z" />
    <glyph glyph-name="uni01AD" unicode="&#x1ad;" horiz-adv-x="510" 
d="M440 78q20 0 78 11v-95q-44 -14 -101 -14q-105 0 -167 70.5t-62 205.5v726h-171v89h171v198q0 121 62 183t171 62q41 0 83 -8v-84q-32 6 -63 6q-73 0 -106.5 -36.5t-33.5 -122.5v-198h210v-89h-210v-725q0 -89 36.5 -134t102.5 -45z" />
    <glyph glyph-name="uni01AE" unicode="&#x1ae;" horiz-adv-x="1209" 
d="M1119 1353h-462v-1495q0 -169 158 -169h48v-95h-69q-108 0 -175 69t-67 194v143h1v1353h-462v95h1028v-95z" />
    <glyph glyph-name="Uhorn" unicode="&#x1af;" horiz-adv-x="1628" 
d="M1440 1548h97q1 -157 -63.5 -241.5t-209.5 -107.5v-709q0 -223 -151.5 -368.5t-388.5 -145.5q-236 0 -388 145.5t-151 368.5v958h104v-952q0 -183 121.5 -302t313.5 -119t313.5 119t121.5 302v952h105v-161q98 21 136.5 81.5t39.5 179.5z" />
    <glyph glyph-name="uhorn" unicode="&#x1b0;" horiz-adv-x="1106" 
d="M1076 1128h91q0 -139 -51 -209t-170 -80v-839h-100v178h-9q-39 -87 -124.5 -139.5t-199.5 -52.5q-162 0 -262 104t-100 283v713h101v-707q0 -132 79.5 -214t206.5 -82t217.5 85.5t90.5 226.5v691h100v-170q77 9 103.5 56.5t26.5 155.5z" />
    <glyph glyph-name="uni01B1" unicode="&#x1b1;" horiz-adv-x="1459" 
d="M115 697q0 442 363 645v11h-363v95h483v-125q-171 -84 -275.5 -242t-105.5 -382q0 -172 64.5 -314t183 -224t266.5 -82t265.5 82.5t182 223.5t64.5 314q1 222 -105 381.5t-276 242.5v125h482v-95h-362v-11q362 -199 362 -645q0 -206 -78.5 -370t-218.5 -255.5t-316 -91.5
t-317 92t-220 256t-79 369z" />
    <glyph glyph-name="uni01B2" unicode="&#x1b2;" horiz-adv-x="1177" 
d="M584 -21q-220 0 -353 125t-133 356v988h115v-988q0 -187 99 -285.5t272 -98.5q177 0 278.5 99t101.5 285v723q0 98 -38.5 141.5t-122.5 43.5q-38 0 -74 -10v95q48 15 101 15q118 0 184.5 -73.5t66.5 -211.5v-723q0 -152 -65.5 -262.5t-177 -164.5t-254.5 -54z" />
    <glyph glyph-name="uni01B3" unicode="&#x1b3;" horiz-adv-x="1276" 
d="M597 755l392 599q36 57 90.5 86t109.5 27t99 -31l-38 -80q-41 25 -91 11.5t-86 -67.5l-428 -653v-647h-105v647l-522 801h122l447 -693h10z" />
    <glyph glyph-name="uni01B4" unicode="&#x1b4;" horiz-adv-x="1120" 
d="M231 -407q-67 0 -122 24l28 89q98 -38 168.5 -2t113.5 155l47 127l-399 1100h109l337 -957h8l327 929q48 136 108 202.5t158 66.5q74 0 129 -38l-20 -78q-52 24 -101 24q-62 0 -99 -44.5t-77 -158.5l-438 -1212q-81 -227 -277 -227z" />
    <glyph glyph-name="uni01B5" unicode="&#x1b5;" horiz-adv-x="1185" 
d="M631 693l-386 -598h826v-95h-951v82l394 611h-203v83h257l372 577h-820v95h944v-82l-380 -590h203v-83h-256z" />
    <glyph glyph-name="uni01B6" unicode="&#x1b6;" horiz-adv-x="1003" 
d="M256 103v-8h651v-95h-787v82l295 420h-202v83h260l281 399v7h-602v95h731v-85l-291 -416h197v-83h-254z" />
    <glyph glyph-name="uni01B7" unicode="&#x1b7;" horiz-adv-x="1333" 
d="M609 767v-9q270 -12 439 -179.5t169 -422.5q0 -120 -39.5 -226t-111 -186t-179 -126.5t-235.5 -46.5q-153 0 -279.5 62.5t-202.5 176.5t-79 258h106q4 -174 135.5 -287.5t320.5 -113.5q203 0 332 138t129 350q0 224 -155 366.5t-400 148.5h-84v92l556 590h-861v96h1004
v-78z" />
    <glyph glyph-name="uni01B8" unicode="&#x1b8;" horiz-adv-x="1333" 
d="M1136 68h106q-3 -144 -79 -258t-202.5 -176.5t-279.5 -62.5q-128 0 -235.5 46.5t-179 126.5t-111 186t-39.5 226q0 255 169.5 422.5t439.5 179.5v9l-566 603v78h1004v-96h-860l556 -590v-92h-85q-246 -6 -400.5 -148t-154.5 -367q0 -212 129 -350t332 -138q125 0 228 51
t164 143t64 207z" />
    <glyph glyph-name="uni01B9" unicode="&#x1b9;" horiz-adv-x="1184" 
d="M950 1h107q-5 -170 -135.5 -276t-321.5 -106q-205 0 -332.5 121t-127.5 303q0 184 132 300.5t344 126.5v7l-431 532v78h807v-96h-661v-7l414 -511v-88h-53q-219 0 -334 -95t-115 -247q0 -144 97.5 -236.5t257.5 -92.5q148 0 248 79.5t104 207.5z" />
    <glyph glyph-name="uni01BA" unicode="&#x1ba;" horiz-adv-x="980" 
d="M98 1088l827 -2v-80l-463 -406q168 -10 253.5 -71t85.5 -170q0 -111 -84.5 -173t-278.5 -109q-146 -35 -204.5 -87.5t-58.5 -134.5q0 -94 67 -142.5t193 -48.5t208.5 64t91.5 184h111q-9 -149 -118.5 -246t-288.5 -97q-176 0 -276 77t-100 213q0 120 85 195.5t267 117.5
q159 38 216 77t57 112q0 76 -68.5 111t-222.5 35h-95v81l463 404h-665z" />
    <glyph glyph-name="uni01BB" unicode="&#x1bb;" horiz-adv-x="1209" 
d="M692 538l-392 -435v-8h768v-95h-918l-1 78l485 537q61 69 70 79h-189v82h258q73 93 103.5 162t31.5 144q-1 128 -92 210t-228 82q-142 0 -231 -87.5t-89 -220.5h-100q-1 173 119 287.5t304 114.5q179 0 297 -110t119 -276q-1 -79 -26.5 -149.5t-87.5 -156.5h197v-82h-261
q-65 -79 -137 -156z" />
    <glyph glyph-name="uni01BC" unicode="&#x1bc;" horiz-adv-x="1107" 
d="M561 929q128 0 234 -59t168 -168.5t62 -246.5q-1 -206 -133.5 -340.5t-337.5 -134.5q-186 0 -307.5 108t-124.5 275h103q3 -126 95 -207t234 -81q162 0 266 108t103 270q-1 167 -108.5 272.5t-267.5 106.5q-96 1 -171 -33t-119 -102l-109 -1l85 657h-191v95h924v-95h-633
l-69 -533h10q46 52 123.5 80.5t163.5 28.5z" />
    <glyph glyph-name="uni01BD" unicode="&#x1bd;" horiz-adv-x="888" 
d="M847 351q1 -168 -98.5 -268t-285.5 -100q-96 0 -177 35t-132 105.5t-51 163.5l109 14q-3 -100 66.5 -161t184.5 -61q131 0 202.5 72t71.5 195q0 121 -67 193t-184 73q-79 1 -140.5 -34t-93.5 -91l-99 9l50 457h-161v99h763v-99h-495l-36 -331q37 36 99.5 59.5t127.5 24.5
q157 3 251 -93.5t95 -261.5z" />
    <glyph glyph-name="uni01BE" unicode="&#x1be;" horiz-adv-x="997" 
d="M535 955v-173q0 -57 20 -100.5t52.5 -71.5t71 -51.5t77.5 -47.5t71.5 -52t52.5 -72t20 -101q0 -136 -109.5 -220.5t-285.5 -84.5q-93 0 -171 29t-128 77t-77.5 110t-27.5 130h112q2 -112 84 -181.5t209 -69.5t205 56.5t78 146.5q0 44 -20 78t-52.5 58t-71.5 47t-78 50
t-71.5 60.5t-52.5 87t-20 120.5v175h-217v90h217v255h112v-255h220v-90h-220z" />
    <glyph glyph-name="uni01BF" unicode="&#x1bf;" horiz-adv-x="1136" 
d="M570 1102q191 0 300 -137t109 -368v-45q0 -138 -44.5 -246t-138.5 -192.5t-226.5 -148t-320.5 -119.5v-251h-113v1491h102l10 -158q120 174 322 174zM866 550v49q0 184 -84.5 295t-237.5 111q-179 0 -295 -180v-884q319 96 468 237t149 372z" />
    <glyph glyph-name="uni01C0" unicode="&#x1c0;" horiz-adv-x="400" 
d="M154 1462h94v-1462h-94v1462z" />
    <glyph glyph-name="uni01C1" unicode="&#x1c1;" horiz-adv-x="633" 
d="M88 1462h93v-1462h-93v1462zM353 1462h93v-1462h-93v1462z" />
    <glyph glyph-name="uni01C2" unicode="&#x1c2;" horiz-adv-x="445" 
d="M269 524h242v-83h-242v-441h-93v441h-241v83h241v416h-242v83h242v439h93v-439h240v-83h-240v-416z" />
    <glyph glyph-name="uni01C3" unicode="&#x1c3;" horiz-adv-x="497" 
d="M193 1448h111l-6 -1027h-99zM249 -10q-35 0 -60.5 25t-24.5 60q-1 35 24.5 60t60.5 25t60 -25t25 -60t-25 -60t-60 -25z" />
    <glyph glyph-name="uni01C5" unicode="&#x1c5;" horiz-adv-x="2391" 
d="M2175 1506l-248 -278h-74l-248 278v8h101l184 -209l183 209h102v-8zM623 1448q307 0 480 -191t172 -529q-1 -345 -179 -536.5t-501 -191.5h-410v1448h438zM289 95h301q283 0 433.5 166.5t149.5 466.5q-1 295 -144.5 460t-410.5 165h-329v-1258zM1645 103v-8h651v-95h-788
v82l635 902v7h-602v95h730v-85z" />
    <glyph glyph-name="uni01C6" unicode="&#x1c6;" horiz-adv-x="2040" 
d="M1253 1514h101l184 -209l184 209h101v-8l-247 -278h-75l-248 278v8zM534 -23q-196 0 -316.5 156.5t-120.5 406.5q0 249 121 405.5t317 156.5q132 0 218 -70t126 -177h9v593h101v-1448h-99v226h-11q-43 -108 -128.5 -178.5t-216.5 -70.5zM1944 0h-787v82l634 902v7h-602
v95h731v-85l-627 -898v-8h651v-95zM545 70q159 0 252 132t93 340q0 207 -93 337t-252 130q-108 0 -187.5 -62t-119.5 -166.5t-40 -238.5q0 -206 93 -339t254 -133z" />
    <glyph glyph-name="uni01C7" unicode="&#x1c7;" horiz-adv-x="2101" 
d="M990 0h-805v1448h104v-1353h701v-95zM1811 397v1051h105v-1051q-1 -207 -105 -312t-274 -105q-164 0 -271.5 90t-106.5 233h103q-1 -99 78 -163t197 -64q124 0 198.5 78.5t75.5 242.5z" />
    <glyph glyph-name="uni01C8" unicode="&#x1c8;" horiz-adv-x="1500" 
d="M990 0h-805v1448h104v-1353h701v-95zM1291 1276q-32 0 -55.5 22t-23.5 53t23.5 53.5t55.5 22.5t54.5 -22.5t22.5 -53.5t-22.5 -53t-54.5 -22zM1240 -123v1209h102v-1209q0 -130 -76 -207t-202 -77h-25v94h23q80 0 129 51t49 139z" />
    <glyph glyph-name="uni01C9" unicode="&#x1c9;" horiz-adv-x="875" 
d="M156 1448h101v-1448h-101v1448zM665 1276q-32 0 -55 22t-23 53t23 53.5t55 22.5t55.5 -22.5t23.5 -53.5t-23.5 -53t-55.5 -22zM616 -123v1209h100v-1209q0 -130 -76 -207t-202 -77h-24v94h24q79 0 128.5 51t49.5 139z" />
    <glyph glyph-name="uni01CA" unicode="&#x1ca;" horiz-adv-x="2501" 
d="M1196 1448h102v-1448h-100l-900 1260h-9v-1260h-104v1448h101l901 -1261h9v1261zM2212 397v1051h105v-1051q-1 -207 -105 -312t-274 -105q-164 0 -271.5 90t-106.5 233h103q-1 -99 78 -163t197 -64q124 0 198.5 78.5t75.5 242.5z" />
    <glyph glyph-name="uni01CB" unicode="&#x1cb;" horiz-adv-x="1921" 
d="M1196 1448h102v-1448h-100l-900 1260h-9v-1260h-104v1448h101l901 -1261h9v1261zM1711 1276q-32 0 -55 22t-23 53t23 53.5t55 22.5t55.5 -22.5t23.5 -53.5t-23.5 -53t-55.5 -22zM1662 -123v1209h101v-1209q0 -130 -76 -207t-202 -77h-25v94h24q79 0 128.5 51t49.5 139z
" />
    <glyph glyph-name="uni01CC" unicode="&#x1cc;" horiz-adv-x="1527" 
d="M1318 1276q-32 0 -55 22t-23 53t23 53.5t55 22.5t55 -22.5t23 -53.5t-23 -53t-55 -22zM257 696v-696h-101v1086h98v-172h9q39 86 123 136t199 50q167 0 268 -103.5t101 -283.5v-713h-100v707q0 136 -80 218.5t-211 82.5q-135 0 -220.5 -86t-85.5 -226zM1268 -123v1209
h101v-1209q0 -130 -76 -207t-202 -77h-25v94h24q80 0 129 51t49 139z" />
    <glyph glyph-name="uni01CD" unicode="&#x1cd;" horiz-adv-x="1243" 
d="M907 1868l-249 -278h-74l-247 278v7h101l184 -207l183 207h102v-7zM1204 0h-110l-161 453h-623l-161 -453h-109l522 1448h118zM617 1315l-273 -767h555l-273 767h-9z" />
    <glyph glyph-name="uni01CE" unicode="&#x1ce;" horiz-adv-x="1060" 
d="M822 1506l-248 -278h-74l-248 278v7h102l183 -208l184 208h101v-7zM524 1102q57 0 110.5 -12t102.5 -39t85.5 -66.5t58 -99.5t21.5 -133v-752h-101v189h-7q-44 -93 -133.5 -153t-212.5 -60q-149 0 -248.5 87t-99.5 238q0 143 100.5 224.5t292.5 96.5q42 3 165 11.5
t143 10.5v116q0 116 -75 183.5t-206 67.5q-112 0 -189 -48.5t-98 -132.5h-104q18 123 127.5 197.5t267.5 74.5zM460 69q150 0 245.5 103.5t95.5 260.5v124l-290 -22q-310 -22 -310 -239q0 -104 72.5 -165.5t186.5 -61.5z" />
    <glyph glyph-name="uni01CF" unicode="&#x1cf;" horiz-adv-x="473" 
d="M-48 1875h101l184 -207l184 207h101v-7l-248 -278h-75l-247 278v7zM185 1448h104v-1448h-104v1448z" />
    <glyph glyph-name="uni01D0" unicode="&#x1d0;" horiz-adv-x="417" 
d="M-75 1513h101l184 -208l184 208h101v-7l-248 -278h-74l-248 278v7zM260 0h-102v1086h102v-1086z" />
    <glyph glyph-name="uni01D1" unicode="&#x1d1;" horiz-adv-x="1462" 
d="M446 1875h101l184 -207l184 207h101v-7l-248 -278h-74l-248 278v7zM1349 724q0 -335 -172 -539.5t-446 -204.5t-445.5 205t-171.5 539q0 335 171.5 539.5t445.5 204.5t446 -204.5t172 -539.5zM1247 724q-1 294 -144.5 469.5t-371.5 175.5t-371.5 -175t-143.5 -470
q0 -294 143 -469.5t372 -175.5q228 0 372.5 175.5t143.5 469.5z" />
    <glyph glyph-name="uni01D2" unicode="&#x1d2;" horiz-adv-x="1131" 
d="M281 1513h102l183 -208l184 208h101v-7l-248 -278h-74l-248 278v7zM566 -23q-205 0 -337 158.5t-132 403.5q0 162 59.5 291t167 200.5t242.5 71.5q204 0 336.5 -158.5t132.5 -404.5q0 -245 -132 -403.5t-337 -158.5zM566 69q110 0 195 63.5t129 170t44 236.5t-44.5 237
t-129 170.5t-194.5 63.5t-195 -63.5t-129.5 -170.5t-44.5 -237t44.5 -236.5t129.5 -170t195 -63.5z" />
    <glyph glyph-name="uni01D3" unicode="&#x1d3;" horiz-adv-x="1448" 
d="M439 1875h101l184 -207l184 207h101v-7l-248 -278h-74l-248 278v7zM1159 496v952h105v-958q0 -223 -151.5 -368.5t-388.5 -145.5q-236 0 -388 145.5t-151 368.5v958h104v-952q0 -183 121.5 -302t313.5 -119t313.5 119t121.5 302z" />
    <glyph glyph-name="uni01D4" unicode="&#x1d4;" horiz-adv-x="1106" 
d="M269 1513h101l184 -208l184 208h101v-7l-249 -278h-74l-247 278v7zM850 395v691h100v-1086h-100v178h-8q-39 -87 -124.5 -139.5t-199.5 -52.5q-162 0 -262 103.5t-100 283.5v713h101v-707q0 -132 79.5 -214t205.5 -82q128 0 218 85.5t90 226.5z" />
    <glyph glyph-name="uni01D5" unicode="&#x1d5;" horiz-adv-x="1448" 
d="M455 2070h544v-88h-544v88zM566 1639q-31 0 -53.5 22.5t-22.5 52.5q0 31 22.5 53t53.5 22q32 0 53.5 -21.5t21.5 -53.5q0 -30 -22 -52.5t-53 -22.5zM897 1639q-30 0 -53 22.5t-23 52.5q0 31 23 53t53 22q31 0 53 -21.5t22 -53.5q0 -30 -22 -52.5t-53 -22.5zM1159 496v952
h105v-958q0 -223 -151.5 -368.5t-388.5 -145.5q-236 0 -388 145.5t-151 368.5v958h104v-952q0 -183 121.5 -302t313.5 -119t313.5 119t121.5 302z" />
    <glyph glyph-name="uni01D6" unicode="&#x1d6;" horiz-adv-x="1106" 
d="M284 1707h545v-88h-545v88zM395 1276q-30 0 -52.5 22.5t-22.5 52.5q0 31 22.5 53.5t52.5 22.5q32 0 54 -22t22 -54q0 -30 -22 -52.5t-54 -22.5zM727 1276q-31 0 -53.5 22.5t-22.5 52.5q0 31 22.5 53.5t53.5 22.5t53 -22t22 -54q0 -30 -22 -52.5t-53 -22.5zM850 395v691
h100v-1086h-100v178h-8q-39 -87 -124.5 -139.5t-199.5 -52.5q-162 0 -262 103.5t-100 283.5v713h101v-707q0 -132 79.5 -214t205.5 -82q128 0 218 85.5t90 226.5z" />
    <glyph glyph-name="uni01D7" unicode="&#x1d7;" horiz-adv-x="1448" 
d="M769 1832h-95l184 197h123zM563 1573q-30 0 -52.5 23t-22.5 53q0 31 22.5 53.5t52.5 22.5q32 0 54 -22t22 -54q0 -31 -22 -53.5t-54 -22.5zM895 1573q-30 0 -53 23t-23 53q0 31 23 53.5t53 22.5q31 0 53 -22t22 -54q0 -30 -22 -53t-53 -23zM1159 496v952h105v-958
q0 -223 -151.5 -368.5t-388.5 -145.5q-236 0 -388 145.5t-151 368.5v958h104v-952q0 -183 121.5 -302t313.5 -119t313.5 119t121.5 302z" />
    <glyph glyph-name="uni01D8" unicode="&#x1d8;" horiz-adv-x="1106" 
d="M595 1522h-90l186 315h119zM388 1276q-30 0 -52.5 22.5t-22.5 52.5q0 31 22.5 53.5t52.5 22.5q32 0 54 -22t22 -54q0 -30 -22 -52.5t-54 -22.5zM720 1276q-31 0 -53.5 22.5t-22.5 52.5q0 31 22.5 53.5t53.5 22.5t53 -22t22 -54q0 -30 -22 -52.5t-53 -22.5zM850 395v691
h100v-1086h-100v178h-8q-39 -87 -124.5 -139.5t-199.5 -52.5q-162 0 -262 103.5t-100 283.5v713h101v-707q0 -132 79.5 -214t205.5 -82q128 0 218 85.5t90 226.5z" />
    <glyph glyph-name="uni01D9" unicode="&#x1d9;" horiz-adv-x="1448" 
d="M437 2031h103l181 -161l181 161h105v-11l-256 -226h-59l-255 226v11zM451 1697q-11 19 -5 40.5t28 31.5q54 23 75 -22q11 -19 5 -40.5t-29 -31.5q-52 -20 -74 22zM897 1696q-11 19 -5 41t30 31q23 10 43.5 4.5t30.5 -25.5q12 -18 6 -40.5t-29 -31.5q-53 -22 -76 21z
M1159 496v952h105v-958q0 -223 -151.5 -368.5t-388.5 -145.5q-236 0 -388 145.5t-151 368.5v958h104v-952q0 -183 121.5 -302t313.5 -119t313.5 119t121.5 302z" />
    <glyph glyph-name="uni01DA" unicode="&#x1da;" horiz-adv-x="1106" 
d="M269 1777h103l182 -194l181 194h105v-8l-257 -268h-59l-255 268v8zM265 1341q0 30 20.5 51t53.5 21q34 0 55 -20.5t21 -51.5t-21 -51.5t-55 -20.5q-33 0 -53.5 20.5t-20.5 51.5zM697 1339q0 31 20.5 52.5t54.5 21.5t54.5 -21.5t20.5 -52.5q0 -29 -20.5 -50t-54.5 -21
t-54.5 20.5t-20.5 50.5zM850 395v691h100v-1086h-100v178h-8q-39 -87 -124.5 -139.5t-199.5 -52.5q-162 0 -262 103.5t-100 283.5v713h101v-707q0 -132 79.5 -214t205.5 -82q128 0 218 85.5t90 226.5z" />
    <glyph glyph-name="uni01DB" unicode="&#x1db;" horiz-adv-x="1448" 
d="M540 1943h110l125 -204h-81zM475 1698q0 31 20.5 52t53.5 21q34 0 54.5 -21t20.5 -53q0 -30 -20.5 -50t-53.5 -20q-34 0 -54.5 20.5t-20.5 50.5zM827 1697q0 31 20.5 52t54.5 21q33 0 54 -21t21 -52q0 -30 -20.5 -51t-54.5 -21t-54.5 20.5t-20.5 51.5zM1159 496v952h105
v-958q0 -223 -151.5 -368.5t-388.5 -145.5q-236 0 -388 145.5t-151 368.5v958h104v-952q0 -183 121.5 -302t313.5 -119t313.5 119t121.5 302z" />
    <glyph glyph-name="uni01DC" unicode="&#x1dc;" horiz-adv-x="1106" 
d="M307 1685h136l177 -259h-99zM313 1341q0 30 20.5 51t54.5 21t54.5 -20.5t20.5 -51.5t-20.5 -51.5t-54.5 -20.5q-33 0 -54 20.5t-21 51.5zM649 1339q0 31 21 52.5t55 21.5t55 -21.5t21 -52.5q0 -29 -21 -50t-55 -21t-55 21t-21 50zM850 395v691h100v-1086h-100v178h-8
q-39 -87 -124.5 -139.5t-199.5 -52.5q-162 0 -262 103.5t-100 283.5v713h101v-707q0 -132 79.5 -214t205.5 -82q128 0 218 85.5t90 226.5z" />
    <glyph glyph-name="uni01DD" unicode="&#x1dd;" horiz-adv-x="1116" 
d="M532 1109q221 0 354.5 -157t133.5 -404q0 -161 -59.5 -289.5t-166.5 -201.5t-242 -73q-91 0 -173 36t-145 101.5t-100 166.5t-37 223v58h822q-3 199 -107 323.5t-280 124.5q-114 0 -190 -51t-111 -117h-109q37 108 146.5 184t263.5 76zM551 76q151 0 254 116t113 287
h-719q0 -170 100.5 -286.5t251.5 -116.5z" />
    <glyph glyph-name="uni01DE" unicode="&#x1de;" horiz-adv-x="1243" 
d="M352 2070h545v-88h-545v88zM388 1714q0 31 22 53t53 22t53 -21.5t22 -53.5q0 -30 -22 -52.5t-53 -22.5t-53 22.5t-22 52.5zM718 1714q0 31 23 53t53 22q32 0 54 -22t22 -53q0 -30 -22.5 -52.5t-53.5 -22.5q-30 0 -53 22.5t-23 52.5zM1204 0h-110l-161 453h-623l-161 -453
h-109l522 1448h118zM617 1315l-273 -767h555l-273 767h-9z" />
    <glyph glyph-name="uni01DF" unicode="&#x1df;" horiz-adv-x="1060" 
d="M268 1707h545v-88h-545v88zM303 1351q0 31 23 53.5t53 22.5q32 0 54 -22t22 -54q0 -30 -22 -52.5t-54 -22.5q-30 0 -53 22.5t-23 52.5zM635 1351q0 31 22.5 53.5t53.5 22.5t53 -22t22 -54q0 -30 -22 -52.5t-53 -22.5t-53.5 22.5t-22.5 52.5zM524 1102q57 0 110.5 -12
t102.5 -39t85.5 -66.5t58 -99.5t21.5 -133v-752h-101v189h-7q-44 -93 -133.5 -153t-212.5 -60q-149 0 -248.5 87t-99.5 238q0 143 100.5 224.5t292.5 96.5q42 3 165 11.5t143 10.5v116q0 116 -75 183.5t-206 67.5q-112 0 -189 -48.5t-98 -132.5h-104q18 123 127.5 197.5
t267.5 74.5zM460 69q150 0 245.5 103.5t95.5 260.5v124l-290 -22q-310 -22 -310 -239q0 -104 72.5 -165.5t186.5 -61.5z" />
    <glyph glyph-name="uni01E0" unicode="&#x1e0;" horiz-adv-x="1243" 
d="M351 2070h545v-88h-545v88zM543 1714q0 31 23.5 53t55.5 22t54.5 -22t22.5 -53t-22.5 -53t-54.5 -22t-55.5 22t-23.5 53zM1204 0h-110l-161 453h-623l-161 -453h-109l522 1448h118zM617 1315l-273 -767h555l-273 767h-9z" />
    <glyph glyph-name="uni01E1" unicode="&#x1e1;" horiz-adv-x="1060" 
d="M272 1719h544v-88h-544v88zM464 1363q0 31 23 53.5t55 22.5t54.5 -22.5t22.5 -53.5t-22.5 -53t-54.5 -22t-55 22t-23 53zM524 1102q57 0 110.5 -12t102.5 -39t85.5 -66.5t58 -99.5t21.5 -133v-752h-101v189h-7q-44 -93 -133.5 -153t-212.5 -60q-149 0 -248.5 87
t-99.5 238q0 143 100.5 224.5t292.5 96.5q42 3 165 11.5t143 10.5v116q0 116 -75 183.5t-206 67.5q-112 0 -189 -48.5t-98 -132.5h-104q18 123 127.5 197.5t267.5 74.5zM460 69q150 0 245.5 103.5t95.5 260.5v124l-290 -22q-310 -22 -310 -239q0 -104 72.5 -165.5
t186.5 -61.5z" />
    <glyph glyph-name="uni01E2" unicode="&#x1e2;" horiz-adv-x="1899" 
d="M960 1756h544v-88h-544v88zM1051 677v-582h730v-95h-835v453h-568l-224 -453h-114l720 1448h1004v-95h-713v-581h670v-95h-670zM821 1352l-397 -804h522v804h-125z" />
    <glyph glyph-name="uni01E3" unicode="&#x1e3;" horiz-adv-x="1811" 
d="M624 1394h545v-88h-545v88zM1714 575v-57h-821q3 -199 107.5 -324t279.5 -125q117 0 195 54t113 130l94 -34q-42 -100 -146.5 -171t-254.5 -71q-152 0 -264.5 77t-163.5 208h-4q-43 -136 -154 -211t-247 -75q-149 0 -248.5 87t-99.5 238q0 139 96.5 203.5t296.5 80.5
q42 3 165 11.5t143 10.5v153q0 116 -75 183.5t-206 67.5q-112 0 -189 -48.5t-98 -132.5h-104q18 123 127.5 197.5t267.5 74.5q128 0 226 -60t131 -176q59 111 157 173.5t221 62.5q91 0 173 -36t145 -101.5t100 -166.5t37 -223zM894 607h719q0 170 -101.5 286.5t-252.5 116.5
q-150 0 -252.5 -116t-112.5 -287zM460 69q150 0 245.5 103.5t95.5 260.5v86q-241 -18 -290 -22q-169 -12 -239.5 -57.5t-70.5 -142.5q0 -105 72.5 -166.5t186.5 -61.5z" />
    <glyph glyph-name="uni01E4" unicode="&#x1e4;" horiz-adv-x="1436" 
d="M1292 417h121v-87h-147q-64 -166 -203.5 -258t-325.5 -92q-282 0 -452.5 203.5t-170.5 540.5q0 336 170 540t444 204q118 0 220 -40t173 -107t117.5 -150.5t62.5 -174.5h-107q-18 74 -56.5 139.5t-96 118.5t-139 84t-174.5 31q-227 0 -369.5 -175t-142.5 -470t143.5 -470
t377.5 -175q141 0 249.5 65.5t166.5 185.5h-391v87h424q21 76 23 175h-447v95h549v-94q0 -97 -19 -176z" />
    <glyph glyph-name="uni01E5" unicode="&#x1e5;" horiz-adv-x="1147" 
d="M989 588h239v-83h-239v-530q0 -199 -117 -302t-317 -103q-169 0 -283.5 70t-137.5 201h106q21 -88 106 -134t209 -46q160 0 247 79.5t87 238.5v261h-10q-38 -103 -126.5 -168t-218.5 -65q-195 0 -316 147.5t-121 392.5q0 247 120.5 401t317.5 154q132 0 217.5 -69.5
t127.5 -177.5h10v231h99v-498zM545 100q152 0 243 108t101 297h-237v83h236q-10 188 -101 304.5t-242 116.5q-161 0 -254 -130.5t-93 -333.5q0 -201 92.5 -323t254.5 -122z" />
    <glyph glyph-name="Gcaron" unicode="&#x1e6;" horiz-adv-x="1436" 
d="M1009 1868l-248 -278h-74l-248 278v7h101l184 -207l184 207h101v-7zM762 592v95h549v-94q0 -281 -160 -447t-414 -166q-282 0 -452.5 203.5t-170.5 540.5q0 336 170 540t444 204q118 0 220 -40t173 -107t117.5 -150.5t62.5 -174.5h-107q-18 74 -56.5 139.5t-96 118.5
t-139 84t-174.5 31q-227 0 -369.5 -175t-142.5 -470t143.5 -470t377.5 -175q209 0 339.5 138t132.5 375h-447z" />
    <glyph glyph-name="gcaron" unicode="&#x1e7;" horiz-adv-x="1147" 
d="M289 1513h101l184 -208l183 208h102v-7l-249 -278h-74l-247 278v7zM555 -430q-169 0 -283.5 70t-137.5 201h106q21 -88 106 -134t209 -46q160 0 247 79.5t87 238.5v261h-10q-38 -103 -126.5 -168t-218.5 -65q-195 0 -316 147.5t-121 392.5q0 247 120.5 401t317.5 154
q132 0 217.5 -69.5t127.5 -177.5h10v231h99v-1111q0 -199 -117 -302t-317 -103zM545 100q160 0 252.5 119t92.5 326q0 205 -92.5 334.5t-252.5 129.5q-161 0 -254 -130.5t-93 -333.5q0 -201 92.5 -323t254.5 -122z" />
    <glyph glyph-name="uni01E8" unicode="&#x1e8;" horiz-adv-x="1222" 
d="M332 1875h102l183 -207l184 207h101v-7l-248 -278h-74l-248 278v7zM289 0h-104v1448h104v-821h11l743 821h138l-624 -680l619 -768h-129l-557 694l-201 -224v-470z" />
    <glyph glyph-name="uni01E9" unicode="&#x1e9;" horiz-adv-x="982" 
d="M491 1868l-248 -278h-74l-247 278v7h101l183 -207l184 207h101v-7zM952 0h-129l-437 554l-129 -125v-429h-101v1448h101v-891h11l530 529h130l-467 -466z" />
    <glyph glyph-name="uni01EA" unicode="&#x1ea;" horiz-adv-x="1462" 
d="M796 -17q-70 -64 -106.5 -117.5t-36.5 -109.5q0 -97 101 -97q52 0 100 31l20 -75q-65 -44 -139 -44q-82 0 -132 45.5t-51 128.5q0 127 138 237q-258 16 -417 218.5t-159 523.5q0 335 171.5 539.5t445.5 204.5t446 -204.5t172 -539.5q0 -314 -152.5 -515t-400.5 -226z
M216 724q0 -294 143 -469.5t372 -175.5q228 0 372.5 175.5t143.5 469.5t-144.5 469.5t-371.5 175.5t-371.5 -175t-143.5 -470z" />
    <glyph glyph-name="uni01EB" unicode="&#x1eb;" horiz-adv-x="1131" 
d="M627 -18q-67 -62 -102.5 -115t-35.5 -109q0 -97 101 -97q52 0 100 31l20 -75q-65 -44 -139 -44q-82 0 -132 46t-51 129q0 125 133 231q-188 19 -306 174t-118 386q0 162 59.5 291t167 200.5t242.5 71.5q204 0 336.5 -158.5t132.5 -404.5q0 -226 -113.5 -379.5
t-294.5 -177.5zM197 539q0 -130 44.5 -236.5t129.5 -170t195 -63.5t195 63.5t129 170t44 236.5t-44.5 237t-129 170.5t-194.5 63.5t-195 -63.5t-129.5 -170.5t-44.5 -237z" />
    <glyph glyph-name="uni01EC" unicode="&#x1ec;" horiz-adv-x="1462" 
d="M460 1756h544v-88h-544v88zM796 -17q-70 -64 -106.5 -117.5t-36.5 -109.5q0 -97 101 -97q52 0 100 31l20 -75q-65 -44 -139 -44q-82 0 -132 45.5t-51 128.5q0 127 138 237q-258 16 -417 218.5t-159 523.5q0 335 171.5 539.5t445.5 204.5t446 -204.5t172 -539.5
q0 -314 -152.5 -515t-400.5 -226zM216 724q0 -294 143 -469.5t372 -175.5q228 0 372.5 175.5t143.5 469.5t-144.5 469.5t-371.5 175.5t-371.5 -175t-143.5 -470z" />
    <glyph glyph-name="uni01ED" unicode="&#x1ed;" horiz-adv-x="1131" 
d="M294 1394h545v-88h-545v88zM627 -18q-67 -62 -102.5 -115t-35.5 -109q0 -97 101 -97q52 0 100 31l20 -75q-65 -44 -139 -44q-82 0 -132 46t-51 129q0 125 133 231q-188 19 -306 174t-118 386q0 162 59.5 291t167 200.5t242.5 71.5q204 0 336.5 -158.5t132.5 -404.5
q0 -226 -113.5 -379.5t-294.5 -177.5zM197 539q0 -130 44.5 -236.5t129.5 -170t195 -63.5t195 63.5t129 170t44 236.5t-44.5 237t-129 170.5t-194.5 63.5t-195 -63.5t-129.5 -170.5t-44.5 -237z" />
    <glyph glyph-name="uni01EE" unicode="&#x1ee;" horiz-adv-x="1333" 
d="M951 1868l-248 -278h-74l-248 278v7h101l184 -207l184 207h101v-7zM609 767v-9q270 -12 439 -179.5t169 -422.5q0 -120 -39.5 -226t-111 -186t-179 -126.5t-235.5 -46.5q-153 0 -279.5 62.5t-202.5 176.5t-79 258h106q4 -174 135.5 -287.5t320.5 -113.5q203 0 332 138
t129 350q0 224 -155 366.5t-400 148.5h-84v92l556 590h-861v96h1004v-78z" />
    <glyph glyph-name="uni01EF" unicode="&#x1ef;" horiz-adv-x="1229" 
d="M306 1513h101l183 -208l184 208h101v-7l-248 -278h-74l-247 278v7zM150 1h105q5 -128 108 -207.5t257 -79.5q165 0 266.5 92t100.5 236q1 152 -118 247t-346 95h-53v88l427 511v8h-681v95h827v-78l-442 -531v-9q217 -9 353 -125t136 -301q0 -182 -130.5 -303t-340.5 -121
q-196 0 -330 106.5t-139 276.5z" />
    <glyph glyph-name="uni01F0" unicode="&#x1f0;" horiz-adv-x="417" 
d="M-76 1513h101l184 -208l183 208h102v-7l-249 -278h-74l-247 278v7zM158 -123v1209h102v-1209q0 -130 -76 -207t-202 -77h-25v94h23q80 0 129 51t49 139z" />
    <glyph glyph-name="uni01F1" unicode="&#x1f1;" horiz-adv-x="2574" 
d="M623 1448q307 0 480 -191t172 -529q-1 -345 -179 -536.5t-501 -191.5h-410v1448h438zM2453 1366l-819 -1271h826v-95h-951v82l820 1271h-820v95h944v-82zM289 95h301q283 0 433.5 166.5t149.5 466.5q-1 295 -144.5 460t-410.5 165h-329v-1258z" />
    <glyph glyph-name="uni01F2" unicode="&#x1f2;" horiz-adv-x="2391" 
d="M623 1448q307 0 480 -191t172 -529q-1 -345 -179 -536.5t-501 -191.5h-410v1448h438zM289 95h301q283 0 433.5 166.5t149.5 466.5q-1 295 -144.5 460t-410.5 165h-329v-1258zM1645 103v-8h651v-95h-788v82l635 902v7h-602v95h730v-85z" />
    <glyph glyph-name="uni01F3" unicode="&#x1f3;" horiz-adv-x="2040" 
d="M534 -23q-196 0 -316.5 156.5t-120.5 406.5q0 249 121 405.5t317 156.5q132 0 218 -70t126 -177h9v593h101v-1448h-99v226h-11q-43 -108 -128.5 -178.5t-216.5 -70.5zM1944 0h-787v82l634 902v7h-602v95h731v-85l-627 -898v-8h651v-95zM545 70q159 0 252 132t93 340
q0 207 -93 337t-252 130q-108 0 -187.5 -62t-119.5 -166.5t-40 -238.5q0 -206 93 -339t254 -133z" />
    <glyph glyph-name="uni01F4" unicode="&#x1f4;" horiz-adv-x="1436" 
d="M863 1917h119l-214 -315h-91zM762 592v95h549v-94q0 -281 -160 -447t-414 -166q-282 0 -452.5 203.5t-170.5 540.5q0 336 170 540t444 204q118 0 220 -40t173 -107t117.5 -150.5t62.5 -174.5h-107q-18 74 -56.5 139.5t-96 118.5t-139 84t-174.5 31q-227 0 -369.5 -175
t-142.5 -470t143.5 -470t377.5 -175q209 0 339.5 138t132.5 375h-447z" />
    <glyph glyph-name="uni01F5" unicode="&#x1f5;" horiz-adv-x="1147" 
d="M617 1240h-90l186 315h119zM555 -430q-169 0 -283.5 70t-137.5 201h106q21 -88 106 -134t209 -46q160 0 247 79.5t87 238.5v261h-10q-38 -103 -126.5 -168t-218.5 -65q-195 0 -316 147.5t-121 392.5q0 247 120.5 401t317.5 154q132 0 217.5 -69.5t127.5 -177.5h10v231h99
v-1111q0 -199 -117 -302t-317 -103zM545 100q160 0 252.5 119t92.5 326q0 205 -92.5 334.5t-252.5 129.5q-161 0 -254 -130.5t-93 -333.5q0 -201 92.5 -323t254.5 -122z" />
    <glyph glyph-name="uni01F6" unicode="&#x1f6;" horiz-adv-x="2173" 
d="M1586 -21q-204 0 -323.5 117.5t-119.5 346.5v234h-854v-677h-104v1448h104v-676h854v676h104v-1005q0 -184 87.5 -275t251.5 -92q163 -1 245.5 90t82.5 277v659h104v-659q0 -234 -116.5 -349t-315.5 -115z" />
    <glyph glyph-name="uni01F7" unicode="&#x1f7;" horiz-adv-x="1048" 
d="M465 1468q254 0 388.5 -153t134.5 -462v-31q0 -364 -219 -619.5t-594 -340.5v-269h-116v1855h116v-46q121 66 290 66zM872 820v36q0 265 -101.5 389.5t-304.5 124.5q-192 0 -291 -131v-1279q340 89 518.5 318t178.5 542z" />
    <glyph glyph-name="uni01F8" unicode="&#x1f8;" horiz-adv-x="1482" 
d="M789 1602h-90l-215 315h119zM1196 1448h102v-1448h-100l-900 1260h-9v-1260h-104v1448h101l901 -1261h9v1261z" />
    <glyph glyph-name="uni01F9" unicode="&#x1f9;" horiz-adv-x="1109" 
d="M604 1240h-91l-214 315h119zM257 696v-696h-101v1086h98v-172h9q39 86 123 136t199 50q167 0 268 -103.5t101 -283.5v-713h-100v707q0 136 -80 218.5t-211 82.5q-135 0 -220.5 -86t-85.5 -226z" />
    <glyph glyph-name="Aringacute" unicode="&#x1fa;" horiz-adv-x="1243" 
d="M701 2084h110l-149 -153h-87zM620 1532q-75 0 -127.5 50t-52.5 121t52.5 121.5t127.5 50.5t128 -50.5t53 -121.5t-53 -121t-128 -50zM620 1808q-46 0 -77.5 -30.5t-31.5 -74.5t31.5 -74.5t77.5 -30.5q47 0 79 30.5t32 74.5t-32 74.5t-79 30.5zM1204 0h-110l-161 453h-623
l-161 -453h-109l522 1448h118zM617 1315l-273 -767h555l-273 767h-9z" />
    <glyph glyph-name="aringacute" unicode="&#x1fb;" horiz-adv-x="1060" 
d="M617 1722h110l-149 -153h-87zM536 1170q-75 0 -127.5 50t-52.5 121t52.5 121.5t127.5 50.5t128 -50.5t53 -121.5t-53 -121t-128 -50zM536 1445q-46 0 -78 -30t-32 -74t32 -74.5t78 -30.5t78 30.5t32 74.5t-31.5 74t-78.5 30zM524 1102q57 0 110.5 -12t102.5 -39
t85.5 -66.5t58 -99.5t21.5 -133v-752h-101v189h-7q-44 -93 -133.5 -153t-212.5 -60q-149 0 -248.5 87t-99.5 238q0 143 100.5 224.5t292.5 96.5q42 3 165 11.5t143 10.5v116q0 116 -75 183.5t-206 67.5q-112 0 -189 -48.5t-98 -132.5h-104q18 123 127.5 197.5t267.5 74.5z
M460 69q150 0 245.5 103.5t95.5 260.5v124l-290 -22q-310 -22 -310 -239q0 -104 72.5 -165.5t186.5 -61.5z" />
    <glyph glyph-name="AEacute" unicode="&#x1fc;" horiz-adv-x="1899" 
d="M1371 1917h118l-214 -315h-90zM1051 677v-582h730v-95h-835v453h-568l-224 -453h-114l720 1448h1004v-95h-713v-581h670v-95h-670zM821 1352l-397 -804h522v804h-125z" />
    <glyph glyph-name="aeacute" unicode="&#x1fd;" horiz-adv-x="1811" 
d="M1035 1555h119l-214 -315h-91zM1714 575v-57h-821q3 -199 107.5 -324t279.5 -125q117 0 195 54t113 130l94 -34q-42 -100 -146.5 -171t-254.5 -71q-152 0 -264.5 77t-163.5 208h-4q-43 -136 -154 -211t-247 -75q-149 0 -248.5 87t-99.5 238q0 139 96.5 203.5t296.5 80.5
q42 3 165 11.5t143 10.5v153q0 116 -75 183.5t-206 67.5q-112 0 -189 -48.5t-98 -132.5h-104q18 123 127.5 197.5t267.5 74.5q128 0 226 -60t131 -176q59 111 157 173.5t221 62.5q91 0 173 -36t145 -101.5t100 -166.5t37 -223zM894 607h719q0 170 -101.5 286.5t-252.5 116.5
q-150 0 -252.5 -116t-112.5 -287zM460 69q150 0 245.5 103.5t95.5 260.5v86q-241 -18 -290 -22q-169 -12 -239.5 -57.5t-70.5 -142.5q0 -105 72.5 -166.5t186.5 -61.5z" />
    <glyph glyph-name="Oslashacute" unicode="&#x1fe;" horiz-adv-x="1462" 
d="M871 1917h118l-214 -315h-90zM1259 1445l-104 -157q93 -99 143.5 -243t50.5 -321q0 -335 -172 -539.5t-446 -204.5q-210 0 -363 124l-99 -149l-68 46l106 160q-93 100 -143 243.5t-50 319.5q0 335 171.5 539.5t445.5 204.5q207 0 362 -122l98 146zM216 724
q0 -298 149 -476l672 1013q-130 108 -306 108q-228 0 -371.5 -175t-143.5 -470zM731 79q228 0 372.5 175.5t143.5 469.5q-1 300 -150 477l-673 -1013q129 -109 307 -109z" />
    <glyph glyph-name="oslashacute" unicode="&#x1ff;" horiz-adv-x="1131" 
d="M705 1557h119l-214 -316h-91zM977 1078l-82 -123q140 -159 140 -414q0 -246 -132 -404t-337 -158q-152 0 -268 91l-75 -112l-70 46l83 124q-139 158 -139 413q0 246 132 404.5t337 158.5q151 0 267 -91l75 111zM197 541q0 -196 96 -328l486 720q-92 78 -213 78
q-110 0 -195 -63.5t-129.5 -170t-44.5 -236.5zM566 71q110 0 195 63t129 169.5t44 237.5q0 196 -97 329l-485 -720q92 -79 214 -79z" />
    <glyph glyph-name="uni0200" unicode="&#x200;" horiz-adv-x="1243" 
d="M373 1917l193 -315h-91l-227 315h125zM644 1917l142 -315h-91l-177 315h126zM1204 0h-110l-161 453h-623l-161 -453h-109l522 1448h118zM617 1315l-273 -767h555l-273 767h-9z" />
    <glyph glyph-name="uni0201" unicode="&#x201;" horiz-adv-x="1060" 
d="M289 1555l193 -315h-91l-227 315h125zM559 1555l143 -315h-91l-177 315h125zM524 1102q57 0 110.5 -12t102.5 -39t85.5 -66.5t58 -99.5t21.5 -133v-752h-101v189h-7q-44 -93 -133.5 -153t-212.5 -60q-149 0 -248.5 87t-99.5 238q0 143 100.5 224.5t292.5 96.5
q42 3 165 11.5t143 10.5v116q0 116 -75 183.5t-206 67.5q-112 0 -189 -48.5t-98 -132.5h-104q18 123 127.5 197.5t267.5 74.5zM460 69q150 0 245.5 103.5t95.5 260.5v124l-290 -22q-310 -22 -310 -239q0 -104 72.5 -165.5t186.5 -61.5z" />
    <glyph glyph-name="uni0202" unicode="&#x202;" horiz-adv-x="1243" 
d="M624 1798q-62 0 -93.5 -34.5t-31.5 -92.5h-94q0 93 59 149.5t160 56.5q100 0 158.5 -56.5t58.5 -149.5h-94q0 59 -31 93t-92 34zM1204 0h-110l-161 453h-623l-161 -453h-109l522 1448h118zM617 1315l-273 -767h555l-273 767h-9z" />
    <glyph glyph-name="uni0203" unicode="&#x203;" horiz-adv-x="1060" 
d="M540 1436q-62 0 -93 -34.5t-31 -92.5h-95q0 93 59 149.5t160 56.5q100 0 158.5 -56.5t58.5 -149.5h-94q0 59 -31 93t-92 34zM524 1102q57 0 110.5 -12t102.5 -39t85.5 -66.5t58 -99.5t21.5 -133v-752h-101v189h-7q-44 -93 -133.5 -153t-212.5 -60q-149 0 -248.5 87
t-99.5 238q0 143 100.5 224.5t292.5 96.5q42 3 165 11.5t143 10.5v116q0 116 -75 183.5t-206 67.5q-112 0 -189 -48.5t-98 -132.5h-104q18 123 127.5 197.5t267.5 74.5zM460 69q150 0 245.5 103.5t95.5 260.5v124l-290 -22q-310 -22 -310 -239q0 -104 72.5 -165.5
t186.5 -61.5z" />
    <glyph glyph-name="uni0204" unicode="&#x204;" horiz-adv-x="1137" 
d="M540 1602h-92l-227 315h125zM759 1602h-91l-177 315h126zM1018 0h-833v1448h818v-95h-714v-581h670v-95h-670v-582h729v-95z" />
    <glyph glyph-name="uni0205" unicode="&#x205;" horiz-adv-x="1115" 
d="M310 1555l194 -315h-92l-227 315h125zM581 1555l142 -315h-91l-177 315h126zM1020 575v-57h-823q3 -199 107.5 -324t279.5 -125q114 0 190 51t111 117h109q-37 -108 -146.5 -184t-263.5 -76q-220 0 -353.5 157t-133.5 404q0 245 131.5 404.5t335.5 159.5q92 0 174 -36
t145 -101.5t100 -166.5t37 -223zM198 607h719q0 170 -100.5 286.5t-251.5 116.5q-150 0 -253.5 -116t-113.5 -287z" />
    <glyph glyph-name="uni0206" unicode="&#x206;" horiz-adv-x="1137" 
d="M473 1671h-95q0 93 59.5 149.5t160.5 56.5q100 0 158.5 -56.5t58.5 -149.5h-94q0 59 -31 93t-92 34q-62 0 -93.5 -34.5t-31.5 -92.5zM1018 0h-833v1448h818v-95h-714v-581h670v-95h-670v-582h729v-95z" />
    <glyph glyph-name="uni0207" unicode="&#x207;" horiz-adv-x="1115" 
d="M562 1436q-62 0 -93.5 -34.5t-31.5 -92.5h-95q0 93 59.5 149.5t160.5 56.5q100 0 158.5 -56.5t58.5 -149.5h-94q0 59 -31 93t-92 34zM1020 575v-57h-823q3 -199 107.5 -324t279.5 -125q114 0 190 51t111 117h109q-37 -108 -146.5 -184t-263.5 -76q-220 0 -353.5 157
t-133.5 404q0 245 131.5 404.5t335.5 159.5q92 0 174 -36t145 -101.5t100 -166.5t37 -223zM198 607h719q0 170 -100.5 286.5t-251.5 116.5q-150 0 -253.5 -116t-113.5 -287z" />
    <glyph glyph-name="uni0208" unicode="&#x208;" horiz-adv-x="473" 
d="M182 1602h-91l-227 315h124zM401 1602h-91l-176 315h125zM185 1448h104v-1448h-104v1448z" />
    <glyph glyph-name="uni0209" unicode="&#x209;" horiz-adv-x="417" 
d="M154 1240h-91l-227 315h124zM373 1240h-90l-177 315h125zM260 0h-102v1086h102v-1086z" />
    <glyph glyph-name="uni020A" unicode="&#x20a;" horiz-adv-x="473" 
d="M115 1671h-95q0 93 59 149.5t160 56.5q100 0 158.5 -56.5t58.5 -149.5h-94q0 59 -31 93t-92 34q-62 0 -93 -34.5t-31 -92.5zM185 1448h104v-1448h-104v1448z" />
    <glyph glyph-name="uni020B" unicode="&#x20b;" horiz-adv-x="417" 
d="M88 1309h-95q0 93 59 149.5t160 56.5q100 0 158.5 -56.5t58.5 -149.5h-94q0 59 -31 93t-92 34q-62 0 -93 -34.5t-31 -92.5zM260 0h-102v1086h102v-1086z" />
    <glyph glyph-name="uni020C" unicode="&#x20c;" horiz-adv-x="1462" 
d="M676 1602h-91l-227 315h124zM895 1602h-90l-177 315h125zM1349 724q0 -335 -172 -539.5t-446 -204.5t-445.5 205t-171.5 539q0 335 171.5 539.5t445.5 204.5t446 -204.5t172 -539.5zM1247 724q-1 294 -144.5 469.5t-371.5 175.5t-371.5 -175t-143.5 -470
q0 -294 143 -469.5t372 -175.5q228 0 372.5 175.5t143.5 469.5z" />
    <glyph glyph-name="uni020D" unicode="&#x20d;" horiz-adv-x="1131" 
d="M511 1240h-92l-227 315h125zM730 1240h-91l-177 315h126zM566 -23q-205 0 -337 158.5t-132 403.5q0 162 59.5 291t167 200.5t242.5 71.5q204 0 336.5 -158.5t132.5 -404.5q0 -245 -132 -403.5t-337 -158.5zM566 69q110 0 195 63.5t129 170t44 236.5t-44.5 237t-129 170.5
t-194.5 63.5t-195 -63.5t-129.5 -170.5t-44.5 -237t44.5 -236.5t129.5 -170t195 -63.5z" />
    <glyph glyph-name="uni020E" unicode="&#x20e;" horiz-adv-x="1462" 
d="M610 1671h-95q0 93 59 149.5t160 56.5q100 0 158.5 -56.5t58.5 -149.5h-94q0 59 -31 93t-92 34q-62 0 -93 -34.5t-31 -92.5zM1349 724q0 -335 -172 -539.5t-446 -204.5t-445.5 205t-171.5 539q0 335 171.5 539.5t445.5 204.5t446 -204.5t172 -539.5zM1247 724
q-1 294 -144.5 469.5t-371.5 175.5t-371.5 -175t-143.5 -470q0 -294 143 -469.5t372 -175.5q228 0 372.5 175.5t143.5 469.5z" />
    <glyph glyph-name="uni020F" unicode="&#x20f;" horiz-adv-x="1131" 
d="M444 1309h-95q0 93 59.5 149.5t160.5 56.5q100 0 158.5 -56.5t58.5 -149.5h-94q0 59 -31 93t-92 34q-62 0 -93.5 -34.5t-31.5 -92.5zM566 -23q-205 0 -337 158.5t-132 403.5q0 162 59.5 291t167 200.5t242.5 71.5q204 0 336.5 -158.5t132.5 -404.5q0 -245 -132 -403.5
t-337 -158.5zM566 69q110 0 195 63.5t129 170t44 236.5t-44.5 237t-129 170.5t-194.5 63.5t-195 -63.5t-129.5 -170.5t-44.5 -237t44.5 -236.5t129.5 -170t195 -63.5z" />
    <glyph glyph-name="uni0210" unicode="&#x210;" horiz-adv-x="1208" 
d="M349 1917l194 -315h-91l-227 315h124zM620 1917l142 -315h-90l-177 315h125zM813 623l338 -623h-120l-325 602q-42 -4 -66 -4h-351v-598h-104v1448h454q210 0 329.5 -117.5t119.5 -309.5q0 -147 -71.5 -251.5t-203.5 -146.5zM289 694h347q165 0 257 88t92 239
q0 152 -92 242t-258 90h-346v-659z" />
    <glyph glyph-name="uni0211" unicode="&#x211;" horiz-adv-x="652" 
d="M339 1240h-91l-227 315h125zM559 1240h-91l-177 315h126zM257 0h-101v1086h98v-169h8q35 84 118 134.5t188 50.5q21 0 51 -2v-101q-55 5 -57 5q-133 0 -219 -83t-86 -211v-710z" />
    <glyph glyph-name="uni0212" unicode="&#x212;" horiz-adv-x="1208" 
d="M601 1798q-62 0 -93 -34.5t-31 -92.5h-95q0 93 59 149.5t160 56.5q100 0 158.5 -56.5t58.5 -149.5h-94q0 59 -31 93t-92 34zM813 623l338 -623h-120l-325 602q-42 -4 -66 -4h-351v-598h-104v1448h454q210 0 329.5 -117.5t119.5 -309.5q0 -147 -71.5 -251.5t-203.5 -146.5
zM289 694h347q165 0 257 88t92 239q0 152 -92 242t-258 90h-346v-659z" />
    <glyph glyph-name="uni0213" unicode="&#x213;" horiz-adv-x="652" 
d="M273 1309h-95q0 93 59 149.5t160 56.5q100 0 159 -56.5t59 -149.5h-95q0 59 -31 93t-92 34q-62 0 -93 -34.5t-31 -92.5zM257 0h-101v1086h98v-169h8q35 84 118 134.5t188 50.5q21 0 51 -2v-101q-55 5 -57 5q-133 0 -219 -83t-86 -211v-710z" />
    <glyph glyph-name="uni0214" unicode="&#x214;" horiz-adv-x="1448" 
d="M669 1602h-91l-227 315h124zM888 1602h-90l-177 315h125zM1159 496v952h105v-958q0 -223 -151.5 -368.5t-388.5 -145.5q-236 0 -388 145.5t-151 368.5v958h104v-952q0 -183 121.5 -302t313.5 -119t313.5 119t121.5 302z" />
    <glyph glyph-name="uni0215" unicode="&#x215;" horiz-adv-x="1106" 
d="M499 1240h-92l-227 315h125zM718 1240h-91l-177 315h126zM850 395v691h100v-1086h-100v178h-8q-39 -87 -124.5 -139.5t-199.5 -52.5q-162 0 -262 103.5t-100 283.5v713h101v-707q0 -132 79.5 -214t205.5 -82q128 0 218 85.5t90 226.5z" />
    <glyph glyph-name="uni0216" unicode="&#x216;" horiz-adv-x="1448" 
d="M603 1671h-95q0 93 59 149.5t160 56.5q100 0 158.5 -56.5t58.5 -149.5h-94q0 59 -31 93t-92 34q-62 0 -93 -34.5t-31 -92.5zM1159 496v952h105v-958q0 -223 -151.5 -368.5t-388.5 -145.5q-236 0 -388 145.5t-151 368.5v958h104v-952q0 -183 121.5 -302t313.5 -119
t313.5 119t121.5 302z" />
    <glyph glyph-name="uni0217" unicode="&#x217;" horiz-adv-x="1106" 
d="M431 1309h-94q0 93 59 149.5t160 56.5q100 0 158.5 -56.5t58.5 -149.5h-94q0 59 -31 93t-92 34q-62 0 -93.5 -34.5t-31.5 -92.5zM850 395v691h100v-1086h-100v178h-8q-39 -87 -124.5 -139.5t-199.5 -52.5q-162 0 -262 103.5t-100 283.5v713h101v-707q0 -132 79.5 -214
t205.5 -82q128 0 218 85.5t90 226.5z" />
    <glyph glyph-name="uni0218" unicode="&#x218;" horiz-adv-x="1204" 
d="M1069 1085h-102q-11 131 -108.5 210.5t-248.5 79.5q-156 0 -255.5 -81.5t-99.5 -207.5q0 -194 293 -279l156 -46q84 -25 148.5 -55.5t120.5 -75.5t85.5 -108t29.5 -142q0 -177 -133 -290.5t-355 -113.5q-212 0 -342 104.5t-142 275.5h106q10 -131 114 -207t264 -76
q171 0 279 85t108 222q0 107 -77 173t-235 113l-170 50q-353 107 -353 366q0 169 131 278.5t329 109.5q196 0 322.5 -108t134.5 -277zM542 -505h-80l89 366h104z" />
    <glyph glyph-name="uni0219" unicode="&#x219;" horiz-adv-x="970" 
d="M860 830h-101q-19 85 -85.5 133t-171.5 49q-116 1 -190 -57.5t-74 -149.5q0 -144 205 -195l167 -41q130 -31 196.5 -103t66.5 -179q0 -138 -106 -224t-284 -86q-164 0 -264 75.5t-121 214.5h106q17 -97 88 -147.5t190 -50.5q131 0 209.5 57.5t78.5 154.5q0 149 -196 198
l-167 40q-132 31 -201 104t-69 178q0 133 101.5 217.5t263.5 83.5q149 -1 243.5 -75t114.5 -197zM434 -481h-80l89 366h104z" />
    <glyph glyph-name="uni021A" unicode="&#x21a;" horiz-adv-x="1209" 
d="M553 1353h-462v95h1028v-95h-462v-1353h-104v1353zM543 -481h-80l89 366h104z" />
    <glyph glyph-name="uni021B" unicode="&#x21b;" horiz-adv-x="668" 
d="M504 80q15 0 78 3v-96q-50 -5 -86 -5q-110 0 -190 71t-80 193v752h-161v88h161v260h101v-260h227v-88h-227v-732q0 -94 50.5 -140t126.5 -46zM336 -481h-80l88 366h104z" />
    <glyph glyph-name="uni021C" unicode="&#x21c;" horiz-adv-x="1173" 
d="M1067 313q0 -119 -35.5 -214.5t-102.5 -170.5t-177 -138.5t-245 -113.5t-320 -100v97q210 58 348.5 116.5t234.5 134.5t138 171.5t42 222.5q0 237 -136 327q-232 -199 -627 -298v91q231 68 395.5 160.5t255.5 213t91 257.5q-1 138 -93.5 219.5t-247.5 81.5
q-162 0 -264 -82t-101 -207h-116q1 171 135.5 279t345.5 108q202 0 329 -107t127 -285q0 -196 -162 -367q184 -116 185 -396z" />
    <glyph glyph-name="uni021D" unicode="&#x21d;" horiz-adv-x="996" 
d="M883 153q1 -256 -172.5 -399t-530.5 -178v94q308 39 449.5 156t141.5 331q0 182 -97 274q-188 -153 -494 -198v89q259 45 415.5 169.5t155.5 292.5q-2 104 -65 163.5t-178 59.5q-122 0 -201.5 -66.5t-78.5 -176.5h-111q1 154 110.5 246t283.5 92q163 0 257.5 -86
t94.5 -230q0 -159 -122 -292q141 -111 142 -341z" />
    <glyph glyph-name="uni021E" unicode="&#x21e;" horiz-adv-x="1432" 
d="M434 1877h101l183 -208l184 208h101v-8l-248 -278h-74l-247 278v8zM289 0h-104v1448h104v-676h854v676h104v-1448h-104v677h-854v-677z" />
    <glyph glyph-name="uni021F" unicode="&#x21f;" horiz-adv-x="1114" 
d="M-78 1875h101l183 -207l184 207h101v-7l-248 -278h-74l-247 278v7zM257 696v-696h-101v1448h101v-534h9q39 87 122 136.5t200 49.5q168 0 269.5 -103.5t101.5 -283.5v-713h-100v707q0 137 -80.5 219t-212.5 82q-136 0 -222.5 -86t-86.5 -226z" />
    <glyph glyph-name="uni0220" unicode="&#x220;" horiz-adv-x="1091" 
d="M518 1468q111 0 199 -29.5t154.5 -90t102.5 -161t36 -235.5v-1358h-113v1359q0 226 -94.5 322t-289.5 96q-182 0 -315 -79v-1292h-111v1448h111v-56q137 76 320 76z" />
    <glyph glyph-name="uni0221" unicode="&#x221;" horiz-adv-x="1394" 
d="M1165 71q112 0 186 -67t74 -170q0 -102 -74.5 -169t-190.5 -67q-100 0 -168 51.5t-93 133.5l-143 -162l-69 62l133 156q35 49 66 83v214h3v90h-11q-43 -108 -128.5 -178.5t-216.5 -70.5q-196 0 -317 156.5t-121 406.5q0 249 121 405.5t317 156.5q132 0 218 -70t127 -177
h9v593h100v-1435q86 58 178 58zM543 70q159 0 252 132t93 340q0 207 -92.5 337t-252.5 130q-161 0 -253.5 -131t-92.5 -336q0 -206 92.5 -339t253.5 -133zM1160 -313q69 0 116 42.5t47 104.5q0 61 -44.5 102.5t-112.5 43.5q-93 6 -179 -86v-33q0 -77 49.5 -125.5
t123.5 -48.5z" />
    <glyph glyph-name="uni0222" unicode="&#x222;" horiz-adv-x="1144" 
d="M854 784q118 -48 181 -143.5t63 -232.5q0 -210 -138 -319t-379 -109h-17q-241 0 -379 109t-138 318q0 139 62 234t180 143q-231 84 -231 333q0 154 85 243.5t225 107.5v-95q-195 -45 -195 -256q0 -150 98.5 -215t282.5 -65h36q183 0 282 65.5t99 214.5q0 111 -55 176.5
t-155 85.5v94q146 -16 235.5 -107t89.5 -249q0 -248 -232 -333zM563 80h18q195 0 298 81.5t103 246.5q0 162 -101 245t-295 83h-29q-195 0 -295 -82.5t-100 -246.5t103 -245.5t298 -81.5z" />
    <glyph glyph-name="uni0223" unicode="&#x223;" horiz-adv-x="1173" 
d="M881 784q118 -47 181.5 -141t63.5 -231q0 -208 -138.5 -320t-377.5 -112h-46q-239 0 -377.5 111.5t-138.5 318.5q0 137 63.5 232t180.5 142q-240 92 -240 352q0 161 83 257.5t225 114.5v-91q-196 -56 -196 -281q0 -154 101 -229t281 -75h82q179 0 280.5 75.5t101.5 228.5
q0 234 -212 287v90q148 -15 236 -114t88 -263q0 -131 -63 -219.5t-178 -132.5zM563 75h47q191 0 297 86.5t106 250.5q0 160 -103 242.5t-294 82.5h-59q-192 0 -294 -82.5t-102 -244.5q0 -163 105.5 -249t296.5 -86z" />
    <glyph glyph-name="uni0224" unicode="&#x224;" horiz-adv-x="1160" 
d="M924 1353h-820v95h945v-82l-821 -1271h599q111 0 173.5 -63.5t62.5 -173.5v-55h-96v27q0 84 -33 127t-109 43h-720v82z" />
    <glyph glyph-name="uni0225" unicode="&#x225;" horiz-adv-x="1001" 
d="M947 -202h-93v27q0 87 -33 131t-112 44h-589v88l633 903h-613v95h740v-84l-632 -907h463q111 0 173.5 -64.5t62.5 -172.5v-60z" />
    <glyph glyph-name="uni0226" unicode="&#x226;" horiz-adv-x="1243" 
d="M622 1639q-32 0 -55.5 22t-23.5 53t23.5 53t55.5 22t54.5 -22t22.5 -53t-22.5 -53t-54.5 -22zM1204 0h-110l-161 453h-623l-161 -453h-109l522 1448h118zM617 1315l-273 -767h555l-273 767h-9z" />
    <glyph glyph-name="uni0227" unicode="&#x227;" horiz-adv-x="1060" 
d="M537 1276q-32 0 -55 22t-23 53t23 53.5t55 22.5t55 -22.5t23 -53.5t-23 -53t-55 -22zM524 1102q57 0 110.5 -12t102.5 -39t85.5 -66.5t58 -99.5t21.5 -133v-752h-101v189h-7q-44 -93 -133.5 -153t-212.5 -60q-149 0 -248.5 87t-99.5 238q0 143 100.5 224.5t292.5 96.5
q42 3 165 11.5t143 10.5v116q0 116 -75 183.5t-206 67.5q-112 0 -189 -48.5t-98 -132.5h-104q18 123 127.5 197.5t267.5 74.5zM460 69q150 0 245.5 103.5t95.5 260.5v124l-290 -22q-310 -22 -310 -239q0 -104 72.5 -165.5t186.5 -61.5z" />
    <glyph glyph-name="uni0228" unicode="&#x228;" horiz-adv-x="1137" 
d="M1018 95v-95h-405l-10 -51q68 -10 107.5 -52t40.5 -113q-1 -83 -62 -128.5t-177 -47.5l-3 74q150 3 150 99q0 55 -37.5 81t-117.5 28l22 110h-341v1448h818v-95h-714v-581h670v-95h-670v-582h729z" />
    <glyph glyph-name="uni0229" unicode="&#x229;" horiz-adv-x="1115" 
d="M1020 575v-57h-823q3 -199 107.5 -324t279.5 -125q114 0 190 51t111 117h109q-36 -106 -141 -181t-254 -79l-6 -28q68 -10 107.5 -52t40.5 -113q-1 -83 -62 -128.5t-177 -47.5l-3 74q150 3 150 99q0 55 -37.5 81t-117.5 28l19 92q-191 26 -303.5 178t-112.5 378
q0 245 131.5 404.5t335.5 159.5q92 0 174 -36t145 -101.5t100 -166.5t37 -223zM198 607h719q0 170 -100.5 286.5t-251.5 116.5q-150 0 -253.5 -116t-113.5 -287z" />
    <glyph glyph-name="uni022A" unicode="&#x22a;" horiz-adv-x="1462" 
d="M462 2070h544v-88h-544v88zM573 1639q-31 0 -53.5 22.5t-22.5 52.5q0 31 22.5 53t53.5 22t53 -21.5t22 -53.5q0 -30 -22 -52.5t-53 -22.5zM904 1639q-30 0 -53 22.5t-23 52.5q0 31 23 53t53 22q32 0 53.5 -21.5t21.5 -53.5q0 -30 -22 -52.5t-53 -22.5zM1349 724
q0 -335 -172 -539.5t-446 -204.5t-445.5 205t-171.5 539q0 335 171.5 539.5t445.5 204.5t446 -204.5t172 -539.5zM1247 724q-1 294 -144.5 469.5t-371.5 175.5t-371.5 -175t-143.5 -470q0 -294 143 -469.5t372 -175.5q228 0 372.5 175.5t143.5 469.5z" />
    <glyph glyph-name="uni022B" unicode="&#x22b;" horiz-adv-x="1131" 
d="M297 1707h545v-88h-545v88zM408 1276q-30 0 -53 22.5t-23 52.5q0 31 23 53.5t53 22.5q32 0 54 -22t22 -54q0 -30 -22 -52.5t-54 -22.5zM740 1276q-31 0 -53.5 22.5t-22.5 52.5q0 31 22.5 53.5t53.5 22.5t53 -22t22 -54q0 -30 -22 -52.5t-53 -22.5zM566 -23
q-205 0 -337 158.5t-132 403.5q0 162 59.5 291t167 200.5t242.5 71.5q204 0 336.5 -158.5t132.5 -404.5q0 -245 -132 -403.5t-337 -158.5zM566 69q110 0 195 63.5t129 170t44 236.5t-44.5 237t-129 170.5t-194.5 63.5t-195 -63.5t-129.5 -170.5t-44.5 -237t44.5 -236.5
t129.5 -170t195 -63.5z" />
    <glyph glyph-name="uni022C" unicode="&#x22c;" horiz-adv-x="1462" 
d="M455 1979h546v-90h-546v90zM919 1791l60 -14q-5 -64 -44 -108.5t-98 -45.5q-33 0 -63 14t-49 31t-45 31t-52 14q-32 0 -54.5 -27.5t-27.5 -65.5l-61 13q5 64 45 109.5t99 45.5q40 0 75 -22t67.5 -43.5t64.5 -21.5t55 26t28 64zM1349 724q0 -335 -172 -539.5t-446 -204.5
t-445.5 205t-171.5 539q0 335 171.5 539.5t445.5 204.5t446 -204.5t172 -539.5zM1247 724q-1 294 -144.5 469.5t-371.5 175.5t-371.5 -175t-143.5 -470q0 -294 143 -469.5t372 -175.5q228 0 372.5 175.5t143.5 469.5z" />
    <glyph glyph-name="uni022D" unicode="&#x22d;" horiz-adv-x="1131" 
d="M293 1660h545v-90h-545v90zM774 1470l80 -8q-4 -85 -51 -137t-119 -53q-37 0 -70.5 16.5t-54 36t-50 36t-59.5 16.5q-40 0 -65 -30.5t-29 -78.5l-80 6q4 86 51 139t121 53q35 0 67.5 -16.5t53 -36t50 -36t58.5 -16.5q40 1 66 31t31 78zM566 -23q-205 0 -337 158.5
t-132 403.5q0 162 59.5 291t167 200.5t242.5 71.5q204 0 336.5 -158.5t132.5 -404.5q0 -245 -132 -403.5t-337 -158.5zM566 69q110 0 195 63.5t129 170t44 236.5t-44.5 237t-129 170.5t-194.5 63.5t-195 -63.5t-129.5 -170.5t-44.5 -237t44.5 -236.5t129.5 -170t195 -63.5z
" />
    <glyph glyph-name="uni022E" unicode="&#x22e;" horiz-adv-x="1462" 
d="M731 1639q-32 0 -55 22t-23 53t23 53t55 22t55 -22t23 -53t-23 -53t-55 -22zM1349 724q0 -335 -172 -539.5t-446 -204.5t-445.5 205t-171.5 539q0 335 171.5 539.5t445.5 204.5t446 -204.5t172 -539.5zM1247 724q-1 294 -144.5 469.5t-371.5 175.5t-371.5 -175
t-143.5 -470q0 -294 143 -469.5t372 -175.5q228 0 372.5 175.5t143.5 469.5z" />
    <glyph glyph-name="uni022F" unicode="&#x22f;" horiz-adv-x="1131" 
d="M566 1276q-32 0 -55 22t-23 53t23 53.5t55 22.5t55 -22.5t23 -53.5t-23 -53t-55 -22zM566 -23q-205 0 -337 158.5t-132 403.5q0 162 59.5 291t167 200.5t242.5 71.5q204 0 336.5 -158.5t132.5 -404.5q0 -245 -132 -403.5t-337 -158.5zM566 69q110 0 195 63.5t129 170
t44 236.5t-44.5 237t-129 170.5t-194.5 63.5t-195 -63.5t-129.5 -170.5t-44.5 -237t44.5 -236.5t129.5 -170t195 -63.5z" />
    <glyph glyph-name="uni0230" unicode="&#x230;" horiz-adv-x="1462" 
d="M461 2070h545v-88h-545v88zM731 1639q-32 0 -55 22t-23 53t23 53t55 22t55 -22t23 -53t-23 -53t-55 -22zM1349 724q0 -335 -172 -539.5t-446 -204.5t-445.5 205t-171.5 539q0 335 171.5 539.5t445.5 204.5t446 -204.5t172 -539.5zM1247 724q-1 294 -144.5 469.5
t-371.5 175.5t-371.5 -175t-143.5 -470q0 -294 143 -469.5t372 -175.5q228 0 372.5 175.5t143.5 469.5z" />
    <glyph glyph-name="uni0231" unicode="&#x231;" horiz-adv-x="1131" 
d="M300 1719h544v-88h-544v88zM570 1288q-32 0 -55 22t-23 53t23 53.5t55 22.5t55 -22.5t23 -53.5t-23 -53t-55 -22zM566 -23q-205 0 -337 158.5t-132 403.5q0 162 59.5 291t167 200.5t242.5 71.5q204 0 336.5 -158.5t132.5 -404.5q0 -245 -132 -403.5t-337 -158.5zM566 69
q110 0 195 63.5t129 170t44 236.5t-44.5 237t-129 170.5t-194.5 63.5t-195 -63.5t-129.5 -170.5t-44.5 -237t44.5 -236.5t129.5 -170t195 -63.5z" />
    <glyph glyph-name="uni0232" unicode="&#x232;" horiz-adv-x="1229" 
d="M343 1756h545v-88h-545v88zM563 646l-522 802h122l447 -693h10l447 693h122l-522 -802v-646h-104v646z" />
    <glyph glyph-name="uni0233" unicode="&#x233;" horiz-adv-x="1033" 
d="M245 1394h545v-88h-545v88zM216 -407q-29 0 -53 2v92q20 -2 48 -2q32 0 55.5 5.5t52.5 21.5t54.5 53t45.5 94l47 127l-399 1100h109l337 -957h8l337 957h109l-459 -1266q-83 -227 -292 -227z" />
    <glyph glyph-name="uni0234" unicode="&#x234;" horiz-adv-x="557" 
d="M439 72q111 0 185 -67.5t74 -169.5t-74.5 -169.5t-189.5 -67.5q-103 0 -172 54.5t-92 141.5q-9 -12 -19 -27l-121 -145l-70 62l131 154q32 45 69 86v1524h101v-1434q86 58 178 58zM434 -313q69 0 115.5 42.5t46.5 105.5t-47.5 104t-119.5 41q-87 0 -168 -78v-51
q0 -70 50 -117t123 -47z" />
    <glyph glyph-name="uni0235" unicode="&#x235;" horiz-adv-x="1478" 
d="M1132 230q111 0 185 -67.5t74 -169.5q0 -103 -74 -170.5t-190 -67.5q-102 0 -171.5 55t-92.5 141q-1 -1 -8 -10.5t-11 -14.5l-121 -146l-69 62l132 154q39 54 67 86v84h1v541q0 136 -80 218.5t-211 82.5q-135 0 -220.5 -86t-85.5 -226v-696h-101v1086h98v-172h9
q39 86 123 136t199 50q167 0 268 -103.5t101 -283.5v-540q85 57 178 57zM1127 -155q69 0 115.5 43t46.5 106q0 62 -48 103.5t-119 41.5q-87 0 -168 -78v-61h-1q4 -66 54 -110.5t120 -44.5z" />
    <glyph glyph-name="uni0236" unicode="&#x236;" horiz-adv-x="888" 
d="M540 453q117 0 189 -66.5t72 -166.5q0 -103 -75 -172t-192 -69q-105 0 -175 57t-91 146q-60 -71 -134 -174l-69 61q117 162 195 243v686h-161v88h161v260h101v-260h228v-88h-228v-600q84 55 179 55zM535 69q70 0 117 41t47 106q0 61 -46 103t-123 42q-80 0 -169 -81v-49
q0 -69 50 -115.5t124 -46.5z" />
    <glyph glyph-name="uni0237" unicode="&#x237;" horiz-adv-x="417" 
d="M158 -123v1209h102v-1209q0 -130 -76 -207t-202 -77h-25v94h23q80 0 129 51t49 139z" />
    <glyph glyph-name="uni0238" unicode="&#x238;" horiz-adv-x="1704" 
d="M1230 1102q185 0 295.5 -151.5t110.5 -406.5v-11q0 -251 -111.5 -402.5t-296.5 -151.5q-205 0 -320 187v-166h-101l-10 168q-116 -189 -322 -189q-184 0 -296 151.5t-112 402.5v11q0 255 111.5 406.5t295.5 151.5q205 0 322 -186v532h112v-533q116 187 322 187zM489 76
q97 0 176 54.5t131 148.5v526q-50 91 -130 145.5t-177 54.5q-148 0 -228.5 -125t-80.5 -336v-11q0 -209 80.5 -333t228.5 -124zM1524 533v11q0 211 -80.5 336t-228.5 125q-97 0 -177 -54.5t-130 -145.5v-526q52 -94 131 -148.5t176 -54.5q148 0 228.5 124t80.5 333z" />
    <glyph glyph-name="uni0239" unicode="&#x239;" horiz-adv-x="1704" 
d="M1230 1102q185 0 295.5 -151.5t110.5 -406.5v-11q0 -251 -111.5 -402.5t-296.5 -151.5q-203 0 -319 185v-569h-112v573q-117 -189 -322 -189q-184 0 -296 151.5t-112 402.5v11q0 255 111.5 406.5t295.5 151.5q208 0 324 -190l11 174h89l10 -171q116 187 322 187zM489 76
q98 0 177.5 55t130.5 150v521q-49 92 -129.5 147.5t-178.5 55.5q-148 0 -228.5 -125t-80.5 -336v-11q0 -209 80.5 -333t228.5 -124zM1524 533v11q0 211 -80.5 336t-228.5 125q-97 0 -176.5 -53.5t-129.5 -144.5v-530q51 -93 130 -147t176 -54q148 0 228.5 124t80.5 333z" />
    <glyph glyph-name="uni023A" unicode="&#x23a;" horiz-adv-x="1243" 
d="M1204 0h-110l-161 453h-341l-226 -637h-98l226 637h-184l-161 -453h-109l522 1448h118l84 -232l148 416h98l-196 -553zM617 1315l-273 -767h184l185 523l-87 244h-9zM762 933l-137 -385h274z" />
    <glyph glyph-name="uni023B" unicode="&#x23b;" horiz-adv-x="1405" 
d="M731 79q180 0 305.5 109t155.5 265h106q-16 -93 -62 -177t-116.5 -150.5t-171.5 -106t-217 -39.5q-123 0 -230 45l-77 -209h-99l94 251q-143 90 -224 260.5t-81 396.5q0 335 171.5 539.5t445.5 204.5q108 0 198 -32l74 196h97l-87 -233q115 -63 189 -171t96 -234h-106
q-18 93 -74 175t-141 133l-440 -1183q92 -40 194 -40zM216 724q0 -196 63.5 -338.5t175.5 -220.5l440 1177q-75 27 -164 27q-106 0 -199 -43t-163.5 -122.5t-111.5 -203.5t-41 -276z" />
    <glyph glyph-name="uni023C" unicode="&#x23c;" horiz-adv-x="1098" 
d="M588 70q116 0 200 67.5t105 180.5h102q-23 -151 -134.5 -246t-272.5 -95q-109 0 -203 47l-185 -431h-90l206 476q-95 74 -148 196.5t-53 273.5q0 161 59 289t167 201t245 73q86 0 164 -31l163 377h86l-178 -413q69 -45 114 -114.5t58 -156.5h-102q-22 113 -109 182
l-358 -834q75 -42 164 -42zM216 542q0 -120 36.5 -218.5t103.5 -161.5l357 824q-55 24 -125 24q-162 0 -267 -131.5t-105 -336.5z" />
    <glyph glyph-name="uni023D" unicode="&#x23d;" horiz-adv-x="1081" 
d="M289 706v-611h701v-95h-805v706h-236v83h236v659h104v-659h236v-83h-236z" />
    <glyph glyph-name="uni023E" unicode="&#x23e;" horiz-adv-x="1209" 
d="M1119 1448v-95h-219l-243 -654v-699h-104v420l-225 -604h-95l320 859v678h-462v95h749l69 184h95l-68 -184h183zM657 1353v-398l148 398h-148z" />
    <glyph glyph-name="uni023F" unicode="&#x23f;" horiz-adv-x="958" 
d="M873 287q0 -138 -106 -224t-284 -86q-83 0 -147 19q119 -212 158.5 -263.5t90.5 -51.5t131 62l41 -73q-94 -77 -171 -77q-68 0 -119.5 41t-103.5 128l-197 343q-53 67 -68 162h106q17 -97 88 -147.5t190 -50.5q131 0 209.5 57.5t78.5 154.5q0 149 -196 198l-167 40
q-132 31 -201 104t-69 178q0 133 101.5 217.5t263.5 83.5q149 -1 243.5 -75t114.5 -197h-101q-19 85 -85.5 133t-171.5 49q-116 1 -190 -57.5t-74 -149.5q0 -144 205 -195l167 -41q130 -31 196.5 -103t66.5 -179z" />
    <glyph glyph-name="uni0240" unicode="&#x240;" horiz-adv-x="1006" 
d="M987 -280l29 -73q-72 -54 -141 -54q-48 0 -90 22.5t-74.5 58.5t-65 79.5t-69 86.5t-77.5 79t-99.5 58.5t-127.5 22.5h-148v88l633 903h-613v95h741v-84l-633 -907h30q77 0 142.5 -22.5t111 -58t84.5 -79t70.5 -87t61 -79t63.5 -58t72 -22.5q44 0 100 31z" />
    <glyph glyph-name="uni0241" unicode="&#x241;" horiz-adv-x="997" 
d="M493 1468q208 0 323 -132t115 -348v-196q0 -203 -102.5 -332t-293.5 -147v-313h-117v411h54q175 1 259 102t84 279v196q0 173 -80 275.5t-242 102.5q-139 0 -224 -75t-92 -201h-110q8 169 124.5 273.5t301.5 104.5z" />
    <glyph glyph-name="uni0242" unicode="&#x242;" horiz-adv-x="980" 
d="M859 704q-1 -161 -74.5 -260t-218.5 -115v-329h-113v405h53q120 1 180.5 77.5t60.5 216.5q0 145 -63.5 226.5t-186.5 81.5q-122 0 -191 -82.5t-71 -236.5h-113q3 199 104 306.5t272 107.5q170 0 265 -104t96 -294z" />
    <glyph glyph-name="uni0243" unicode="&#x243;" horiz-adv-x="1360" 
d="M961 748v-9q116 -9 200 -108.5t84 -253.5q0 -171 -112 -274t-323 -103h-512v376h-233v83h233v989h477q197 0 305 -102t108 -272q0 -130 -61.5 -214.5t-165.5 -111.5zM774 1353h-372v-571h397q132 0 210.5 82.5t78.5 208.5q0 129 -82.5 204.5t-231.5 75.5zM402 95h407
q160 0 247.5 78t87.5 205q0 134 -92.5 222.5t-238.5 88.5h-411v-230h239v-83h-239v-281z" />
    <glyph glyph-name="uni0244" unicode="&#x244;" horiz-adv-x="1417" 
d="M1244 846h197v-77h-197v-279q0 -223 -152 -368.5t-388 -145.5q-237 0 -388.5 145.5t-150.5 368.5v279h-188v77h188v602h103v-602h871v602h105v-602zM1139 496v273h-871v-273q0 -183 122 -302t314 -119t313.5 119t121.5 302z" />
    <glyph glyph-name="uni0245" unicode="&#x245;" horiz-adv-x="1340" 
d="M727 1448l521 -1448h-126l-452 1301l-451 -1301h-126l520 1448h114z" />
    <glyph glyph-name="uni0246" unicode="&#x246;" horiz-adv-x="1137" 
d="M492 95h526v-95h-553l-53 -184h-94l53 184h-186v1448h604l53 184h94l-53 -184h120v-95h-147l-168 -581h271v-95h-298zM761 1353h-472v-581h304zM289 677v-582h109l168 582h-277z" />
    <glyph glyph-name="uni0247" unicode="&#x247;" horiz-adv-x="1134" 
d="M1038 575v-57h-440l-174 -406q80 -43 179 -43q114 0 190 51t111 117h108q-37 -109 -146 -184.5t-263 -75.5q-120 0 -216 49l-187 -433h-90l207 476q-96 74 -149 195.5t-53 273.5q0 244 132 404t336 160q84 0 166 -33l164 379h86l-179 -416q101 -66 159.5 -183t58.5 -274z
M583 1010q-151 0 -254 -116t-113 -287h333l163 377q-61 26 -129 26zM636 607h300q0 105 -41.5 193.5t-113.5 142.5zM356 160l155 358h-295q1 -113 37.5 -205.5t102.5 -152.5z" />
    <glyph glyph-name="uni0248" unicode="&#x248;" horiz-adv-x="1018" 
d="M834 902h235v-83h-235v-422q-1 -207 -105 -312t-274 -105q-164 0 -271.5 90t-106.5 233h103q-1 -99 78 -163t197 -64q124 0 198.5 78.5t75.5 242.5v422h-235v83h235v546h105v-546z" />
    <glyph glyph-name="uni0249" unicode="&#x249;" horiz-adv-x="417" 
d="M209 1276q-32 0 -55.5 22t-23.5 53t23.5 53.5t55.5 22.5t54.5 -22.5t22.5 -53.5t-22.5 -53t-54.5 -22zM260 662h236v-83h-236v-702q0 -130 -76 -207t-202 -77h-25v94h23q80 0 129 51t49 139v702h-237v83h237v424h102v-424z" />
    <glyph glyph-name="Q_rthook" unicode="&#x24a;" horiz-adv-x="1479" 
d="M1177 1448h98v-1608q0 -85 35 -120t109 -35q34 0 64 5v-90q-23 -6 -83 -6q-107 0 -166 62t-59 184v469h-8q-58 -160 -175 -245t-277 -85q-266 0 -433.5 208t-167.5 539q0 329 168 535.5t437 206.5q159 0 275 -83.5t173 -243.5h10v307zM720 79q149 0 253 81.5t154.5 225.5
t50.5 340q-1 293 -121 469.5t-336 176.5q-226 0 -365 -180t-139 -466q0 -291 139.5 -469t363.5 -178z" />
    <glyph glyph-name="uni024B" unicode="&#x24b;" horiz-adv-x="1179" 
d="M1134 -315q28 0 63 5v-90q-24 -6 -82 -6q-107 0 -167 62.5t-60 183.5v386h-9q-40 -108 -127 -178.5t-218 -70.5q-196 0 -316.5 157t-120.5 406q0 250 120.5 406t317.5 156q132 0 217.5 -70t126.5 -177h11v231h99v-1246q0 -84 35.5 -119.5t109.5 -35.5zM545 70
q158 0 251.5 132t93.5 340q0 207 -92.5 337t-252.5 130q-108 0 -187.5 -62t-119.5 -166.5t-40 -238.5q0 -206 93.5 -339t253.5 -133z" />
    <glyph glyph-name="uni024C" unicode="&#x24c;" horiz-adv-x="1221" 
d="M822 623l338 -623h-120l-325 602q-42 -4 -67 -4h-350v-598h-104v598h-186v96h186v754h454q210 0 330 -117.5t120 -309.5q0 -147 -72 -251t-204 -147zM298 694h347q165 0 257 88t92 239q0 152 -92.5 242t-257.5 90h-346v-659z" />
    <glyph glyph-name="uni024D" unicode="&#x24d;" horiz-adv-x="652" 
d="M568 1102q21 0 51 -2v-101q-55 5 -57 5q-133 0 -219 -83t-86 -211v-148h237v-83h-237v-479h-101v479h-237v83h237v524h98v-169h8q35 84 118 134.5t188 50.5z" />
    <glyph glyph-name="uni024E" unicode="&#x24e;" horiz-adv-x="1227" 
d="M991 1146h258v-77h-307l-275 -423v-646h-104v646l-275 423h-309v77h259l-197 302h122l195 -302h514l195 302h122zM610 755h10l203 314h-416z" />
    <glyph glyph-name="uni024F" unicode="&#x24f;" horiz-adv-x="1033" 
d="M858 1086h109l-111 -305h97v-83h-127l-318 -878q-83 -227 -292 -227q-29 0 -53 2v92q20 -2 48 -2q32 0 55.5 5.5t52.5 21.5t54.5 53t45.5 94l47 127l-258 712h-123v83h93l-111 305h109l108 -305h466zM513 129h8l200 569h-408z" />
    <glyph glyph-name="uni0250" unicode="&#x250;" horiz-adv-x="1060" 
d="M540 75q111 0 188.5 48.5t98.5 132.5h104q-19 -124 -128 -198t-267 -74q-57 0 -110 12t-102.5 39t-85.5 66.5t-58 99.5t-22 133v752h101v-189h7q44 93 133 153t213 60q149 0 248.5 -86.5t99.5 -237.5q0 -143 -100.5 -225t-292.5 -97q-42 -3 -164 -11.5t-144 -10.5v-115
q0 -116 75 -184t206 -68zM600 1018q-150 0 -245.5 -104t-95.5 -261v-124q14 1 135 10.5t155 11.5q311 22 311 239q0 105 -73 166.5t-187 61.5z" />
    <glyph glyph-name="uni0251" unicode="&#x251;" horiz-adv-x="1226" 
d="M1018 543l113 -543h-94l-72 356q-43 -192 -153 -286t-263 -93q-206 1 -330 157t-124 408q0 245 129 401.5t330 156.5q160 0 262.5 -98t142.5 -276h1l63 360h94zM921 504l7 41l-7 33q-16 91 -44.5 166t-72 136t-107.5 94.5t-143 33.5q-158 0 -258 -131t-100 -337
q0 -208 97 -339t256 -131q145 0 242.5 117t129.5 317z" />
    <glyph glyph-name="uni0252" unicode="&#x252;" horiz-adv-x="1178" 
d="M677 1102q193 0 300.5 -144t107.5 -385v-42q0 -250 -113 -401t-313 -151q-216 0 -317 182l-13 -161h-95v875q0 125 -78 125q-21 0 -41 -9l-17 85q35 26 89 26q70 0 111.5 -48t47.5 -144q108 192 331 192zM972 532v41q1 199 -80.5 316.5t-240.5 117.5q-214 0 -304 -251
v-454q85 -228 289 -228q164 0 250 126t86 332z" />
    <glyph glyph-name="uni0253" unicode="&#x253;" horiz-adv-x="1173" 
d="M639 -23q-131 0 -216.5 70.5t-128.5 178.5h-11v-226h-98v1222q0 122 59.5 184t166.5 62q57 0 82 -6v-89q-33 5 -63 5q-74 0 -109 -35.5t-35 -120.5v-367h8q41 108 127 177.5t218 69.5q196 0 317 -156.5t121 -405.5q0 -250 -121 -406.5t-317 -156.5zM629 70
q161 0 253.5 133t92.5 339q0 205 -92.5 336t-253.5 131q-160 0 -252.5 -130t-92.5 -337q0 -208 93 -340t252 -132z" />
    <glyph glyph-name="uni0254" unicode="&#x254;" horiz-adv-x="997" 
d="M68 315h108q19 -104 106.5 -172t204.5 -68q105 0 181.5 59.5t113 156.5t36.5 219v42q0 207 -87.5 331t-251.5 124q-127 0 -203.5 -76t-99.5 -222h-108q23 186 130.5 289.5t280.5 103.5q211 0 330.5 -150.5t119.5 -398.5v-43q0 -229 -120.5 -379.5t-320.5 -150.5
q-162 0 -280.5 96.5t-139.5 238.5z" />
    <glyph glyph-name="uni0255" unicode="&#x255;" horiz-adv-x="1060" 
d="M648 509q127 0 203 -69.5t76 -176.5q0 -126 -102 -206t-256 -80q-109 0 -200 44.5t-155 125.5q-67 -75 -137 -177l-76 58q84 119 159 205q-69 133 -69 309q0 243 132 401.5t339 158.5q158 0 271 -94.5t136 -243.5h-102q-21 108 -103 177t-200 69q-164 0 -268 -131
t-104 -337q0 -132 41 -232q206 199 415 199zM569 69q110 0 183 54.5t73 136.5q0 69 -52 114t-127 45q-166 0 -365 -199q51 -72 125 -111.5t163 -39.5z" />
    <glyph glyph-name="uni0256" unicode="&#x256;" horiz-adv-x="1150" 
d="M1133 -315q29 0 64 5v-90q-25 -6 -83 -6q-107 0 -166.5 62.5t-59.5 183.5v259h2v127h-11q-43 -108 -128.5 -178.5t-216.5 -70.5q-196 0 -316.5 156.5t-120.5 406.5q0 249 121 405.5t317 156.5q132 0 218 -70t126 -177h9v593h101v-1448h-1v-160q0 -84 35.5 -119.5
t109.5 -35.5zM545 70q159 0 252 132t93 340q0 207 -93 337t-252 130q-108 0 -187.5 -62t-119.5 -166.5t-40 -238.5q0 -206 93 -339t254 -133z" />
    <glyph glyph-name="uni0257" unicode="&#x257;" horiz-adv-x="1142" 
d="M1117 1470q48 0 81 -8v-90q-25 5 -62 5q-75 0 -111 -34.5t-36 -118.5v-1224h-99v226h-11q-43 -108 -128.5 -178.5t-216.5 -70.5q-196 0 -316.5 156.5t-120.5 406.5q0 249 121 405.5t317 156.5q132 0 218 -70t126 -177h9v369q0 122 60.5 184t168.5 62zM545 70
q159 0 252 132t93 340q0 207 -93 337t-252 130q-108 0 -187.5 -62t-119.5 -166.5t-40 -238.5q0 -206 93 -339t254 -133z" />
    <glyph glyph-name="uni0258" unicode="&#x258;" horiz-adv-x="998" 
d="M476 1102q200 0 324 -158t124 -411v-18q0 -247 -124.5 -391t-333.5 -144q-128 0 -227.5 56.5t-158.5 160.5l79 46q50 -81 128 -124.5t175 -43.5q160 0 253.5 114.5t96.5 317.5h-738v64q0 246 108 388.5t294 142.5zM187 609v-8h623q-14 185 -103 295.5t-226 110.5
q-134 0 -212 -104.5t-82 -293.5z" />
    <glyph glyph-name="uni0259" unicode="&#x259;" horiz-adv-x="1116" 
d="M532 1109q221 0 354.5 -157t133.5 -404q0 -161 -59.5 -289.5t-166.5 -201.5t-242 -73q-91 0 -173 36t-145 101.5t-100 166.5t-37 223v58h822q-3 199 -107 323.5t-280 124.5q-114 0 -190 -51t-111 -117h-109q37 108 146.5 184t263.5 76zM551 76q151 0 254 116t113 287
h-719q0 -170 100.5 -286.5t251.5 -116.5z" />
    <glyph glyph-name="uni025A" unicode="&#x25a;" horiz-adv-x="1242" 
d="M1206 475l18 -74q-51 -23 -101 -23q-168 1 -202 234l-53 -10q1 -16 1 -50v-21q0 -243 -123 -397.5t-300 -154.5q-199 0 -313.5 143t-114.5 371v53l727 129q-27 146 -113.5 233t-214.5 87q-183 0 -295 -172l-72 56q131 211 371 211q170 0 285.5 -106.5t149.5 -287.5
l139 25q16 -128 50 -190t101 -63q28 -1 60 7zM756 527v21q0 22 -1 33l-624 -111v-15q0 -164 85 -272.5t230 -108.5q135 0 222.5 126.5t87.5 326.5z" />
    <glyph glyph-name="uni025B" unicode="&#x25b;" horiz-adv-x="1029" 
d="M835 318h103q-21 -155 -134.5 -246.5t-296.5 -91.5q-185 0 -297.5 84.5t-112.5 219.5q0 93 55 164t163 104q-102 29 -150 92.5t-47 150.5q0 140 105.5 222.5t280.5 82.5q165 0 269 -80t126 -227h-104q-22 106 -97 160.5t-194 54.5q-129 0 -206 -57t-78 -153
q-1 -91 67.5 -142t196.5 -51h119v-89h-119q-123 0 -203 -64t-80 -165q1 -96 85.5 -154.5t224.5 -58.5q272 0 324 244z" />
    <glyph glyph-name="uni025C" unicode="&#x25c;" horiz-adv-x="1099" 
d="M723 552q108 -33 163 -104t55 -164q0 -134 -113 -219t-298 -85q-183 0 -296 91.5t-134 246.5h102q52 -244 326 -244q140 0 224 58.5t85 154.5q0 101 -80.5 165t-203.5 64h-118v89h118q128 0 197 51t68 142q-1 95 -78.5 152.5t-206.5 57.5q-119 0 -193.5 -54.5
t-96.5 -160.5h-104q22 147 126 227t268 80q175 0 280.5 -82.5t105.5 -222.5q2 -187 -196 -243z" />
    <glyph glyph-name="uni025D" unicode="&#x25d;" horiz-adv-x="1275" 
d="M1245 643l19 -75q-50 -24 -101 -23q-167 1 -202 232l-44 -8q-14 -165 -196 -217q108 -33 163 -104t55 -164q0 -135 -112.5 -219.5t-297.5 -84.5q-183 0 -296.5 91.5t-134.5 246.5h103q52 -244 325 -244q140 0 224.5 58.5t84.5 154.5q1 100 -80 164.5t-204 64.5h-117v89
h117q129 0 198 51t68 142q-1 95 -78.5 152.5t-206.5 57.5q-119 0 -194 -54.5t-97 -160.5h-104q22 147 126.5 227t268.5 80q151 0 251.5 -63t126.5 -173l125 24q16 -128 50 -190.5t100 -63.5q35 0 60 9z" />
    <glyph glyph-name="uni025E" unicode="&#x25e;" horiz-adv-x="1004" 
d="M707 552q109 -33 163 -104.5t54 -163.5q0 -136 -113.5 -220t-295.5 -84q-219 0 -332.5 146.5t-114.5 423.5v1v1q1 265 116 406.5t334 141.5q174 0 279.5 -82.5t105.5 -222.5q1 -87 -47 -150.5t-149 -92.5zM820 287q1 99 -78 164t-205 65h-116v89h116q128 0 197 51t68 142
q-1 95 -77.5 152.5t-203.5 57.5q-353 0 -353 -457q0 -235 87 -356t261 -121q137 0 220.5 58.5t83.5 154.5z" />
    <glyph glyph-name="uni025F" unicode="&#x25f;" horiz-adv-x="417" 
d="M260 662h236v-83h-236v-702q0 -130 -76 -207t-202 -77h-25v94h23q80 0 129 51t49 139v702h-237v83h237v424h102v-424z" />
    <glyph glyph-name="uni0260" unicode="&#x260;" horiz-adv-x="1144" 
d="M1112 1468q57 0 82 -6v-89q-35 5 -62 5q-74 0 -109.5 -35.5t-35.5 -120.5v-1247q0 -200 -116.5 -302.5t-316.5 -102.5q-169 0 -284 70t-138 201h106q22 -88 107 -134t209 -46q160 0 246.5 79.5t86.5 238.5v261h-9q-39 -103 -127 -168t-218 -65q-196 0 -317 147.5
t-121 392.5q0 247 120.5 401t317.5 154q133 0 218 -69.5t128 -177.5h10v367q0 122 58.5 184t164.5 62zM543 100q160 0 252.5 119t92.5 326q0 205 -92.5 334.5t-252.5 129.5q-161 0 -253.5 -130.5t-92.5 -333.5q0 -201 92 -323t254 -122z" />
    <glyph glyph-name="uni0261" unicode="&#x261;" horiz-adv-x="1147" 
d="M555 -430q-169 0 -283.5 70t-137.5 201h106q21 -88 106 -134t209 -46q160 0 247 79.5t87 238.5v261h-10q-38 -103 -126.5 -168t-218.5 -65q-195 0 -316 147.5t-121 392.5q0 247 120.5 401t317.5 154q132 0 217.5 -69.5t127.5 -177.5h10v231h99v-1111q0 -199 -117 -302
t-317 -103zM545 100q160 0 252.5 119t92.5 326q0 205 -92.5 334.5t-252.5 129.5q-161 0 -254 -130.5t-93 -333.5q0 -201 92.5 -323t254.5 -122z" />
    <glyph glyph-name="uni0262" unicode="&#x262;" horiz-adv-x="1173" 
d="M619 501h413v-352q-39 -63 -163 -116.5t-269 -53.5q-217 1 -352.5 131.5t-135.5 339.5v158q0 204 138 334t351 130q192 0 303.5 -94t125.5 -252h-103q-17 123 -101.5 188t-224.5 65q-167 -1 -276 -106t-109 -265v-158q0 -166 107 -271t277 -105q99 -1 200 36t131 77v220
h-312v94z" />
    <glyph glyph-name="uni0263" unicode="&#x263;" horiz-adv-x="1073" 
d="M1037 1086l-443 -942l55 -116q93 -203 93 -275q0 -84 -57 -133.5t-151 -49.5t-152.5 49.5t-58.5 131.5q0 36 21 94.5t75 173.5l60 126l-445 941h110l392 -821l391 821h110zM534 -334q44 0 73.5 24.5t29.5 59.5q0 57 -100 272q-37 -78 -49.5 -105t-30 -69t-22.5 -61.5
t-5 -36.5q0 -36 30 -60t74 -24z" />
    <glyph glyph-name="uni0264" unicode="&#x264;" horiz-adv-x="1412" 
d="M1066 1102q131 0 228 -131l-72 -73q-61 94 -141 94q-69 0 -128 -73.5t-185 -306.5q92 -175 131 -274t39 -162q0 -89 -63 -142.5t-169 -53.5t-168.5 53.5t-62.5 142.5q0 62 39 160.5t130 274.5q-2 4 -9.5 16t-10.5 19q-109 208 -165 277t-126 69q-80 0 -141 -94l-72 73
q97 131 227 131q97 0 171 -82t188 -292q57 105 97.5 169.5t84 114t86 70t92.5 20.5zM706 76q56 0 88 28.5t32 74.5q0 73 -121 312q-119 -238 -119 -312q0 -46 31.5 -74.5t88.5 -28.5z" />
    <glyph glyph-name="uni0265" unicode="&#x265;" horiz-adv-x="1114" 
d="M859 390v696h100v-1448h-100v534h-10q-39 -87 -122.5 -136.5t-200.5 -49.5q-167 0 -268.5 103t-101.5 284v713h101v-707q0 -137 79.5 -219t211.5 -82q137 0 224 86t87 226z" />
    <glyph glyph-name="uni0266" unicode="&#x266;" horiz-adv-x="1110" 
d="M586 1100q167 0 268 -103.5t101 -283.5v-713h-101v707q0 137 -79.5 219t-211.5 82q-135 0 -220.5 -86t-85.5 -226v-696h-101v1074v148q0 121 59.5 183.5t166.5 62.5q57 0 82 -6v-89q-35 5 -63 5q-74 0 -110.5 -35.5t-36.5 -120.5v-136h1v-172h9q39 86 123 136t199 50z
" />
    <glyph glyph-name="uni0267" unicode="&#x267;" horiz-adv-x="1110" 
d="M586 1100q167 0 268 -103.5t101 -283.5v-713h-2v-142q0 -127 -62.5 -195.5t-169.5 -68.5q-55 0 -84 11v87q30 -7 62 -7q154 0 154 173v142h1v707q0 137 -79.5 219t-211.5 82q-135 0 -220.5 -86t-85.5 -226v-696h-101v1074v148q0 121 59.5 183.5t166.5 62.5q57 0 82 -6
v-89q-35 5 -63 5q-74 0 -110.5 -35.5t-36.5 -120.5v-136h1v-172h9q39 86 123 136t199 50z" />
    <glyph glyph-name="uni0268" unicode="&#x268;" horiz-adv-x="417" 
d="M210 1276q-32 0 -55 22t-23 53t23 53.5t55 22.5t55 -22.5t23 -53.5t-23 -53t-55 -22zM260 612h237v-82h-237v-530h-102v530h-236v82h236v474h102v-474z" />
    <glyph glyph-name="iota" unicode="&#x3b9;" horiz-adv-x="435" 
d="M153 214v872h101l-1 -872q0 -65 31 -97.5t78 -32.5q55 0 79 9l5 -95q-42 -12 -111 -12q-82 0 -132 59t-50 169z" />
    <glyph glyph-name="iota" unicode="&#x269;" horiz-adv-x="435" 
d="M153 214v872h101l-1 -872q0 -65 31 -97.5t78 -32.5q55 0 79 9l5 -95q-42 -12 -111 -12q-82 0 -132 59t-50 169z" />
    <glyph glyph-name="uni026A" unicode="&#x26a;" horiz-adv-x="551" 
d="M488 1052v-94h-158v-863h158v-95h-420v95h150v863h-150v94h420z" />
    <glyph glyph-name="uni026B" unicode="&#x26b;" horiz-adv-x="470" 
d="M490 842l82 -12q-8 -84 -65 -135.5t-135 -51.5q-45 0 -85 19v-662h-100v726q-39 22 -84 22q-48 0 -82 -31t-38 -78l-84 5q6 85 62.5 139t137.5 54q46 0 88 -20v631h100v-693q42 -23 81 -23q46 0 81 31.5t41 78.5z" />
    <glyph glyph-name="uni026C" unicode="&#x26c;" horiz-adv-x="703" 
d="M508 719h165v-94h-165v-625h-101v624h-130q-113 -1 -189.5 67t-76.5 171q0 99 71.5 168.5t175.5 69.5q88 0 149 -43v391h101v-729zM279 718h128v128q0 71 -39 116.5t-111 45.5q-56 0 -99.5 -43t-43.5 -103q0 -59 47.5 -102t117.5 -42z" />
    <glyph glyph-name="uni026D" unicode="&#x26d;" horiz-adv-x="430" 
d="M401 -315q28 0 63 5v-90q-25 -6 -82 -6q-107 0 -166.5 62.5t-59.5 183.5v168v1440h101v-1608q0 -84 35 -119.5t109 -35.5z" />
    <glyph glyph-name="uni026E" unicode="&#x26e;" horiz-adv-x="1152" 
d="M594 493v-9q201 -15 322 -130.5t121 -317.5q0 -209 -126 -338t-332 -129q-209 0 -342 125l66 80q102 -110 278 -110q161 0 256.5 102.5t95.5 269.5q0 169 -104 266.5t-274 97.5h-85v89l391 494v8h-570v-990h-100v1447h100v-362h712v-78z" />
    <glyph glyph-name="uni026F" unicode="&#x26f;" horiz-adv-x="1656" 
d="M1401 1086h100v-1086h-98v165h-9q-32 -83 -109 -131t-183 -48q-223 0 -294 206h-8q-34 -96 -117 -151t-202 -55q-155 0 -240 98t-85 274v728h101v-727q0 -134 64.5 -207.5t184.5 -73.5q128 0 200 80t72 209v719h101v-735q0 -125 64.5 -199t183.5 -74q122 0 198 84.5
t76 216.5v707z" />
    <glyph glyph-name="uni0270" unicode="&#x270;" horiz-adv-x="1656" 
d="M1401 379v707h100v-1086h-1v-407h-98v407h1v165h-9q-32 -83 -109 -131t-183 -48q-223 0 -294 206h-8q-34 -96 -117 -151t-202 -55q-155 0 -240 98t-85 274v728h101v-727q0 -134 64.5 -207.5t184.5 -73.5q128 0 200 80t72 209v719h101v-735q0 -125 64.5 -199t183.5 -74
q122 0 198 84.5t76 216.5z" />
    <glyph glyph-name="uni0271" unicode="&#x271;" horiz-adv-x="1656" 
d="M1176 1100q155 0 240 -98t85 -274v-728v-142q0 -126 -63.5 -195t-170.5 -69q-54 0 -83 11v87q32 -7 62 -7q154 0 154 173v142h1v728q0 134 -65 207t-185 73q-128 0 -200 -80t-72 -209v-719h-101v735q0 125 -64.5 199t-183.5 74q-122 0 -197.5 -84.5t-75.5 -216.5v-707
h-101v1086h98v-165h9q32 83 108.5 131t182.5 48q113 0 187 -54t108 -152h8q34 96 117 151t202 55z" />
    <glyph glyph-name="uni0272" unicode="&#x272;" horiz-adv-x="1127" 
d="M603 1100q167 0 268 -103.5t101 -283.5v-713h-101v707q0 136 -79.5 218.5t-210.5 82.5q-135 0 -221 -86t-86 -226v-838q0 -126 -63.5 -195t-170.5 -69q-54 0 -83 11v87q30 -7 63 -7q153 0 153 173v142v1086h99v-172h9q39 86 123 136t199 50z" />
    <glyph glyph-name="uni0273" unicode="&#x273;" horiz-adv-x="1048" 
d="M1098 -315q29 0 64 5v-90q-25 -6 -83 -6q-107 0 -166.5 62.5t-59.5 183.5v168h1v699q0 136 -80 218.5t-211 82.5q-135 0 -220.5 -86t-85.5 -226v-696h-101v1086h98v-172h9q39 86 123 136t199 50q167 0 268 -103.5t101 -283.5v-713h-1v-160q0 -84 35.5 -119.5t109.5 -35.5
z" />
    <glyph glyph-name="uni0274" unicode="&#x274;" horiz-adv-x="1148" 
d="M892 1086h101v-1086h-99l-628 899h-9v-899h-101v1086h97l630 -901h9v901z" />
    <glyph glyph-name="uni0275" unicode="&#x275;" horiz-adv-x="1131" 
d="M566 1102q204 0 336.5 -158.5t132.5 -404.5q0 -245 -132 -403.5t-337 -158.5t-337 158.5t-132 403.5q0 162 59.5 291t167 200.5t242.5 71.5zM566 1010q-155 0 -254.5 -119.5t-112.5 -302.5h734q-13 183 -112.5 302.5t-254.5 119.5zM566 69q157 0 257 122t110 308h-734
q10 -186 110 -308t257 -122z" />
    <glyph glyph-name="uni0276" unicode="&#x276;" horiz-adv-x="1792" 
d="M1627 1052v-93h-622v-376h539v-94h-539v-396h622v-93h-679q-35 -3 -101 -9t-112.5 -9t-82.5 -3q-219 0 -350.5 152t-131.5 390v12q0 238 130.5 389t350.5 151q48 0 150 -9t148 -12h678zM283 534v-13q0 -198 98.5 -322.5t273.5 -124.5q68 0 237 15v874q-171 15 -238 15
q-176 0 -273.5 -124t-97.5 -320z" />
    <glyph glyph-name="uni0277" unicode="&#x277;" horiz-adv-x="1444" 
d="M723 1102q327 -1 497.5 -165.5t170.5 -438.5q0 -143 -40 -258t-125 -187.5t-203 -72.5q-111 -1 -188.5 63t-112.5 185q-35 -121 -112.5 -185t-188.5 -63q-118 1 -203 73t-125 187t-40 258q0 133 41.5 242.5t123 190.5t210 126t293.5 45h1h1zM1015 75q82 0 143.5 59
t91.5 154t29 211q-1 243 -139.5 375.5t-417.5 132.5t-417.5 -133t-139.5 -375q-1 -116 29.5 -211t91.5 -154t143 -59q106 0 171.5 97t65.5 274v187h111v-187q0 -177 66.5 -274t171.5 -97z" />
    <glyph glyph-name="uni0278" unicode="&#x278;" horiz-adv-x="1091" 
d="M601 1448v-352q162 -25 263 -176t101 -368v-23q0 -217 -101 -368.5t-263 -176.5v-369h-112v369q-160 25 -261 177.5t-101 367.5v23q0 216 101 367.5t261 176.5v352h112zM852 529v23q0 171 -69 295.5t-182 151.5v-918q113 27 182 151.5t69 296.5zM240 552v-23
q0 -172 68 -295.5t181 -151.5v917q-112 -28 -180.5 -151.5t-68.5 -295.5z" />
    <glyph glyph-name="uni0279" unicode="&#x279;" horiz-adv-x="652" 
d="M395 1086h101v-1086h-98v170h-8q-35 -84 -118 -135t-188 -51q-21 0 -51 2v101q55 -5 57 -5q133 0 219 83t86 211v710z" />
    <glyph glyph-name="uni027A" unicode="&#x27a;" horiz-adv-x="635" 
d="M429 297v1197h111v-1494h-105l-5 153q-40 -80 -108.5 -124.5t-159.5 -44.5q-38 0 -70 9v105q46 -7 72 -7q101 0 170.5 55.5t94.5 150.5z" />
    <glyph glyph-name="uni027B" unicode="&#x27b;" horiz-adv-x="655" 
d="M653 -315q31 0 44 3v-83q-22 -5 -63 -5q-104 0 -170.5 64.5t-66.5 174.5v161h1v170h-8q-35 -84 -118 -135t-188 -51q-21 0 -51 2v101q55 -5 57 -5q133 0 219 83t86 211v710h101v-1086v-160q0 -71 42 -113t115 -42z" />
    <glyph glyph-name="uni027C" unicode="&#x27c;" horiz-adv-x="703" 
d="M569 1102q73 0 131 -28l-35 -88q-44 18 -103 18q-133 0 -219 -83t-86 -211v-1117h-101v407v1086h99v-169h7q35 84 118 134.5t189 50.5z" />
    <glyph glyph-name="uni027D" unicode="&#x27d;" horiz-adv-x="703" 
d="M569 1102q73 0 131 -28l-35 -88q-44 18 -103 18q-133 0 -219 -83t-86 -211v-870q0 -84 35 -119.5t109 -35.5q28 0 63 5v-90q-25 -6 -82 -6q-107 0 -166.5 62.5t-59.5 183.5v168v1078h99v-169h7q35 84 118 134.5t189 50.5z" />
    <glyph glyph-name="uni027E" unicode="&#x27e;" horiz-adv-x="490" 
d="M257 854v-854h-101v859q0 130 61.5 193t170.5 63q46 0 83 -9v-90q-29 4 -63 4q-76 0 -113.5 -36.5t-37.5 -129.5z" />
    <glyph glyph-name="uni027F" unicode="&#x27f;" horiz-adv-x="474" 
d="M323 869v-1275h-100v1270q0 84 -38.5 119.5t-113.5 35.5q-26 0 -63 -5v91q38 9 83 9q108 0 170 -62t62 -183z" />
    <glyph glyph-name="uni0280" unicode="&#x280;" horiz-adv-x="1170" 
d="M736 454l286 -454h-123l-276 436h-17h-345v-436h-112v1052h427q174 0 273.5 -82.5t99.5 -221.5q0 -108 -56 -185t-157 -109zM576 959h-315v-429h345q110 0 170.5 61.5t60.5 161.5q-1 91 -70 148.5t-191 57.5z" />
    <glyph glyph-name="uni0281" unicode="&#x281;" horiz-adv-x="1170" 
d="M1022 1052l-286 -454q101 -31 157 -108.5t56 -185.5q0 -138 -99.5 -221t-273.5 -83h-427v1052h112v-435h345h17l276 435h123zM261 93h315q122 0 191 58t70 150q0 99 -60.5 160.5t-170.5 61.5h-345v-430z" />
    <glyph glyph-name="uni0282" unicode="&#x282;" horiz-adv-x="970" 
d="M443 610l167 -41q130 -31 196.5 -103t66.5 -179q0 -138 -106 -224t-284 -86q-189 0 -293 101v-113q0 -83 40 -118t116 -35q37 0 63 5v-90q-35 -7 -82 -7q-108 0 -167.5 62t-59.5 182v291l-2 12h106q17 -97 88 -147.5t190 -50.5q131 0 209.5 57.5t78.5 154.5
q0 149 -196 198l-167 40q-132 31 -201 104t-69 178q0 133 101.5 217.5t263.5 83.5q149 -1 243.5 -75t114.5 -197h-101q-19 85 -85.5 133t-171.5 49q-116 1 -190 -57.5t-74 -149.5q0 -144 205 -195z" />
    <glyph glyph-name="uni0283" unicode="&#x283;" horiz-adv-x="785" 
d="M636 1513q60 0 111 -14l-4 -94q-41 11 -99 11q-87 0 -139.5 -54t-52.5 -144v-1353q0 -135 -81 -215t-216 -80q-53 0 -113 13l4 95q47 -11 100 -11q88 0 141 54t53 144v1353q0 135 81 215t215 80z" />
    <glyph glyph-name="uni0284" unicode="&#x284;" horiz-adv-x="785" 
d="M452 1218v-1098h232v-83h-232v-172q0 -135 -81 -215t-216 -80q-53 0 -113 13l4 95q47 -11 100 -11q88 0 141 54t53 144v172h-232v83h232v1098q0 135 81 215t215 80q60 0 111 -14l-4 -94q-41 11 -99 11q-87 0 -139.5 -54t-52.5 -144z" />
    <glyph glyph-name="uni0285" unicode="&#x285;" horiz-adv-x="784" 
d="M743 -324l4 -94q-60 -13 -113 -13q-135 0 -216 80t-81 215v943q0 90 -53 144t-140 54q-51 0 -98 -11l-4 92q48 16 110 16q134 0 215 -80t81 -215v-943q0 -90 53 -144t141 -54q51 0 101 10z" />
    <glyph glyph-name="uni0286" unicode="&#x286;" horiz-adv-x="1018" 
d="M637 1218v-1299q46 -52 67 -80l138 -158l-70 -64l-101 123q-28 38 -41 54q-20 -90 -88 -146t-176 -56q-116 0 -192 68t-76 169q0 105 74.5 171t187.5 66q95 0 177 -56v1208q0 136 78.5 215.5t211.5 79.5q60 0 111 -14l-5 -94q-41 11 -99 11q-87 0 -142 -54t-55 -144z
M364 -314q76 0 124.5 45t48.5 113v53q-82 75 -166 75q-70 0 -116.5 -41.5t-46.5 -101.5q0 -61 44.5 -102t111.5 -41z" />
    <glyph glyph-name="uni0287" unicode="&#x287;" horiz-adv-x="668" 
d="M443 88h161v-88h-161v-260h-101v260h-227v88h227v732q0 94 -50.5 140t-126.5 46q-15 0 -78 -3v96q50 5 86 5q110 0 190 -71t80 -193v-752z" />
    <glyph glyph-name="uni0288" unicode="&#x288;" horiz-adv-x="686" 
d="M577 -321l23 -91q-46 -18 -105 -19q-110 0 -189.5 71t-79.5 192v1166h-161v88h161v260h100v-260h228v-88h-228v-1146q0 -93 51 -139t127 -46q33 0 73 12z" />
    <glyph glyph-name="uni0289" unicode="&#x289;" horiz-adv-x="1124" 
d="M977 672h168v-84h-168v-588h-101v178h-8q-39 -87 -124.5 -139.5t-199.5 -52.5q-162 0 -262 104t-100 283v215h-202v84h202v414h100v-414h594v414h101v-414zM876 395v193h-594v-209q0 -132 80 -214t207 -82t217 85.5t90 226.5z" />
    <glyph glyph-name="uni028A" unicode="&#x28a;" horiz-adv-x="1171" 
d="M586 75q192 0 283.5 92.5t91.5 241.5q0 78 -25 149t-55 116.5t-55 106t-25 119.5q0 38 15 72t47 64t91 48t139 18v-95q-79 -1 -129.5 -29t-49.5 -91q0 -43 16.5 -86.5t40 -82.5t47 -82.5t40 -105t16.5 -130.5q0 -66 -13 -123.5t-47.5 -113t-88.5 -95t-140.5 -64
t-198.5 -24.5t-198.5 24.5t-140.5 64t-88.5 95t-47.5 113t-13 123.5q1 69 17.5 130.5t40 105t47 82.5t40 82.5t17.5 86.5q1 63 -50.5 91t-130.5 29v95q80 0 139.5 -18t91.5 -48t47 -64t15 -72q0 -49 -16.5 -96t-40 -88t-47.5 -84.5t-40.5 -101t-16.5 -121.5
q0 -149 91.5 -241.5t283.5 -92.5z" />
    <glyph glyph-name="uni028B" unicode="&#x28b;" horiz-adv-x="973" 
d="M681 1102q93 0 129 -54t36 -149v-483q0 -436 -358 -436q-170 0 -263.5 106.5t-93.5 329.5v670h112v-670q0 -183 62.5 -261.5t182.5 -77.5q121 -1 183.5 77.5t62.5 261.5v484q0 53 -21 76t-67 23q-62 0 -139 -32l-14 91q106 44 188 44z" />
    <glyph glyph-name="uni028C" unicode="&#x28c;" horiz-adv-x="1033" 
d="M176 0h-109l394 1086h113l393 -1086h-109l-337 956h-8z" />
    <glyph glyph-name="uni028D" unicode="&#x28d;" horiz-adv-x="1555" 
d="M1053 1086h110l326 -1086h-106l-273 938h-8l-272 -938h-106l-271 937h-7l-273 -937h-106l326 1086h109l271 -925h11z" />
    <glyph glyph-name="uni028E" unicode="&#x28e;" horiz-adv-x="1033" 
d="M818 1494q17 0 53 -3v-91q-18 2 -48 2q-32 0 -55.5 -5.5t-52.5 -21.5t-54.5 -53t-45.5 -94l-47 -128l399 -1100h-109l-337 957h-8l-337 -957h-109l458 1267q83 227 293 227z" />
    <glyph glyph-name="uni028F" unicode="&#x28f;" horiz-adv-x="1002" 
d="M864 1052h127l-437 -690v-362h-111v366l-431 686h127l361 -589z" />
    <glyph glyph-name="uni0290" unicode="&#x290;" horiz-adv-x="1086" 
d="M1053 -321q37 0 63 5v-90q-35 -7 -81 -7q-108 0 -167.5 62t-59.5 183v168h-688v82l634 902v7h-602v95h731v-85l-627 -898v-8h651v-263q0 -85 35.5 -119t110.5 -34z" />
    <glyph glyph-name="uni0291" unicode="&#x291;" horiz-adv-x="1128" 
d="M856 492q105 0 177.5 -65t72.5 -160q0 -48 -21 -94.5t-59.5 -85.5t-101.5 -63t-140 -24h-322l-108 -158l-78 51l71 107h-223v88l634 903h-614v95h741v-84l-633 -907h158q76 111 126 176.5t105.5 120.5t106 77.5t108.5 22.5zM785 95q99 0 160.5 49t61.5 118q0 58 -45 95.5
t-111 37.5q-76 0 -143.5 -66t-181.5 -234h259z" />
    <glyph glyph-name="uni0292" unicode="&#x292;" horiz-adv-x="1229" 
d="M150 1h105q5 -128 108 -207.5t257 -79.5q165 0 266.5 92t100.5 236q1 152 -118 247t-346 95h-53v88l427 511v8h-681v95h827v-78l-442 -531v-9q217 -9 353 -125t136 -301q0 -182 -130.5 -303t-340.5 -121q-196 0 -330 106.5t-139 276.5z" />
    <glyph glyph-name="uni0293" unicode="&#x293;" horiz-adv-x="1202" 
d="M954 -181l102 -92l-59 -69l-100 91q-72 -73 -171 -115t-214 -42q-159 0 -260.5 76.5t-101.5 205.5q0 114 78.5 186.5t204.5 72.5q101 0 194.5 -50t192.5 -142l60 -56q56 92 56 195q0 144 -113 228t-312 84h-61v88l413 503v8h-661v95h804v-78l-432 -524v-7
q218 -16 341 -121t123 -273q0 -143 -84 -264zM516 -313q186 0 309 126l-69 63q-85 79 -162.5 120.5t-159.5 41.5q-86 0 -139.5 -47t-53.5 -121q0 -83 78 -133t197 -50z" />
    <glyph glyph-name="uni0294" unicode="&#x294;" horiz-adv-x="995" 
d="M491 1468q208 0 321.5 -131.5t113.5 -347.5v-80q0 -210 -108.5 -337.5t-316.5 -142.5v-429h-116v522h62q188 1 278 103.5t90 283.5v80q0 114 -33 198t-107 135t-184 51q-134 0 -221 -73t-95 -190h-107q10 155 128.5 256.5t294.5 101.5z" />
    <glyph glyph-name="uni0295" unicode="&#x295;" horiz-adv-x="995" 
d="M503 1468q184 0 299 -102.5t124 -268.5h-107q-8 124 -93 200t-223 76q-162 0 -242.5 -105t-80.5 -279v-81q0 -170 79.5 -272t246.5 -114h94v-522h-112v429q-206 15 -313 142.5t-107 336.5v81q0 216 113.5 347.5t321.5 131.5z" />
    <glyph glyph-name="uni0296" unicode="&#x296;" horiz-adv-x="995" 
d="M508 1448v-371q205 -17 311.5 -144.5t106.5 -335.5v-126q0 -216 -113.5 -347.5t-321.5 -131.5q-183 0 -298 103t-125 268h107q8 -123 93 -199.5t223 -76.5q162 0 243 105t81 279v126q0 182 -89.5 284.5t-278.5 103.5h-52v463h113z" />
    <glyph glyph-name="uni0297" unicode="&#x297;" horiz-adv-x="987" 
d="M523 -335q115 0 194.5 63t92.5 171h110q-16 -146 -127.5 -237.5t-269.5 -91.5q-211 0 -333 151t-122 390v444q0 157 53 280.5t156.5 195t243.5 71.5q163 0 271.5 -103t126.5 -261h-110q-16 116 -93.5 192.5t-193.5 76.5q-163 0 -252.5 -126t-89.5 -326v-444
q0 -128 36.5 -227t115.5 -159t191 -60z" />
    <glyph glyph-name="uni0298" unicode="&#x298;" horiz-adv-x="1462" 
d="M1349 724q0 -335 -172 -539.5t-446 -204.5t-445.5 205t-171.5 539q0 335 171.5 539.5t445.5 204.5t446 -204.5t172 -539.5zM1247 724q-1 294 -144.5 469.5t-371.5 175.5t-371.5 -175t-143.5 -470q0 -294 143 -469.5t372 -175.5q228 0 372.5 175.5t143.5 469.5zM732 639
q-35 0 -60.5 25t-24.5 60q-1 35 24.5 60t60.5 25t60 -25t25 -60t-25 -60t-60 -25z" />
    <glyph glyph-name="uni0299" unicode="&#x299;" horiz-adv-x="1068" 
d="M632 0h-476v1086h417q173 0 271 -72t97 -197q0 -186 -203 -244q102 -20 167 -93t65 -184q0 -130 -93 -213t-245 -83zM252 993v-386h334q116 0 186 56t69 148q-1 87 -71 134.5t-197 47.5h-321zM252 518v-425h380q108 0 172 58t64 154q0 95 -58.5 154t-153.5 59h-404z" />
    <glyph glyph-name="uni029A" unicode="&#x29a;" horiz-adv-x="1005" 
d="M938 551v-1q-1 -277 -115 -423.5t-333 -146.5q-181 0 -295 84t-114 220q0 92 54 163.5t163 104.5q-196 56 -196 243q1 140 106 222.5t279 82.5q220 0 335 -141.5t116 -406.5v-1zM490 74q347 0 347 477q0 457 -353 457q-127 0 -203 -57.5t-77 -152.5q-1 -91 67.5 -142
t196.5 -51h116v-89h-116q-125 0 -204 -65t-79 -164q1 -96 84 -154.5t221 -58.5z" />
    <glyph glyph-name="uni029B" unicode="&#x29b;" horiz-adv-x="1139" 
d="M1153 1094q40 0 82 -8v-84q-35 5 -63 5q-73 0 -106.5 -36.5t-33.5 -122.5v-122h-106q-17 123 -101.5 188t-224.5 65q-166 -1 -275 -106t-109 -265v-158q0 -166 107 -271t277 -105q99 -1 200 36t131 77v220h-312v94h413v-352q-40 -63 -163.5 -116.5t-268.5 -53.5
q-218 1 -353 131.5t-135 339.5v158q0 204 137.5 334t350.5 130q240 0 353 -143q30 165 200 165z" />
    <glyph glyph-name="uni029C" unicode="&#x29c;" horiz-adv-x="1123" 
d="M863 590v496h102v-1086h-102v495h-606v-495h-101v1086h101v-496h606z" />
    <glyph glyph-name="uni029D" unicode="&#x29d;" horiz-adv-x="514" 
d="M354 1276q-33 0 -56.5 22t-23.5 53t24 53.5t56 22.5t54.5 -22.5t22.5 -53.5t-22.5 -53t-54.5 -22zM402 68h166v-96h-166v-106q0 -116 -67.5 -194.5t-182.5 -78.5q-105 0 -176 69t-71 168q0 103 77 171t191 68h128v63h1v954h100v-1018zM301 -142v115h-128
q-70 1 -117 -41.5t-47 -103.5q0 -58 43 -100.5t99 -42.5q72 0 111 50.5t39 122.5z" />
    <glyph glyph-name="uni029E" unicode="&#x29e;" horiz-adv-x="982" 
d="M727 657v429h100v-1448h-100v891h-12l-530 -529h-130l468 467l-492 619h129l438 -553z" />
    <glyph glyph-name="uni029F" unicode="&#x29f;" horiz-adv-x="818" 
d="M192 1052v-959h552v-93h-664v1052h112z" />
    <glyph glyph-name="uni02A0" unicode="&#x2a0;" horiz-adv-x="1246" 
d="M1115 1328q51 0 82 -6v-88q-29 4 -64 4q-76 0 -110 -34t-34 -118v-1493h-101v633h-9q-40 -108 -127 -178.5t-218 -70.5q-196 0 -316.5 157t-120.5 406q0 250 120.5 406t317.5 156q132 0 217 -69.5t127 -177.5h11v231q0 125 56.5 183.5t168.5 58.5zM545 70
q158 0 251.5 132t93.5 340q0 207 -92.5 337t-252.5 130q-108 0 -187.5 -62t-119.5 -166.5t-40 -238.5q0 -206 93.5 -339t253.5 -133z" />
    <glyph glyph-name="uni02A1" unicode="&#x2a1;" horiz-adv-x="995" 
d="M491 1468q208 0 321.5 -131.5t113.5 -347.5v-80q0 -210 -108.5 -337.5t-316.5 -142.5v-162h227v-94h-227v-173h-116v173h-234v94h234v255h62q188 1 278 103.5t90 283.5v80q0 114 -33 198t-107 135t-184 51q-134 0 -221 -73t-95 -190h-107q10 155 128.5 256.5t294.5 101.5
z" />
    <glyph glyph-name="uni02A2" unicode="&#x2a2;" horiz-adv-x="995" 
d="M506 522h94v-262h230v-83h-230v-177h-112v177h-234v83h234v169q-206 15 -313 142.5t-107 336.5v81q0 216 113.5 347.5t321.5 131.5q184 0 299 -102.5t124 -268.5h-107q-8 124 -93 200t-223 76q-162 0 -242.5 -105t-80.5 -279v-81q0 -170 79.5 -272t246.5 -114z" />
    <glyph glyph-name="uni02A3" unicode="&#x2a3;" horiz-adv-x="1984" 
d="M1237 103v-8h651v-95h-787v82l634 902v7h-746v-991h-99v226h-11q-43 -108 -128.5 -178.5t-216.5 -70.5q-196 0 -316.5 156.5t-120.5 406.5q0 249 121 405.5t317 156.5q132 0 218 -70t126 -177h9v593h101v-362h874v-85zM545 70q159 0 252 132t93 340q0 207 -93 337
t-252 130q-108 0 -187.5 -62t-119.5 -166.5t-40 -238.5q0 -206 93 -339t254 -133z" />
    <glyph glyph-name="uni02A4" unicode="&#x2a4;" horiz-adv-x="1807" 
d="M972 991v-991h-98v226h-11q-42 -108 -128 -178.5t-217 -70.5q-196 0 -316.5 156.5t-120.5 406.5q0 249 121 405.5t317 156.5q132 0 218 -69.5t126 -177.5h8v593h101v-362h685l1 -78l-401 -599q237 -6 367 -117t130 -307q0 -178 -125 -296.5t-331 -118.5
q-170 0 -287.5 88.5t-132.5 251.5h99q10 -112 100.5 -182.5t220.5 -70.5q162 0 259.5 97t97.5 230q0 153 -110 244.5t-312 91.5h-90v97l382 574h-553zM182 542q0 -206 93 -339t254 -133q159 0 251.5 131.5t92.5 340.5q0 208 -92 337.5t-252 129.5q-108 0 -187.5 -62
t-119.5 -166.5t-40 -238.5z" />
    <glyph glyph-name="uni02A5" unicode="&#x2a5;" horiz-adv-x="2111" 
d="M1839 492q105 0 177 -64.5t72 -160.5q0 -48 -20.5 -94.5t-59 -85.5t-101.5 -63t-140 -24h-322l-107 -158l-80 51l72 107h-223v88l635 903h-753v-991h-99v226h-11q-43 -108 -128.5 -178.5t-216.5 -70.5q-196 0 -316.5 156.5t-120.5 406.5q0 249 121 405.5t317 156.5
q132 0 218 -70t126 -177h9v593h101v-362h879v-84l-633 -907h158q76 111 126 176.5t105.5 120.5t106 77.5t108.5 22.5zM545 70q159 0 252 132t93 340q0 207 -93 337t-252 130q-108 0 -187.5 -62t-119.5 -166.5t-40 -238.5q0 -206 93 -339t254 -133zM1768 95q99 0 160.5 49.5
t61.5 117.5q0 58 -45 95.5t-111 37.5q-76 0 -143 -66t-182 -234h259z" />
    <glyph glyph-name="uni02A6" unicode="&#x2a6;" horiz-adv-x="1212" 
d="M822 592q191 -44 274.5 -114t83.5 -187q0 -138 -104 -214.5t-280 -76.5h-372q-102 0 -161 70t-59 207v719h-173v90h173v251h112v-251h357q61 16 126 16q169 0 265.5 -95t100.5 -260h-112q-1 120 -67.5 190.5t-189.5 70.5q-111 0 -176 -55t-65 -152q0 -82 60 -128t207 -81
zM796 98q272 0 272 188q0 77 -57 127t-203 83q-191 43 -278 113.5t-87 189.5q0 118 74 197h-201v-719q0 -179 134 -179h346z" />
    <glyph glyph-name="uni02A7" unicode="&#x2a7;" horiz-adv-x="822" 
d="M760 1513q58 0 117 -14l-11 -94q-47 11 -98 11q-86 0 -139 -54t-53 -144v-1330q0 -135 -81.5 -215t-216.5 -80q-65 0 -113 12l4 95q48 -10 100 -10q88 0 141.5 54t53.5 144v101q-45 -9 -88 -9q-225 0 -225 277v698h-172v90h172v254h112v-254h201v173q0 135 81 215t215 80
zM397 78q25 0 67 8v869h-201v-698q0 -93 32 -136t102 -43z" />
    <glyph glyph-name="uni02A8" unicode="&#x2a8;" horiz-adv-x="1582" 
d="M1178 511q118 0 191.5 -71t73.5 -176q0 -125 -102.5 -206t-255.5 -81q-192 0 -321 131q-134 -125 -269 -126q-115 0 -192 75.5t-77 198.5v742h-161v88h161v260h100v-260h228v-88h-228v-741q0 -83 49 -132t121 -49q98 0 208 107q-96 147 -96 356q0 245 132 404t339 159
q158 0 271 -94t136 -244h-102q-21 108 -103.5 177t-200.5 69q-162 0 -266.5 -131t-104.5 -337q0 -163 66 -282l7 7q48 56 87 93.5t89 75t105 56.5t115 19zM1086 70q111 0 186.5 54t75.5 140q0 68 -47.5 111.5t-125.5 43.5q-46 0 -88 -15t-82 -46t-72 -64.5t-75 -84.5
q-7 -9 -25 -29q101 -110 253 -110z" />
    <glyph glyph-name="uni02A9" unicode="&#x2a9;" horiz-adv-x="1536" 
d="M341 1234v-148h237v-88h-237l-1 -998h-100v998h-161v88h161v165q0 123 68.5 193.5t190.5 70.5q55 0 98 -10v-92q-39 7 -81 7q-175 0 -175 -186zM1008 1100q167 0 268.5 -103.5t101.5 -283.5v-713h-1v-144q0 -126 -63 -194.5t-170 -68.5q-57 0 -83 10v87q30 -7 62 -7
q153 0 153 173v851q0 137 -79 219t-211 82q-135 0 -220.5 -86t-85.5 -226v-696h-101v1086h98v-172h10q39 86 122.5 136t198.5 50z" />
    <glyph glyph-name="uni02AA" unicode="&#x2aa;" horiz-adv-x="1072" 
d="M650 588q187 -43 269.5 -111.5t82.5 -185.5q0 -142 -105.5 -227t-278.5 -85q-304 0 -485 167v-146h-101v1448h101v-1163q95 -110 221 -160.5t264 -50.5q126 0 199 56t73 154q0 81 -56 126t-207 81q-194 47 -278 112.5t-84 180.5q0 134 100.5 220t261.5 86
q152 0 247 -76.5t118 -207.5l-112 -6q-19 90 -84.5 143t-168.5 53q-118 0 -184.5 -58t-66.5 -151q0 -78 59.5 -121t214.5 -78z" />
    <glyph glyph-name="uni02AB" unicode="&#x2ab;" horiz-adv-x="1279" 
d="M1180 1002l-635 -907h658v-95h-783v88l637 903h-807v-991h-101v1448h101v-362h930v-84z" />
    <glyph glyph-name="uni02AC" unicode="&#x2ac;" horiz-adv-x="693" 
d="M131 849l-161 568h93l113 -446l130 446h79l133 -445l111 445h93l-163 -568h-84l-128 437l-131 -437h-85zM385 569l133 -444l111 444h93l-163 -569h-84l-128 438l-131 -438h-85l-161 569h93l113 -445l130 445h79z" />
    <glyph glyph-name="uni02AD" unicode="&#x2ad;" horiz-adv-x="1082" 
d="M931 1414v-561h-92v484h-590v-484h-91v561h773zM931 566v-566h-92v488h-590v-488h-91v566h773z" />
    </font>
</defs>
</svg>
